<?xml version="1.0" encoding="UTF-8" standalone="no"?>
<!DOCTYPE svg PUBLIC "-//W3C//DTD SVG 1.1//EN"
 "http://www.w3.org/Graphics/SVG/1.1/DTD/svg11.dtd">
<!-- Generated by graphviz version 14.1.3 (20260303.0454)
 -->
<!-- Title: newtui_amplifier Pages: 1 -->
<svg width="1919pt" height="1146pt"
 viewBox="0.00 0.00 1919.00 1146.00" xmlns="http://www.w3.org/2000/svg" xmlns:xlink="http://www.w3.org/1999/xlink">
<g id="graph0" class="graph" transform="scale(1 1) rotate(0) translate(4 1142.2)">
<title>newtui_amplifier</title>
<polygon fill="white" stroke="none" points="-4,4 -4,-1142.2 1914.5,-1142.2 1914.5,4 -4,4"/>
<text xml:space="preserve" text-anchor="start" x="826.62" y="-1123.8" font-family="Helvetica,sans-Serif" font-weight="bold" font-size="12.00">newtui ⇄ Amplifier — integration architecture</text>
<text xml:space="preserve" text-anchor="start" x="820.62" y="-1113.7" font-family="Helvetica,sans-Serif" font-size="10.00">app→kernel calls flow right; kernel→app events flow back left</text>
<g id="clust1" class="cluster">
<title>cluster_config</title>
<path fill="#fff8e1" stroke="#e0c060" d="M941.5,-894.2C941.5,-894.2 1191,-894.2 1191,-894.2 1197,-894.2 1203,-900.2 1203,-906.2 1203,-906.2 1203,-1088.2 1203,-1088.2 1203,-1094.2 1197,-1100.2 1191,-1100.2 1191,-1100.2 941.5,-1100.2 941.5,-1100.2 935.5,-1100.2 929.5,-1094.2 929.5,-1088.2 929.5,-1088.2 929.5,-906.2 929.5,-906.2 929.5,-900.2 935.5,-894.2 941.5,-894.2"/>
<text xml:space="preserve" text-anchor="start" x="1022" y="-1085.8" font-family="Helvetica,sans-Serif" font-weight="bold" font-size="12.00">Config sources</text>
</g>
<g id="clust2" class="cluster">
<title>cluster_ui</title>
<path fill="#e3f2fd" stroke="#5b9bd5" d="M21.12,-684.2C21.12,-684.2 522,-684.2 522,-684.2 528,-684.2 534,-690.2 534,-696.2 534,-696.2 534,-876.2 534,-876.2 534,-882.2 528,-888.2 522,-888.2 522,-888.2 21.12,-888.2 21.12,-888.2 15.13,-888.2 9.12,-882.2 9.12,-876.2 9.12,-876.2 9.12,-696.2 9.12,-696.2 9.12,-690.2 15.12,-684.2 21.12,-684.2"/>
<text xml:space="preserve" text-anchor="start" x="183.81" y="-873.8" font-family="Helvetica,sans-Serif" font-weight="bold" font-size="12.00">newtui — UI layer (Textual ~8.2)</text>
</g>
<g id="clust3" class="cluster">
<title>cluster_bridge</title>
<path fill="#e8f5e9" stroke="#66a06b" d="M963.25,-528.2C963.25,-528.2 1553.5,-528.2 1553.5,-528.2 1559.5,-528.2 1565.5,-534.2 1565.5,-540.2 1565.5,-540.2 1565.5,-874.2 1565.5,-874.2 1565.5,-880.2 1559.5,-886.2 1553.5,-886.2 1553.5,-886.2 963.25,-886.2 963.25,-886.2 957.25,-886.2 951.25,-880.2 951.25,-874.2 951.25,-874.2 951.25,-540.2 951.25,-540.2 951.25,-534.2 957.25,-528.2 963.25,-528.2"/>
<text xml:space="preserve" text-anchor="start" x="1079.5" y="-871.8" font-family="Helvetica,sans-Serif" font-weight="bold" font-size="12.00">newtui — kernel bridge (src/…/kernel/, own thread + event loop)</text>
</g>
<g id="clust4" class="cluster">
<title>cluster_foundation</title>
<path fill="#ede7f6" stroke="#8e7cc3" d="M1393.25,-385.2C1393.25,-385.2 1845.5,-385.2 1845.5,-385.2 1851.5,-385.2 1857.5,-391.2 1857.5,-397.2 1857.5,-397.2 1857.5,-508.2 1857.5,-508.2 1857.5,-514.2 1851.5,-520.2 1845.5,-520.2 1845.5,-520.2 1393.25,-520.2 1393.25,-520.2 1387.25,-520.2 1381.25,-514.2 1381.25,-508.2 1381.25,-508.2 1381.25,-397.2 1381.25,-397.2 1381.25,-391.2 1387.25,-385.2 1393.25,-385.2"/>
<text xml:space="preserve" text-anchor="start" x="1540.25" y="-505.8" font-family="Helvetica,sans-Serif" font-weight="bold" font-size="12.00">amplifier&#45;foundation</text>
<text xml:space="preserve" text-anchor="start" x="1655.75" y="-505.8" font-family="Helvetica,sans-Serif" font-size="12.00"> (git pin)</text>
</g>
<g id="clust5" class="cluster">
<title>cluster_core</title>
<path fill="#fbe9e7" stroke="#d98066" d="M1410.88,-204.2C1410.88,-204.2 1890.5,-204.2 1890.5,-204.2 1896.5,-204.2 1902.5,-210.2 1902.5,-216.2 1902.5,-216.2 1902.5,-365.2 1902.5,-365.2 1902.5,-371.2 1896.5,-377.2 1890.5,-377.2 1890.5,-377.2 1410.88,-377.2 1410.88,-377.2 1404.88,-377.2 1398.88,-371.2 1398.88,-365.2 1398.88,-365.2 1398.88,-216.2 1398.88,-216.2 1398.88,-210.2 1404.88,-204.2 1410.88,-204.2"/>
<text xml:space="preserve" text-anchor="start" x="1560.69" y="-362.8" font-family="Helvetica,sans-Serif" font-weight="bold" font-size="12.00">amplifier&#45;core</text>
<text xml:space="preserve" text-anchor="start" x="1639.44" y="-362.8" font-family="Helvetica,sans-Serif" font-size="12.00"> (kernel, PyPI ≥1.6)</text>
</g>
<!-- keys_env -->
<g id="node1" class="node">
<title>keys_env</title>
<path fill="#fff3cd" stroke="#666666" d="M1108,-1071.2C1108,-1071.2 1024.5,-1071.2 1024.5,-1071.2 1018.5,-1071.2 1012.5,-1065.2 1012.5,-1059.2 1012.5,-1059.2 1012.5,-1047.2 1012.5,-1047.2 1012.5,-1041.2 1018.5,-1035.2 1024.5,-1035.2 1024.5,-1035.2 1108,-1035.2 1108,-1035.2 1114,-1035.2 1120,-1041.2 1120,-1047.2 1120,-1047.2 1120,-1059.2 1120,-1059.2 1120,-1065.2 1114,-1071.2 1108,-1071.2"/>
<text xml:space="preserve" text-anchor="middle" x="1066.25" y="-1054.95" font-family="Helvetica,sans-Serif" font-size="10.00">~/.amplifier/keys.env</text>
<text xml:space="preserve" text-anchor="middle" x="1066.25" y="-1043.7" font-family="Helvetica,sans-Serif" font-size="10.00">(API keys, env wins)</text>
</g>
<!-- config -->
<g id="node11" class="node">
<title>config</title>
<path fill="#c8e6c9" stroke="#666666" d="M1545.5,-857.7C1545.5,-857.7 1357.75,-857.7 1357.75,-857.7 1351.75,-857.7 1345.75,-851.7 1345.75,-845.7 1345.75,-845.7 1345.75,-792.7 1345.75,-792.7 1345.75,-786.7 1351.75,-780.7 1357.75,-780.7 1357.75,-780.7 1545.5,-780.7 1545.5,-780.7 1551.5,-780.7 1557.5,-786.7 1557.5,-792.7 1557.5,-792.7 1557.5,-845.7 1557.5,-845.7 1557.5,-851.7 1551.5,-857.7 1545.5,-857.7"/>
<text xml:space="preserve" text-anchor="middle" x="1451.62" y="-844.2" font-family="Helvetica,sans-Serif" font-size="10.00">resolve_config()</text>
<text xml:space="preserve" text-anchor="middle" x="1451.62" y="-832.95" font-family="Helvetica,sans-Serif" font-size="10.00">config.py</text>
<text xml:space="preserve" text-anchor="middle" x="1451.62" y="-821.7" font-family="Helvetica,sans-Serif" font-size="10.00">keys.env · settings merge · bundle discovery</text>
<text xml:space="preserve" text-anchor="middle" x="1451.62" y="-810.45" font-family="Helvetica,sans-Serif" font-size="10.00">apply_module_overrides ·</text>
<text xml:space="preserve" text-anchor="middle" x="1451.62" y="-799.2" font-family="Helvetica,sans-Serif" font-size="10.00">map provider id→instance_id ·</text>
<text xml:space="preserve" text-anchor="middle" x="1451.62" y="-786.45" font-family="Helvetica,sans-Serif" font-size="10.00">expand ${VAR}</text>
</g>
<!-- keys_env&#45;&gt;config -->
<g id="edge1" class="edge">
<title>keys_env&#45;&gt;config</title>
<path fill="none" stroke="#555555" d="M1120.46,-1047.32C1146.07,-1043.32 1176.81,-1036.76 1203,-1026.2 1288.48,-991.74 1366.34,-916.11 1411.09,-866.44"/>
<polygon fill="#555555" stroke="#555555" points="1413.47,-869.02 1417.51,-859.22 1408.25,-864.36 1413.47,-869.02"/>
</g>
<!-- settings -->
<g id="node2" class="node">
<title>settings</title>
<path fill="#fff3cd" stroke="#666666" d="M1112.12,-1016.83C1112.12,-1016.83 1020.38,-1016.83 1020.38,-1016.83 1014.38,-1016.83 1008.38,-1010.83 1008.38,-1004.83 1008.38,-1004.83 1008.38,-985.58 1008.38,-985.58 1008.38,-979.58 1014.38,-973.58 1020.38,-973.58 1020.38,-973.58 1112.12,-973.58 1112.12,-973.58 1118.12,-973.58 1124.12,-979.58 1124.12,-985.58 1124.12,-985.58 1124.12,-1004.83 1124.12,-1004.83 1124.12,-1010.83 1118.12,-1016.83 1112.12,-1016.83"/>
<text xml:space="preserve" text-anchor="middle" x="1066.25" y="-1003.33" font-family="Helvetica,sans-Serif" font-size="10.00">settings.yaml ×3</text>
<text xml:space="preserve" text-anchor="middle" x="1066.25" y="-992.08" font-family="Helvetica,sans-Serif" font-size="10.00">user → project → local</text>
<text xml:space="preserve" text-anchor="middle" x="1066.25" y="-979.33" font-family="Helvetica,sans-Serif" font-size="10.00">(deep merge)</text>
</g>
<!-- settings&#45;&gt;config -->
<g id="edge2" class="edge">
<title>settings&#45;&gt;config</title>
<path fill="none" stroke="#555555" d="M1124.58,-986.68C1149.24,-981.96 1178.07,-975.02 1203,-965.2 1269.17,-939.15 1338.4,-896.86 1386.78,-864.49"/>
<polygon fill="#555555" stroke="#555555" points="1388.59,-867.49 1394.92,-859 1384.67,-861.69 1388.59,-867.49"/>
</g>
<!-- bundle_md -->
<g id="node3" class="node">
<title>bundle_md</title>
<path fill="#fff3cd" stroke="#666666" d="M1183,-955.7C1183,-955.7 949.5,-955.7 949.5,-955.7 943.5,-955.7 937.5,-949.7 937.5,-943.7 937.5,-943.7 937.5,-914.7 937.5,-914.7 937.5,-908.7 943.5,-902.7 949.5,-902.7 949.5,-902.7 1183,-902.7 1183,-902.7 1189,-902.7 1195,-908.7 1195,-914.7 1195,-914.7 1195,-943.7 1195,-943.7 1195,-949.7 1189,-955.7 1183,-955.7"/>
<text xml:space="preserve" text-anchor="middle" x="1066.25" y="-942.2" font-family="Helvetica,sans-Serif" font-size="10.00">bundle: newtui.md</text>
<text xml:space="preserve" text-anchor="middle" x="1066.25" y="-930.95" font-family="Helvetica,sans-Serif" font-size="10.00">loop&#45;streaming · context&#45;simple · provider&#45;anthropic</text>
<text xml:space="preserve" text-anchor="middle" x="1066.25" y="-919.7" font-family="Helvetica,sans-Serif" font-size="10.00">fs/bash/web/search/task + mcp/skills/team&#45;pulse/mode</text>
<text xml:space="preserve" text-anchor="middle" x="1066.25" y="-908.45" font-family="Helvetica,sans-Serif" font-size="10.00">hooks&#45;mode + hooks&#45;approval · 6 foundation agents</text>
</g>
<!-- bundle_md&#45;&gt;config -->
<g id="edge3" class="edge">
<title>bundle_md&#45;&gt;config</title>
<path fill="none" stroke="#555555" d="M1161.03,-902.29C1213.3,-887.3 1278.84,-868.49 1334.35,-852.57"/>
<polygon fill="#555555" stroke="#555555" points="1335.21,-855.96 1343.85,-849.84 1333.28,-849.23 1335.21,-855.96"/>
</g>
<!-- cli -->
<g id="node4" class="node">
<title>cli</title>
<path fill="#bbdefb" stroke="#666666" d="M200.38,-799.7C200.38,-799.7 29.13,-799.7 29.13,-799.7 23.13,-799.7 17.12,-793.7 17.12,-787.7 17.12,-787.7 17.12,-758.7 17.12,-758.7 17.12,-752.7 23.12,-746.7 29.12,-746.7 29.12,-746.7 200.38,-746.7 200.38,-746.7 206.38,-746.7 212.38,-752.7 212.38,-758.7 212.38,-758.7 212.38,-787.7 212.38,-787.7 212.38,-793.7 206.38,-799.7 200.38,-799.7"/>
<text xml:space="preserve" text-anchor="middle" x="114.75" y="-786.2" font-family="Helvetica,sans-Serif" font-size="10.00">CLI entry</text>
<text xml:space="preserve" text-anchor="middle" x="114.75" y="-774.95" font-family="Helvetica,sans-Serif" font-size="10.00">amplifier&#45;newtui</text>
<text xml:space="preserve" text-anchor="middle" x="114.75" y="-763.7" font-family="Helvetica,sans-Serif" font-size="10.00">main.py (run / sessions / resume / doctor</text>
<text xml:space="preserve" text-anchor="middle" x="114.75" y="-752.45" font-family="Helvetica,sans-Serif" font-size="10.00">init / update / bundle …)</text>
</g>
<!-- app -->
<g id="node5" class="node">
<title>app</title>
<path fill="#bbdefb" stroke="#666666" d="M443.5,-825.2C443.5,-825.2 400.5,-825.2 400.5,-825.2 394.5,-825.2 388.5,-819.2 388.5,-813.2 388.5,-813.2 388.5,-801.2 388.5,-801.2 388.5,-795.2 394.5,-789.2 400.5,-789.2 400.5,-789.2 443.5,-789.2 443.5,-789.2 449.5,-789.2 455.5,-795.2 455.5,-801.2 455.5,-801.2 455.5,-813.2 455.5,-813.2 455.5,-819.2 449.5,-825.2 443.5,-825.2"/>
<text xml:space="preserve" text-anchor="middle" x="422" y="-808.95" font-family="Helvetica,sans-Serif" font-size="10.00">NewTuiApp</text>
<text xml:space="preserve" text-anchor="middle" x="422" y="-797.7" font-family="Helvetica,sans-Serif" font-size="10.00">ui/app.py</text>
</g>
<!-- cli&#45;&gt;app -->
<g id="edge4" class="edge">
<title>cli&#45;&gt;app</title>
<path fill="none" stroke="#555555" d="M212.75,-784.01C267.8,-790.14 334.04,-797.52 376.8,-802.28"/>
<polygon fill="#555555" stroke="#555555" points="376.38,-805.75 386.71,-803.38 377.15,-798.8 376.38,-805.75"/>
</g>
<!-- adapter -->
<g id="node9" class="node">
<title>adapter</title>
<polygon fill="#fce4ec" stroke="#c2185b" stroke-width="2" stroke-dasharray="5,2" points="794.25,-734.33 563,-734.33 563,-670.08 794.25,-670.08 794.25,-734.33"/>
<text xml:space="preserve" text-anchor="middle" x="678.62" y="-720.83" font-family="Helvetica,sans-Serif" font-size="10.00">RealRuntimeAdapter</text>
<text xml:space="preserve" text-anchor="middle" x="678.62" y="-709.58" font-family="Helvetica,sans-Serif" font-size="10.00">ui/runtime_adapter.py</text>
<text xml:space="preserve" text-anchor="middle" x="678.62" y="-698.33" font-family="Helvetica,sans-Serif" font-size="10.00">— THREAD BOUNDARY —</text>
<text xml:space="preserve" text-anchor="middle" x="678.62" y="-687.08" font-family="Helvetica,sans-Serif" font-size="10.00">_AppLoopQueue (call_soon_threadsafe)</text>
<text xml:space="preserve" text-anchor="middle" x="678.62" y="-675.83" font-family="Helvetica,sans-Serif" font-size="10.00">submit/interrupt/fork via run_coroutine_threadsafe</text>
</g>
<!-- app&#45;&gt;adapter -->
<g id="edge6" class="edge">
<title>app&#45;&gt;adapter</title>
<path fill="none" stroke="#555555" d="M455.73,-801.56C478.2,-797.13 508.46,-790.05 534,-780.2 561.46,-769.61 590.24,-754.8 614.77,-740.93"/>
<polygon fill="#555555" stroke="#555555" points="616.4,-744.03 623.33,-736.01 612.92,-737.95 616.4,-744.03"/>
</g>
<!-- reducer -->
<g id="node6" class="node">
<title>reducer</title>
<path fill="#bbdefb" stroke="#666666" d="M169.62,-728.2C169.62,-728.2 59.87,-728.2 59.87,-728.2 53.88,-728.2 47.88,-722.2 47.88,-716.2 47.88,-716.2 47.88,-704.2 47.88,-704.2 47.88,-698.2 53.88,-692.2 59.88,-692.2 59.88,-692.2 169.62,-692.2 169.62,-692.2 175.62,-692.2 181.62,-698.2 181.62,-704.2 181.62,-704.2 181.62,-716.2 181.62,-716.2 181.62,-722.2 175.62,-728.2 169.62,-728.2"/>
<text xml:space="preserve" text-anchor="middle" x="114.75" y="-712.7" font-family="Helvetica,sans-Serif" font-size="10.00">reducer.py</text>
<text xml:space="preserve" text-anchor="middle" x="114.75" y="-701.45" font-family="Helvetica,sans-Serif" font-size="10.00">UIEvent → widget updates</text>
</g>
<!-- widgets -->
<g id="node8" class="node">
<title>widgets</title>
<path fill="#bbdefb" stroke="#666666" d="M514,-770.7C514,-770.7 330,-770.7 330,-770.7 324,-770.7 318,-764.7 318,-758.7 318,-758.7 318,-729.7 318,-729.7 318,-723.7 324,-717.7 330,-717.7 330,-717.7 514,-717.7 514,-717.7 520,-717.7 526,-723.7 526,-729.7 526,-729.7 526,-758.7 526,-758.7 526,-764.7 520,-770.7 514,-770.7"/>
<text xml:space="preserve" text-anchor="middle" x="422" y="-757.2" font-family="Helvetica,sans-Serif" font-size="10.00">widgets</text>
<text xml:space="preserve" text-anchor="middle" x="422" y="-745.95" font-family="Helvetica,sans-Serif" font-size="10.00">transcript · live_tail · lanes_panel</text>
<text xml:space="preserve" text-anchor="middle" x="422" y="-734.7" font-family="Helvetica,sans-Serif" font-size="10.00">approval_bar · needs_you · footer ($/tokens)</text>
<text xml:space="preserve" text-anchor="middle" x="422" y="-723.45" font-family="Helvetica,sans-Serif" font-size="10.00">rewind_strip · queued_strip · palette</text>
</g>
<!-- reducer&#45;&gt;widgets -->
<g id="edge25" class="edge">
<title>reducer&#45;&gt;widgets</title>
<path fill="none" stroke="#c62828" d="M181.98,-717.58C218.28,-721.62 264.31,-726.75 306.25,-731.42"/>
<polygon fill="#c62828" stroke="#c62828" points="305.85,-734.9 316.17,-732.53 306.62,-727.94 305.85,-734.9"/>
</g>
<!-- composer -->
<g id="node7" class="node">
<title>composer</title>
<path fill="#bbdefb" stroke="#666666" d="M162.12,-859.08C162.12,-859.08 67.38,-859.08 67.38,-859.08 61.37,-859.08 55.38,-853.08 55.38,-847.08 55.38,-847.08 55.38,-829.33 55.38,-829.33 55.38,-823.33 61.38,-817.33 67.38,-817.33 67.38,-817.33 162.12,-817.33 162.12,-817.33 168.12,-817.33 174.12,-823.33 174.12,-829.33 174.12,-829.33 174.12,-847.08 174.12,-847.08 174.12,-853.08 168.12,-859.08 162.12,-859.08"/>
<text xml:space="preserve" text-anchor="middle" x="114.75" y="-845.58" font-family="Helvetica,sans-Serif" font-size="10.00">composer.py</text>
<text xml:space="preserve" text-anchor="middle" x="114.75" y="-834.33" font-family="Helvetica,sans-Serif" font-size="10.00">large&#45;paste stubs ·</text>
<text xml:space="preserve" text-anchor="middle" x="114.75" y="-823.08" font-family="Helvetica,sans-Serif" font-size="10.00">image paste / drag&#45;drop</text>
</g>
<!-- composer&#45;&gt;app -->
<g id="edge5" class="edge">
<title>composer&#45;&gt;app</title>
<path fill="none" stroke="#555555" d="M174.61,-832.23C233.72,-826.22 323.46,-817.11 376.77,-811.7"/>
<polygon fill="#555555" stroke="#555555" points="377.11,-815.18 386.7,-810.69 376.4,-808.21 377.11,-815.18"/>
<text xml:space="preserve" text-anchor="middle" x="273.75" y="-835.51" font-family="Helvetica,sans-Serif" font-size="9.00">submit(text,</text>
<text xml:space="preserve" text-anchor="middle" x="273.75" y="-825.76" font-family="Helvetica,sans-Serif" font-size="9.00">attachments)</text>
</g>
<!-- adapter&#45;&gt;reducer -->
<g id="edge24" class="edge">
<title>adapter&#45;&gt;reducer</title>
<path fill="none" stroke="#c62828" d="M562,-699.8C552.53,-699.66 543.1,-699.54 534,-699.45 438,-698.53 413.97,-696.9 318,-699.45 276.75,-700.55 230.81,-702.9 193.16,-705.12"/>
<polygon fill="#c62828" stroke="#c62828" points="193.04,-701.62 183.26,-705.72 193.46,-708.61 193.04,-701.62"/>
<text xml:space="preserve" text-anchor="middle" x="422" y="-700.65" font-family="Helvetica,sans-Serif" font-size="9.00" fill="#c62828">hop to app loop</text>
</g>
<!-- runtime -->
<g id="node10" class="node">
<title>runtime</title>
<path fill="#c8e6c9" stroke="#666666" d="M1119.25,-857.08C1119.25,-857.08 1013.25,-857.08 1013.25,-857.08 1007.25,-857.08 1001.25,-851.08 1001.25,-845.08 1001.25,-845.08 1001.25,-827.33 1001.25,-827.33 1001.25,-821.33 1007.25,-815.33 1013.25,-815.33 1013.25,-815.33 1119.25,-815.33 1119.25,-815.33 1125.25,-815.33 1131.25,-821.33 1131.25,-827.33 1131.25,-827.33 1131.25,-845.08 1131.25,-845.08 1131.25,-851.08 1125.25,-857.08 1119.25,-857.08"/>
<text xml:space="preserve" text-anchor="middle" x="1066.25" y="-843.58" font-family="Helvetica,sans-Serif" font-size="10.00">RealRuntime</text>
<text xml:space="preserve" text-anchor="middle" x="1066.25" y="-832.33" font-family="Helvetica,sans-Serif" font-size="10.00">runtime.py</text>
<text xml:space="preserve" text-anchor="middle" x="1066.25" y="-821.08" font-family="Helvetica,sans-Serif" font-size="10.00">7&#45;step foundation lifecycle</text>
</g>
<!-- adapter&#45;&gt;runtime -->
<g id="edge7" class="edge">
<title>adapter&#45;&gt;runtime</title>
<path fill="none" stroke="#2e7d32" d="M749.74,-735.31C799.15,-757.66 867.33,-786.57 929.5,-806.2 948.73,-812.28 969.87,-817.58 989.63,-821.97"/>
<polygon fill="#2e7d32" stroke="#2e7d32" points="988.76,-825.37 999.28,-824.07 990.24,-818.53 988.76,-825.37"/>
<text xml:space="preserve" text-anchor="middle" x="865.88" y="-802.91" font-family="Helvetica,sans-Serif" font-size="9.00" fill="#2e7d32">submit / interrupt / fork</text>
</g>
<!-- runtime&#45;&gt;config -->
<g id="edge8" class="edge">
<title>runtime&#45;&gt;config</title>
<path fill="none" stroke="#555555" d="M1131.42,-833.36C1186.53,-830.91 1267.38,-827.33 1333.92,-824.38"/>
<polygon fill="#555555" stroke="#555555" points="1333.97,-827.88 1343.8,-823.94 1333.66,-820.89 1333.97,-827.88"/>
<text xml:space="preserve" text-anchor="middle" x="1270.38" y="-830.93" font-family="Helvetica,sans-Serif" font-size="9.00">1. resolve</text>
</g>
<!-- factory -->
<g id="node12" class="node">
<title>factory</title>
<path fill="#c8e6c9" stroke="#666666" d="M1514.38,-714.7C1514.38,-714.7 1388.88,-714.7 1388.88,-714.7 1382.88,-714.7 1376.88,-708.7 1376.88,-702.7 1376.88,-702.7 1376.88,-649.7 1376.88,-649.7 1376.88,-643.7 1382.88,-637.7 1388.88,-637.7 1388.88,-637.7 1514.38,-637.7 1514.38,-637.7 1520.38,-637.7 1526.38,-643.7 1526.38,-649.7 1526.38,-649.7 1526.38,-702.7 1526.38,-702.7 1526.38,-708.7 1520.38,-714.7 1514.38,-714.7"/>
<text xml:space="preserve" text-anchor="middle" x="1451.62" y="-701.2" font-family="Helvetica,sans-Serif" font-size="10.00">create_initialized_session()</text>
<text xml:space="preserve" text-anchor="middle" x="1451.62" y="-689.95" font-family="Helvetica,sans-Serif" font-size="10.00">session_factory.py</text>
<text xml:space="preserve" text-anchor="middle" x="1451.62" y="-678.7" font-family="Helvetica,sans-Serif" font-size="10.00">mint id · stamp metadata ·</text>
<text xml:space="preserve" text-anchor="middle" x="1451.62" y="-667.45" font-family="Helvetica,sans-Serif" font-size="10.00">verify_mounts → MountReport</text>
<text xml:space="preserve" text-anchor="middle" x="1451.62" y="-654.7" font-family="Helvetica,sans-Serif" font-size="10.00">(0 providers = hard fail,</text>
<text xml:space="preserve" text-anchor="middle" x="1451.62" y="-643.45" font-family="Helvetica,sans-Serif" font-size="10.00">partial = degraded notice)</text>
</g>
<!-- runtime&#45;&gt;factory -->
<g id="edge11" class="edge">
<title>runtime&#45;&gt;factory</title>
<path fill="none" stroke="#555555" d="M1131.44,-825.66C1154.4,-820.94 1180.22,-814.53 1203,-806.2 1264.54,-783.71 1330.01,-748.8 1378.17,-720.82"/>
<polygon fill="#555555" stroke="#555555" points="1379.7,-723.98 1386.56,-715.91 1376.16,-717.94 1379.7,-723.98"/>
<text xml:space="preserve" text-anchor="middle" x="1270.38" y="-802.08" font-family="Helvetica,sans-Serif" font-size="9.00">2. create</text>
</g>
<!-- fork -->
<g id="node19" class="node">
<title>fork</title>
<path fill="#d1c4e9" stroke="#666666" d="M1502,-491.2C1502,-491.2 1401.25,-491.2 1401.25,-491.2 1395.25,-491.2 1389.25,-485.2 1389.25,-479.2 1389.25,-479.2 1389.25,-467.2 1389.25,-467.2 1389.25,-461.2 1395.25,-455.2 1401.25,-455.2 1401.25,-455.2 1502,-455.2 1502,-455.2 1508,-455.2 1514,-461.2 1514,-467.2 1514,-467.2 1514,-479.2 1514,-479.2 1514,-485.2 1508,-491.2 1502,-491.2"/>
<text xml:space="preserve" text-anchor="middle" x="1451.62" y="-474.95" font-family="Helvetica,sans-Serif" font-size="10.00">fork_session_in_memory</text>
<text xml:space="preserve" text-anchor="middle" x="1451.62" y="-463.7" font-family="Helvetica,sans-Serif" font-size="10.00">(rewind / checkpoints)</text>
</g>
<!-- runtime&#45;&gt;fork -->
<g id="edge21" class="edge">
<title>runtime&#45;&gt;fork</title>
<path fill="none" stroke="#2e7d32" stroke-dasharray="5,2" d="M1131.54,-837.93C1157.59,-835.06 1185.59,-826.72 1203,-806.2 1216.35,-790.46 1203.14,-638.84 1213,-620.7 1247.54,-557.18 1322.29,-517.66 1378.79,-495.7"/>
<polygon fill="#2e7d32" stroke="#2e7d32" points="1379.94,-499.01 1388.06,-492.2 1377.47,-492.46 1379.94,-499.01"/>
<text xml:space="preserve" text-anchor="middle" x="1270.38" y="-631.65" font-family="Helvetica,sans-Serif" font-size="9.00" fill="#2e7d32">rewind: fork +</text>
<text xml:space="preserve" text-anchor="middle" x="1270.38" y="-621.9" font-family="Helvetica,sans-Serif" font-size="9.00" fill="#2e7d32">context.set_messages()</text>
</g>
<!-- session -->
<g id="node20" class="node">
<title>session</title>
<path fill="#ffccbc" stroke="#666666" d="M1484.38,-348.2C1484.38,-348.2 1418.88,-348.2 1418.88,-348.2 1412.88,-348.2 1406.88,-342.2 1406.88,-336.2 1406.88,-336.2 1406.88,-324.2 1406.88,-324.2 1406.88,-318.2 1412.88,-312.2 1418.88,-312.2 1418.88,-312.2 1484.38,-312.2 1484.38,-312.2 1490.38,-312.2 1496.38,-318.2 1496.38,-324.2 1496.38,-324.2 1496.38,-336.2 1496.38,-336.2 1496.38,-342.2 1490.38,-348.2 1484.38,-348.2"/>
<text xml:space="preserve" text-anchor="middle" x="1451.62" y="-331.95" font-family="Helvetica,sans-Serif" font-size="10.00">AmplifierSession</text>
<text xml:space="preserve" text-anchor="middle" x="1451.62" y="-320.7" font-family="Helvetica,sans-Serif" font-size="10.00">.execute(text)</text>
</g>
<!-- runtime&#45;&gt;session -->
<g id="edge16" class="edge">
<title>runtime&#45;&gt;session</title>
<path fill="none" stroke="#2e7d32" stroke-width="1.6" d="M1131.74,-838.1C1157.83,-835.26 1185.8,-826.9 1203,-806.2 1224.23,-780.66 1199.4,-537.75 1213,-507.45 1247.78,-429.98 1336.44,-378.74 1395.08,-352.1"/>
<polygon fill="#2e7d32" stroke="#2e7d32" stroke-width="1.6" points="1396.44,-355.33 1404.17,-348.08 1393.6,-348.93 1396.44,-355.33"/>
<text xml:space="preserve" text-anchor="middle" x="1270.38" y="-508.65" font-family="Helvetica,sans-Serif" font-size="9.00" fill="#2e7d32">3. execute(text) per turn</text>
</g>
<!-- coord -->
<g id="node21" class="node">
<title>coord</title>
<path fill="#ffccbc" stroke="#666666" d="M1819.88,-254.08C1819.88,-254.08 1737.88,-254.08 1737.88,-254.08 1731.88,-254.08 1725.88,-248.08 1725.88,-242.08 1725.88,-242.08 1725.88,-224.33 1725.88,-224.33 1725.88,-218.33 1731.88,-212.33 1737.88,-212.33 1737.88,-212.33 1819.88,-212.33 1819.88,-212.33 1825.88,-212.33 1831.88,-218.33 1831.88,-224.33 1831.88,-224.33 1831.88,-242.08 1831.88,-242.08 1831.88,-248.08 1825.88,-254.08 1819.88,-254.08"/>
<text xml:space="preserve" text-anchor="middle" x="1778.88" y="-240.58" font-family="Helvetica,sans-Serif" font-size="10.00">Coordinator</text>
<text xml:space="preserve" text-anchor="middle" x="1778.88" y="-229.33" font-family="Helvetica,sans-Serif" font-size="10.00">hooks · capabilities ·</text>
<text xml:space="preserve" text-anchor="middle" x="1778.88" y="-218.08" font-family="Helvetica,sans-Serif" font-size="10.00">cancellation</text>
</g>
<!-- runtime&#45;&gt;coord -->
<g id="edge20" class="edge">
<title>runtime&#45;&gt;coord</title>
<path fill="none" stroke="#2e7d32" stroke-dasharray="5,2" d="M1131.48,-838.22C1157.69,-835.43 1185.82,-827.08 1203,-806.2 1217.87,-788.14 1202.39,-406.05 1213,-385.2 1246.69,-319.02 1276.9,-311.57 1345.75,-283.7 1411.13,-257.24 1611.08,-242.51 1714.47,-236.48"/>
<polygon fill="#2e7d32" stroke="#2e7d32" points="1714.39,-239.99 1724.17,-235.93 1713.98,-233 1714.39,-239.99"/>
<text xml:space="preserve" text-anchor="middle" x="1451.62" y="-294.65" font-family="Helvetica,sans-Serif" font-size="9.00" fill="#2e7d32">cancellation.</text>
<text xml:space="preserve" text-anchor="middle" x="1451.62" y="-284.9" font-family="Helvetica,sans-Serif" font-size="9.00" fill="#2e7d32">request_graceful()</text>
</g>
<!-- loadbundle -->
<g id="node17" class="node">
<title>loadbundle</title>
<path fill="#d1c4e9" stroke="#666666" d="M1496.75,-437.58C1496.75,-437.58 1406.5,-437.58 1406.5,-437.58 1400.5,-437.58 1394.5,-431.58 1394.5,-425.58 1394.5,-425.58 1394.5,-404.83 1394.5,-404.83 1394.5,-398.83 1400.5,-392.83 1406.5,-392.83 1406.5,-392.83 1496.75,-392.83 1496.75,-392.83 1502.75,-392.83 1508.75,-398.83 1508.75,-404.83 1508.75,-404.83 1508.75,-425.58 1508.75,-425.58 1508.75,-431.58 1502.75,-437.58 1496.75,-437.58"/>
<text xml:space="preserve" text-anchor="middle" x="1451.62" y="-424.08" font-family="Helvetica,sans-Serif" font-size="10.00">load_bundle(uri)</text>
<text xml:space="preserve" text-anchor="middle" x="1451.62" y="-412.83" font-family="Helvetica,sans-Serif" font-size="10.00">→ .compose(overlays)</text>
<text xml:space="preserve" text-anchor="middle" x="1451.62" y="-400.08" font-family="Helvetica,sans-Serif" font-size="10.00">→ .prepare() &#160;[once]</text>
</g>
<!-- config&#45;&gt;loadbundle -->
<g id="edge9" class="edge">
<title>config&#45;&gt;loadbundle</title>
<path fill="none" stroke="#2e7d32" d="M1345.43,-780.84C1285.98,-752.03 1226.57,-706.81 1241.88,-644.58 1265.65,-547.94 1268.78,-509.29 1345.75,-446.2 1356.62,-437.29 1369.96,-430.94 1383.46,-426.42"/>
<polygon fill="#2e7d32" stroke="#2e7d32" points="1384.25,-429.84 1392.82,-423.6 1382.24,-423.13 1384.25,-429.84"/>
<text xml:space="preserve" text-anchor="middle" x="1270.38" y="-647.28" font-family="Helvetica,sans-Serif" font-size="9.00" fill="#2e7d32">load → compose → prepare</text>
</g>
<!-- prepared -->
<g id="node18" class="node">
<title>prepared</title>
<path fill="#d1c4e9" stroke="#666666" d="M1837.5,-436.08C1837.5,-436.08 1720.25,-436.08 1720.25,-436.08 1714.25,-436.08 1708.25,-430.08 1708.25,-424.08 1708.25,-424.08 1708.25,-406.33 1708.25,-406.33 1708.25,-400.33 1714.25,-394.33 1720.25,-394.33 1720.25,-394.33 1837.5,-394.33 1837.5,-394.33 1843.5,-394.33 1849.5,-400.33 1849.5,-406.33 1849.5,-406.33 1849.5,-424.08 1849.5,-424.08 1849.5,-430.08 1843.5,-436.08 1837.5,-436.08"/>
<text xml:space="preserve" text-anchor="middle" x="1778.88" y="-422.58" font-family="Helvetica,sans-Serif" font-size="10.00">PreparedBundle</text>
<text xml:space="preserve" text-anchor="middle" x="1778.88" y="-411.33" font-family="Helvetica,sans-Serif" font-size="10.00">.create_session(id, approval,</text>
<text xml:space="preserve" text-anchor="middle" x="1778.88" y="-400.08" font-family="Helvetica,sans-Serif" font-size="10.00">display, cwd, resumed)</text>
</g>
<!-- factory&#45;&gt;prepared -->
<g id="edge12" class="edge">
<title>factory&#45;&gt;prepared</title>
<path fill="none" stroke="#2e7d32" d="M1500.97,-637.41C1567.15,-584.3 1684.39,-490.22 1742.79,-443.36"/>
<polygon fill="#2e7d32" stroke="#2e7d32" points="1744.85,-446.19 1750.46,-437.2 1740.47,-440.73 1744.85,-446.19"/>
<text xml:space="preserve" text-anchor="middle" x="1610.38" y="-577.96" font-family="Helvetica,sans-Serif" font-size="9.00" fill="#2e7d32">create_session()</text>
</g>
<!-- qbridge -->
<g id="node13" class="node">
<title>qbridge</title>
<path fill="#c8e6c9" stroke="#666666" d="M1130.5,-604.58C1130.5,-604.58 1002,-604.58 1002,-604.58 996,-604.58 990,-598.58 990,-592.58 990,-592.58 990,-547.83 990,-547.83 990,-541.83 996,-535.83 1002,-535.83 1002,-535.83 1130.5,-535.83 1130.5,-535.83 1136.5,-535.83 1142.5,-541.83 1142.5,-547.83 1142.5,-547.83 1142.5,-592.58 1142.5,-592.58 1142.5,-598.58 1136.5,-604.58 1130.5,-604.58"/>
<text xml:space="preserve" text-anchor="middle" x="1066.25" y="-591.08" font-family="Helvetica,sans-Serif" font-size="10.00">QueueBridge</text>
<text xml:space="preserve" text-anchor="middle" x="1066.25" y="-579.83" font-family="Helvetica,sans-Serif" font-size="10.00">queue_bridge.py</text>
<text xml:space="preserve" text-anchor="middle" x="1066.25" y="-568.58" font-family="Helvetica,sans-Serif" font-size="10.00">~30 hook events → normalize()</text>
<text xml:space="preserve" text-anchor="middle" x="1066.25" y="-555.83" font-family="Helvetica,sans-Serif" font-size="10.00">→ asyncio.Queue[UIEvent]</text>
<text xml:space="preserve" text-anchor="middle" x="1066.25" y="-543.08" font-family="Helvetica,sans-Serif" font-size="10.00">tap → evidence · events.jsonl</text>
</g>
<!-- qbridge&#45;&gt;adapter -->
<g id="edge23" class="edge">
<title>qbridge&#45;&gt;adapter</title>
<path fill="none" stroke="#c62828" stroke-width="1.8" d="M989.74,-594.3C970.1,-600.68 948.98,-607.62 929.5,-614.2 881.41,-630.46 828.33,-649.06 783.51,-664.96"/>
<polygon fill="#c62828" stroke="#c62828" stroke-width="1.8" points="782.52,-661.6 774.27,-668.24 784.86,-668.19 782.52,-661.6"/>
<text xml:space="preserve" text-anchor="middle" x="865.88" y="-665.51" font-family="Helvetica,sans-Serif" font-size="9.00" fill="#c62828">asyncio.Queue[UIEvent]</text>
<text xml:space="preserve" text-anchor="middle" x="865.88" y="-655.76" font-family="Helvetica,sans-Serif" font-size="9.00" fill="#c62828">(29 typed pydantic events)</text>
</g>
<!-- spawner -->
<g id="node14" class="node">
<title>spawner</title>
<path fill="#c8e6c9" stroke="#666666" d="M1122.62,-797.08C1122.62,-797.08 1009.88,-797.08 1009.88,-797.08 1003.88,-797.08 997.88,-791.08 997.88,-785.08 997.88,-785.08 997.88,-767.33 997.88,-767.33 997.88,-761.33 1003.88,-755.33 1009.88,-755.33 1009.88,-755.33 1122.62,-755.33 1122.62,-755.33 1128.62,-755.33 1134.62,-761.33 1134.62,-767.33 1134.62,-767.33 1134.62,-785.08 1134.62,-785.08 1134.62,-791.08 1128.62,-797.08 1122.62,-797.08"/>
<text xml:space="preserve" text-anchor="middle" x="1066.25" y="-783.58" font-family="Helvetica,sans-Serif" font-size="10.00">SessionSpawner</text>
<text xml:space="preserve" text-anchor="middle" x="1066.25" y="-772.33" font-family="Helvetica,sans-Serif" font-size="10.00">spawner.py</text>
<text xml:space="preserve" text-anchor="middle" x="1066.25" y="-761.08" font-family="Helvetica,sans-Serif" font-size="10.00">depth&#45;limited child sessions</text>
</g>
<!-- spawner&#45;&gt;coord -->
<g id="edge17" class="edge">
<title>spawner&#45;&gt;coord</title>
<path fill="none" stroke="#2e7d32" d="M1135.03,-777.84C1160.22,-774.69 1186.62,-766.17 1203,-746.2 1220.13,-725.32 1195.74,-280.97 1213,-260.2 1275.28,-185.28 1580.5,-210.3 1714.54,-225.33"/>
<polygon fill="#2e7d32" stroke="#2e7d32" points="1713.98,-228.79 1724.31,-226.44 1714.77,-221.83 1713.98,-228.79"/>
<text xml:space="preserve" text-anchor="middle" x="1451.62" y="-224.84" font-family="Helvetica,sans-Serif" font-size="9.00" fill="#2e7d32">capability:</text>
<text xml:space="preserve" text-anchor="middle" x="1451.62" y="-215.09" font-family="Helvetica,sans-Serif" font-size="9.00" fill="#2e7d32">session.spawn / resume</text>
</g>
<!-- broker -->
<g id="node15" class="node">
<title>broker</title>
<path fill="#c8e6c9" stroke="#666666" d="M1118.12,-737.08C1118.12,-737.08 1014.38,-737.08 1014.38,-737.08 1008.38,-737.08 1002.38,-731.08 1002.38,-725.08 1002.38,-725.08 1002.38,-707.33 1002.38,-707.33 1002.38,-701.33 1008.38,-695.33 1014.38,-695.33 1014.38,-695.33 1118.12,-695.33 1118.12,-695.33 1124.12,-695.33 1130.12,-701.33 1130.12,-707.33 1130.12,-707.33 1130.12,-725.08 1130.12,-725.08 1130.12,-731.08 1124.12,-737.08 1118.12,-737.08"/>
<text xml:space="preserve" text-anchor="middle" x="1066.25" y="-723.58" font-family="Helvetica,sans-Serif" font-size="10.00">ApprovalBroker</text>
<text xml:space="preserve" text-anchor="middle" x="1066.25" y="-712.33" font-family="Helvetica,sans-Serif" font-size="10.00">+ DisplaySystem</text>
<text xml:space="preserve" text-anchor="middle" x="1066.25" y="-701.08" font-family="Helvetica,sans-Serif" font-size="10.00">approval UI · notifications</text>
</g>
<!-- broker&#45;&gt;coord -->
<g id="edge18" class="edge">
<title>broker&#45;&gt;coord</title>
<path fill="none" stroke="#2e7d32" d="M1130.46,-718.35C1156.97,-715.68 1185.63,-707.38 1203,-686.2 1219.99,-665.5 1195.88,-224.8 1213,-204.2 1260.72,-146.81 1554.17,-175.22 1565.5,-176.7 1616.55,-183.38 1672.79,-198.71 1714.56,-211.73"/>
<polygon fill="#2e7d32" stroke="#2e7d32" points="1713.37,-215.02 1723.96,-214.7 1715.48,-208.34 1713.37,-215.02"/>
<text xml:space="preserve" text-anchor="middle" x="1451.62" y="-187.65" font-family="Helvetica,sans-Serif" font-size="9.00" fill="#2e7d32">approval.register_provider</text>
<text xml:space="preserve" text-anchor="middle" x="1451.62" y="-177.9" font-family="Helvetica,sans-Serif" font-size="9.00" fill="#2e7d32">+ display_system</text>
</g>
<!-- apphooks -->
<g id="node16" class="node">
<title>apphooks</title>
<path fill="#c8e6c9" stroke="#666666" d="M1161.25,-677.45C1161.25,-677.45 971.25,-677.45 971.25,-677.45 965.25,-677.45 959.25,-671.45 959.25,-665.45 959.25,-665.45 959.25,-634.95 959.25,-634.95 959.25,-628.95 965.25,-622.95 971.25,-622.95 971.25,-622.95 1161.25,-622.95 1161.25,-622.95 1167.25,-622.95 1173.25,-628.95 1173.25,-634.95 1173.25,-634.95 1173.25,-665.45 1173.25,-665.45 1173.25,-671.45 1167.25,-677.45 1161.25,-677.45"/>
<text xml:space="preserve" text-anchor="middle" x="1066.25" y="-663.95" font-family="Helvetica,sans-Serif" font-size="10.00">app hooks</text>
<text xml:space="preserve" text-anchor="middle" x="1066.25" y="-652.7" font-family="Helvetica,sans-Serif" font-size="10.00">StepBoundaryBridge (steer @ step boundary)</text>
<text xml:space="preserve" text-anchor="middle" x="1066.25" y="-641.45" font-family="Helvetica,sans-Serif" font-size="10.00">IncrementalSaver (persist on tool:post)</text>
<text xml:space="preserve" text-anchor="middle" x="1066.25" y="-630.2" font-family="Helvetica,sans-Serif" font-size="10.00">ClipboardImageInjector (text → multimodal)</text>
</g>
<!-- apphooks&#45;&gt;coord -->
<g id="edge19" class="edge">
<title>apphooks&#45;&gt;coord</title>
<path fill="none" stroke="#2e7d32" d="M1173.58,-636.23C1184.94,-630.68 1195.18,-623.21 1203,-613.2 1218.91,-592.84 1196.47,-168.07 1213,-148.2 1251.54,-101.89 1285.81,-126.85 1345.75,-120.7 1478.72,-107.07 1524.94,-89.94 1645.25,-148.2 1678.64,-164.38 1713.89,-187.28 1739.65,-205.24"/>
<polygon fill="#2e7d32" stroke="#2e7d32" points="1737.61,-208.08 1747.79,-210.98 1741.64,-202.36 1737.61,-208.08"/>
<text xml:space="preserve" text-anchor="middle" x="1451.62" y="-131.65" font-family="Helvetica,sans-Serif" font-size="9.00" fill="#2e7d32">register hooks</text>
<text xml:space="preserve" text-anchor="middle" x="1451.62" y="-121.9" font-family="Helvetica,sans-Serif" font-size="9.00" fill="#2e7d32">(provider:request, tool:post)</text>
</g>
<!-- loadbundle&#45;&gt;prepared -->
<g id="edge10" class="edge">
<title>loadbundle&#45;&gt;prepared</title>
<path fill="none" stroke="#555555" d="M1508.91,-415.2C1560.64,-415.2 1637.94,-415.2 1696.41,-415.2"/>
<polygon fill="#555555" stroke="#555555" points="1696.33,-418.7 1706.33,-415.2 1696.33,-411.7 1696.33,-418.7"/>
</g>
<!-- prepared&#45;&gt;session -->
<g id="edge13" class="edge">
<title>prepared&#45;&gt;session</title>
<path fill="none" stroke="#555555" d="M1707.84,-396.9C1647.95,-381.25 1562.94,-359.03 1507.78,-344.62"/>
<polygon fill="#555555" stroke="#555555" points="1508.85,-341.28 1498.29,-342.14 1507.08,-348.05 1508.85,-341.28"/>
<text xml:space="preserve" text-anchor="middle" x="1610.38" y="-391.27" font-family="Helvetica,sans-Serif" font-size="9.00">mounts modules,</text>
<text xml:space="preserve" text-anchor="middle" x="1610.38" y="-381.52" font-family="Helvetica,sans-Serif" font-size="9.00">returns session</text>
</g>
<!-- session&#45;&gt;coord -->
<g id="edge15" class="edge">
<title>session&#45;&gt;coord</title>
<path fill="none" stroke="#555555" stroke-dasharray="1,5" d="M1496.74,-324.32C1545.77,-317.14 1621.21,-303.98 1645.25,-288.2 1656.7,-280.69 1651.96,-270.95 1663.25,-263.2 1678.35,-252.84 1696.81,-246.06 1714.46,-241.62"/>
<polygon fill="#555555" stroke="#555555" points="1715.16,-245.05 1724.13,-239.42 1713.6,-238.23 1715.16,-245.05"/>
</g>
<!-- modules -->
<g id="node22" class="node">
<title>modules</title>
<path fill="#ffccbc" stroke="#666666" d="M1882.5,-347.95C1882.5,-347.95 1675.25,-347.95 1675.25,-347.95 1669.25,-347.95 1663.25,-341.95 1663.25,-335.95 1663.25,-335.95 1663.25,-284.45 1663.25,-284.45 1663.25,-278.45 1669.25,-272.45 1675.25,-272.45 1675.25,-272.45 1882.5,-272.45 1882.5,-272.45 1888.5,-272.45 1894.5,-278.45 1894.5,-284.45 1894.5,-284.45 1894.5,-335.95 1894.5,-335.95 1894.5,-341.95 1888.5,-347.95 1882.5,-347.95"/>
<text xml:space="preserve" text-anchor="middle" x="1778.88" y="-334.45" font-family="Helvetica,sans-Serif" font-size="10.00">mounted modules</text>
<text xml:space="preserve" text-anchor="middle" x="1778.88" y="-323.2" font-family="Helvetica,sans-Serif" font-size="10.00">loop&#45;streaming orchestrator</text>
<text xml:space="preserve" text-anchor="middle" x="1778.88" y="-311.95" font-family="Helvetica,sans-Serif" font-size="10.00">provider&#45;anthropic · context&#45;simple</text>
<text xml:space="preserve" text-anchor="middle" x="1778.88" y="-300.7" font-family="Helvetica,sans-Serif" font-size="10.00">tools: fs/bash/web/search/task</text>
<text xml:space="preserve" text-anchor="middle" x="1778.88" y="-289.45" font-family="Helvetica,sans-Serif" font-size="10.00">+ mcp/skills/team&#45;pulse/mode</text>
<text xml:space="preserve" text-anchor="middle" x="1778.88" y="-278.2" font-family="Helvetica,sans-Serif" font-size="10.00">hooks&#45;mode (decides) · hooks&#45;approval (prompts)</text>
</g>
<!-- session&#45;&gt;modules -->
<g id="edge14" class="edge">
<title>session&#45;&gt;modules</title>
<path fill="none" stroke="#555555" stroke-dasharray="1,5" d="M1496.83,-327.48C1536.64,-325.04 1597.13,-321.32 1651.81,-317.95"/>
<polygon fill="#555555" stroke="#555555" points="1651.74,-321.47 1661.51,-317.36 1651.31,-314.48 1651.74,-321.47"/>
</g>
<!-- coord&#45;&gt;qbridge -->
<g id="edge22" class="edge">
<title>coord&#45;&gt;qbridge</title>
<path fill="none" stroke="#c62828" stroke-width="1.8" d="M1764.74,-212.03C1735.6,-167.5 1660.52,-65.81 1565.5,-35.45 1414.34,12.84 1318.99,25.9 1213,-92.2 1100.1,-218.01 1074.63,-429.19 1068.9,-522.93"/>
<polygon fill="#c62828" stroke="#c62828" stroke-width="1.8" points="1065.42,-522.46 1068.37,-532.63 1072.41,-522.84 1065.42,-522.46"/>
<text xml:space="preserve" text-anchor="middle" x="1451.62" y="-75.65" font-family="Helvetica,sans-Serif" font-size="9.00" fill="#c62828">~30 hook events:</text>
<text xml:space="preserve" text-anchor="middle" x="1451.62" y="-65.9" font-family="Helvetica,sans-Serif" font-size="9.00" fill="#c62828">llm:stream_* · tool:pre/post/error</text>
<text xml:space="preserve" text-anchor="middle" x="1451.62" y="-56.15" font-family="Helvetica,sans-Serif" font-size="9.00" fill="#c62828">provider:response/error/retry</text>
<text xml:space="preserve" text-anchor="middle" x="1451.62" y="-46.4" font-family="Helvetica,sans-Serif" font-size="9.00" fill="#c62828">session:* · approval:* · task:agent_*</text>
<text xml:space="preserve" text-anchor="middle" x="1451.62" y="-36.65" font-family="Helvetica,sans-Serif" font-size="9.00" fill="#c62828">orchestrator:complete …</text>
</g>
<!-- legend -->
<g id="node23" class="node">
<title>legend</title>
<path fill="#f5f5f5" stroke="none" d="M217.5,-943.95C217.5,-943.95 12,-943.95 12,-943.95 6,-943.95 0,-937.95 0,-931.95 0,-931.95 0,-908.45 0,-908.45 0,-902.45 6,-896.45 12,-896.45 12,-896.45 217.5,-896.45 217.5,-896.45 223.5,-896.45 229.5,-902.45 229.5,-908.45 229.5,-908.45 229.5,-931.95 229.5,-931.95 229.5,-937.95 223.5,-943.95 217.5,-943.95"/>
<text xml:space="preserve" text-anchor="start" x="12" y="-926.2" font-family="Helvetica,sans-Serif" font-size="10.00" fill="#2e7d32">▶ green = app → Amplifier (calls, registrations)</text>
<text xml:space="preserve" text-anchor="start" x="12" y="-907.45" font-family="Helvetica,sans-Serif" font-size="10.00" fill="#c62828">◀ red = Amplifier → app (hook events → UI)</text>
</g>
</g>
</svg>
