<?xml version="1.0" encoding="UTF-8" standalone="no"?>
<!DOCTYPE svg PUBLIC "-//W3C//DTD SVG 1.1//EN"
 "http://www.w3.org/Graphics/SVG/1.1/DTD/svg11.dtd">
<!-- Generated by graphviz version 14.1.3 (20260303.0454)
 -->
<!-- Title: newtui_amplifier Pages: 1 -->
<svg width="2046pt" height="1155pt"
 viewBox="0.00 0.00 2046.00 1155.00" xmlns="http://www.w3.org/2000/svg" xmlns:xlink="http://www.w3.org/1999/xlink">
<g id="graph0" class="graph" transform="scale(1 1) rotate(0) translate(4 1151.25)">
<title>newtui_amplifier</title>
<polygon fill="white" stroke="none" points="-4,4 -4,-1151.25 2042,-1151.25 2042,4 -4,4"/>
<text xml:space="preserve" text-anchor="start" x="890.38" y="-1132.85" font-family="Helvetica,sans-Serif" font-weight="bold" font-size="12.00">newtui ⇄ Amplifier — integration architecture</text>
<text xml:space="preserve" text-anchor="start" x="884.38" y="-1122.75" font-family="Helvetica,sans-Serif" font-size="10.00">app→kernel calls flow right; kernel→app events flow back left</text>
<g id="clust1" class="cluster">
<title>cluster_config</title>
<path fill="#fff8e1" stroke="#e0c060" d="M941.5,-892.25C941.5,-892.25 1318.5,-892.25 1318.5,-892.25 1324.5,-892.25 1330.5,-898.25 1330.5,-904.25 1330.5,-904.25 1330.5,-1097.25 1330.5,-1097.25 1330.5,-1103.25 1324.5,-1109.25 1318.5,-1109.25 1318.5,-1109.25 941.5,-1109.25 941.5,-1109.25 935.5,-1109.25 929.5,-1103.25 929.5,-1097.25 929.5,-1097.25 929.5,-904.25 929.5,-904.25 929.5,-898.25 935.5,-892.25 941.5,-892.25"/>
<text xml:space="preserve" text-anchor="start" x="1085.75" y="-1094.85" font-family="Helvetica,sans-Serif" font-weight="bold" font-size="12.00">Config sources</text>
</g>
<g id="clust2" class="cluster">
<title>cluster_ui</title>
<path fill="#e3f2fd" stroke="#5b9bd5" d="M21.12,-682.25C21.12,-682.25 522,-682.25 522,-682.25 528,-682.25 534,-688.25 534,-694.25 534,-694.25 534,-874.25 534,-874.25 534,-880.25 528,-886.25 522,-886.25 522,-886.25 21.12,-886.25 21.12,-886.25 15.13,-886.25 9.12,-880.25 9.12,-874.25 9.12,-874.25 9.12,-694.25 9.12,-694.25 9.12,-688.25 15.12,-682.25 21.12,-682.25"/>
<text xml:space="preserve" text-anchor="start" x="183.81" y="-871.85" font-family="Helvetica,sans-Serif" font-weight="bold" font-size="12.00">newtui — UI layer (Textual ~8.2)</text>
</g>
<g id="clust3" class="cluster">
<title>cluster_bridge</title>
<path fill="#e8f5e9" stroke="#66a06b" d="M1027,-526.25C1027,-526.25 1681,-526.25 1681,-526.25 1687,-526.25 1693,-532.25 1693,-538.25 1693,-538.25 1693,-872.25 1693,-872.25 1693,-878.25 1687,-884.25 1681,-884.25 1681,-884.25 1027,-884.25 1027,-884.25 1021,-884.25 1015,-878.25 1015,-872.25 1015,-872.25 1015,-538.25 1015,-538.25 1015,-532.25 1021,-526.25 1027,-526.25"/>
<text xml:space="preserve" text-anchor="start" x="1175.12" y="-869.85" font-family="Helvetica,sans-Serif" font-weight="bold" font-size="12.00">newtui — kernel bridge (src/…/kernel/, own thread + event loop)</text>
</g>
<g id="clust4" class="cluster">
<title>cluster_foundation</title>
<path fill="#ede7f6" stroke="#8e7cc3" d="M1520.75,-383.25C1520.75,-383.25 1973,-383.25 1973,-383.25 1979,-383.25 1985,-389.25 1985,-395.25 1985,-395.25 1985,-506.25 1985,-506.25 1985,-512.25 1979,-518.25 1973,-518.25 1973,-518.25 1520.75,-518.25 1520.75,-518.25 1514.75,-518.25 1508.75,-512.25 1508.75,-506.25 1508.75,-506.25 1508.75,-395.25 1508.75,-395.25 1508.75,-389.25 1514.75,-383.25 1520.75,-383.25"/>
<text xml:space="preserve" text-anchor="start" x="1667.75" y="-503.85" font-family="Helvetica,sans-Serif" font-weight="bold" font-size="12.00">amplifier&#45;foundation</text>
<text xml:space="preserve" text-anchor="start" x="1783.25" y="-503.85" font-family="Helvetica,sans-Serif" font-size="12.00"> (git pin)</text>
</g>
<g id="clust5" class="cluster">
<title>cluster_core</title>
<path fill="#fbe9e7" stroke="#d98066" d="M1538.38,-202.25C1538.38,-202.25 2018,-202.25 2018,-202.25 2024,-202.25 2030,-208.25 2030,-214.25 2030,-214.25 2030,-363.25 2030,-363.25 2030,-369.25 2024,-375.25 2018,-375.25 2018,-375.25 1538.38,-375.25 1538.38,-375.25 1532.38,-375.25 1526.38,-369.25 1526.38,-363.25 1526.38,-363.25 1526.38,-214.25 1526.38,-214.25 1526.38,-208.25 1532.38,-202.25 1538.38,-202.25"/>
<text xml:space="preserve" text-anchor="start" x="1688.19" y="-360.85" font-family="Helvetica,sans-Serif" font-weight="bold" font-size="12.00">amplifier&#45;core</text>
<text xml:space="preserve" text-anchor="start" x="1766.94" y="-360.85" font-family="Helvetica,sans-Serif" font-size="12.00"> (kernel, PyPI ≥1.6)</text>
</g>
<!-- keys_env -->
<g id="node1" class="node">
<title>keys_env</title>
<path fill="#fff3cd" stroke="#666666" d="M1171.75,-1080.25C1171.75,-1080.25 1088.25,-1080.25 1088.25,-1080.25 1082.25,-1080.25 1076.25,-1074.25 1076.25,-1068.25 1076.25,-1068.25 1076.25,-1056.25 1076.25,-1056.25 1076.25,-1050.25 1082.25,-1044.25 1088.25,-1044.25 1088.25,-1044.25 1171.75,-1044.25 1171.75,-1044.25 1177.75,-1044.25 1183.75,-1050.25 1183.75,-1056.25 1183.75,-1056.25 1183.75,-1068.25 1183.75,-1068.25 1183.75,-1074.25 1177.75,-1080.25 1171.75,-1080.25"/>
<text xml:space="preserve" text-anchor="middle" x="1130" y="-1064" font-family="Helvetica,sans-Serif" font-size="10.00">~/.amplifier/keys.env</text>
<text xml:space="preserve" text-anchor="middle" x="1130" y="-1052.75" font-family="Helvetica,sans-Serif" font-size="10.00">(API keys, env wins)</text>
</g>
<!-- config -->
<g id="node11" class="node">
<title>config</title>
<path fill="#c8e6c9" stroke="#666666" d="M1673,-855.75C1673,-855.75 1485.25,-855.75 1485.25,-855.75 1479.25,-855.75 1473.25,-849.75 1473.25,-843.75 1473.25,-843.75 1473.25,-790.75 1473.25,-790.75 1473.25,-784.75 1479.25,-778.75 1485.25,-778.75 1485.25,-778.75 1673,-778.75 1673,-778.75 1679,-778.75 1685,-784.75 1685,-790.75 1685,-790.75 1685,-843.75 1685,-843.75 1685,-849.75 1679,-855.75 1673,-855.75"/>
<text xml:space="preserve" text-anchor="middle" x="1579.12" y="-842.25" font-family="Helvetica,sans-Serif" font-size="10.00">resolve_config()</text>
<text xml:space="preserve" text-anchor="middle" x="1579.12" y="-831" font-family="Helvetica,sans-Serif" font-size="10.00">config.py</text>
<text xml:space="preserve" text-anchor="middle" x="1579.12" y="-819.75" font-family="Helvetica,sans-Serif" font-size="10.00">keys.env · settings merge · bundle discovery</text>
<text xml:space="preserve" text-anchor="middle" x="1579.12" y="-808.5" font-family="Helvetica,sans-Serif" font-size="10.00">apply_module_overrides ·</text>
<text xml:space="preserve" text-anchor="middle" x="1579.12" y="-797.25" font-family="Helvetica,sans-Serif" font-size="10.00">map provider id→instance_id ·</text>
<text xml:space="preserve" text-anchor="middle" x="1579.12" y="-784.5" font-family="Helvetica,sans-Serif" font-size="10.00">expand ${VAR}</text>
</g>
<!-- keys_env&#45;&gt;config -->
<g id="edge1" class="edge">
<title>keys_env&#45;&gt;config</title>
<path fill="none" stroke="#555555" d="M1184.22,-1061.44C1225.34,-1059.31 1283.03,-1053.01 1330.5,-1035.25 1420.51,-1001.57 1498.91,-918.39 1542.25,-865.07"/>
<polygon fill="#555555" stroke="#555555" points="1544.94,-867.3 1548.47,-857.31 1539.48,-862.92 1544.94,-867.3"/>
</g>
<!-- settings -->
<g id="node2" class="node">
<title>settings</title>
<path fill="#fff3cd" stroke="#666666" d="M1175.88,-1025.88C1175.88,-1025.88 1084.12,-1025.88 1084.12,-1025.88 1078.12,-1025.88 1072.12,-1019.88 1072.12,-1013.88 1072.12,-1013.88 1072.12,-994.63 1072.12,-994.63 1072.12,-988.63 1078.12,-982.63 1084.12,-982.63 1084.12,-982.63 1175.88,-982.63 1175.88,-982.63 1181.88,-982.63 1187.88,-988.63 1187.88,-994.63 1187.88,-994.63 1187.88,-1013.88 1187.88,-1013.88 1187.88,-1019.88 1181.88,-1025.88 1175.88,-1025.88"/>
<text xml:space="preserve" text-anchor="middle" x="1130" y="-1012.38" font-family="Helvetica,sans-Serif" font-size="10.00">settings.yaml ×3</text>
<text xml:space="preserve" text-anchor="middle" x="1130" y="-1001.13" font-family="Helvetica,sans-Serif" font-size="10.00">user → project → local</text>
<text xml:space="preserve" text-anchor="middle" x="1130" y="-988.38" font-family="Helvetica,sans-Serif" font-size="10.00">(deep merge)</text>
</g>
<!-- settings&#45;&gt;config -->
<g id="edge2" class="edge">
<title>settings&#45;&gt;config</title>
<path fill="none" stroke="#555555" d="M1188.02,-1001.56C1228.79,-998.17 1284.38,-990.52 1330.5,-973.25 1401.13,-946.81 1473.11,-898.59 1521.12,-862.73"/>
<polygon fill="#555555" stroke="#555555" points="1523.01,-865.69 1528.89,-856.87 1518.8,-860.1 1523.01,-865.69"/>
</g>
<!-- bundle_md -->
<g id="node3" class="node">
<title>bundle_md</title>
<path fill="#fff3cd" stroke="#666666" d="M1310.5,-964.38C1310.5,-964.38 949.5,-964.38 949.5,-964.38 943.5,-964.38 937.5,-958.38 937.5,-952.38 937.5,-952.38 937.5,-912.13 937.5,-912.13 937.5,-906.13 943.5,-900.13 949.5,-900.13 949.5,-900.13 1310.5,-900.13 1310.5,-900.13 1316.5,-900.13 1322.5,-906.13 1322.5,-912.13 1322.5,-912.13 1322.5,-952.38 1322.5,-952.38 1322.5,-958.38 1316.5,-964.38 1310.5,-964.38"/>
<text xml:space="preserve" text-anchor="middle" x="1130" y="-950.88" font-family="Helvetica,sans-Serif" font-size="10.00">bundle: newtui.md (thin wrapper)</text>
<text xml:space="preserve" text-anchor="middle" x="1130" y="-939.63" font-family="Helvetica,sans-Serif" font-size="10.00">includes: anchors @ pinned SHA (amplifier&#45;foundation)</text>
<text xml:space="preserve" text-anchor="middle" x="1130" y="-928.38" font-family="Helvetica,sans-Serif" font-size="10.00">loop&#45;streaming · context&#45;simple 300k · provider&#45;anthropic (overlay)</text>
<text xml:space="preserve" text-anchor="middle" x="1130" y="-917.13" font-family="Helvetica,sans-Serif" font-size="10.00">fs/bash/web/search/todo/apply&#45;patch/delegate/skills/mode/recipes + mcp/team&#45;pulse</text>
<text xml:space="preserve" text-anchor="middle" x="1130" y="-905.88" font-family="Helvetica,sans-Serif" font-size="10.00">hooks via anchors (printers + logging suppressed) · 6 anchors agents</text>
</g>
<!-- bundle_md&#45;&gt;config -->
<g id="edge3" class="edge">
<title>bundle_md&#45;&gt;config</title>
<path fill="none" stroke="#555555" d="M1283.45,-899.65C1299.37,-895.94 1315.29,-892.11 1330.5,-888.25 1373.58,-877.34 1420.53,-864.2 1461.84,-852.21"/>
<polygon fill="#555555" stroke="#555555" points="1462.71,-855.6 1471.33,-849.44 1460.75,-848.88 1462.71,-855.6"/>
</g>
<!-- cli -->
<g id="node4" class="node">
<title>cli</title>
<path fill="#bbdefb" stroke="#666666" d="M200.38,-797.75C200.38,-797.75 29.13,-797.75 29.13,-797.75 23.13,-797.75 17.12,-791.75 17.12,-785.75 17.12,-785.75 17.12,-756.75 17.12,-756.75 17.12,-750.75 23.12,-744.75 29.12,-744.75 29.12,-744.75 200.38,-744.75 200.38,-744.75 206.38,-744.75 212.38,-750.75 212.38,-756.75 212.38,-756.75 212.38,-785.75 212.38,-785.75 212.38,-791.75 206.38,-797.75 200.38,-797.75"/>
<text xml:space="preserve" text-anchor="middle" x="114.75" y="-784.25" font-family="Helvetica,sans-Serif" font-size="10.00">CLI entry</text>
<text xml:space="preserve" text-anchor="middle" x="114.75" y="-773" font-family="Helvetica,sans-Serif" font-size="10.00">amplifier&#45;newtui</text>
<text xml:space="preserve" text-anchor="middle" x="114.75" y="-761.75" font-family="Helvetica,sans-Serif" font-size="10.00">main.py (run / sessions / resume / doctor</text>
<text xml:space="preserve" text-anchor="middle" x="114.75" y="-750.5" font-family="Helvetica,sans-Serif" font-size="10.00">init / update / bundle …)</text>
</g>
<!-- app -->
<g id="node5" class="node">
<title>app</title>
<path fill="#bbdefb" stroke="#666666" d="M443.5,-823.25C443.5,-823.25 400.5,-823.25 400.5,-823.25 394.5,-823.25 388.5,-817.25 388.5,-811.25 388.5,-811.25 388.5,-799.25 388.5,-799.25 388.5,-793.25 394.5,-787.25 400.5,-787.25 400.5,-787.25 443.5,-787.25 443.5,-787.25 449.5,-787.25 455.5,-793.25 455.5,-799.25 455.5,-799.25 455.5,-811.25 455.5,-811.25 455.5,-817.25 449.5,-823.25 443.5,-823.25"/>
<text xml:space="preserve" text-anchor="middle" x="422" y="-807" font-family="Helvetica,sans-Serif" font-size="10.00">NewTuiApp</text>
<text xml:space="preserve" text-anchor="middle" x="422" y="-795.75" font-family="Helvetica,sans-Serif" font-size="10.00">ui/app.py</text>
</g>
<!-- cli&#45;&gt;app -->
<g id="edge4" class="edge">
<title>cli&#45;&gt;app</title>
<path fill="none" stroke="#555555" d="M212.75,-782.06C267.8,-788.19 334.04,-795.57 376.8,-800.33"/>
<polygon fill="#555555" stroke="#555555" points="376.38,-803.8 386.71,-801.43 377.15,-796.85 376.38,-803.8"/>
</g>
<!-- adapter -->
<g id="node9" class="node">
<title>adapter</title>
<polygon fill="#fce4ec" stroke="#c2185b" stroke-width="2" stroke-dasharray="5,2" points="794.25,-732.38 563,-732.38 563,-668.13 794.25,-668.13 794.25,-732.38"/>
<text xml:space="preserve" text-anchor="middle" x="678.62" y="-718.88" font-family="Helvetica,sans-Serif" font-size="10.00">RealRuntimeAdapter</text>
<text xml:space="preserve" text-anchor="middle" x="678.62" y="-707.63" font-family="Helvetica,sans-Serif" font-size="10.00">ui/runtime_adapter.py</text>
<text xml:space="preserve" text-anchor="middle" x="678.62" y="-696.38" font-family="Helvetica,sans-Serif" font-size="10.00">— THREAD BOUNDARY —</text>
<text xml:space="preserve" text-anchor="middle" x="678.62" y="-685.13" font-family="Helvetica,sans-Serif" font-size="10.00">_AppLoopQueue (call_soon_threadsafe)</text>
<text xml:space="preserve" text-anchor="middle" x="678.62" y="-673.88" font-family="Helvetica,sans-Serif" font-size="10.00">submit/interrupt/fork via run_coroutine_threadsafe</text>
</g>
<!-- app&#45;&gt;adapter -->
<g id="edge6" class="edge">
<title>app&#45;&gt;adapter</title>
<path fill="none" stroke="#555555" d="M455.73,-799.61C478.2,-795.18 508.46,-788.1 534,-778.25 561.46,-767.66 590.24,-752.85 614.77,-738.98"/>
<polygon fill="#555555" stroke="#555555" points="616.4,-742.07 623.33,-734.06 612.92,-736 616.4,-742.07"/>
</g>
<!-- reducer -->
<g id="node6" class="node">
<title>reducer</title>
<path fill="#bbdefb" stroke="#666666" d="M169.62,-726.25C169.62,-726.25 59.87,-726.25 59.87,-726.25 53.88,-726.25 47.88,-720.25 47.88,-714.25 47.88,-714.25 47.88,-702.25 47.88,-702.25 47.88,-696.25 53.88,-690.25 59.88,-690.25 59.88,-690.25 169.62,-690.25 169.62,-690.25 175.62,-690.25 181.62,-696.25 181.62,-702.25 181.62,-702.25 181.62,-714.25 181.62,-714.25 181.62,-720.25 175.62,-726.25 169.62,-726.25"/>
<text xml:space="preserve" text-anchor="middle" x="114.75" y="-710.75" font-family="Helvetica,sans-Serif" font-size="10.00">reducer.py</text>
<text xml:space="preserve" text-anchor="middle" x="114.75" y="-699.5" font-family="Helvetica,sans-Serif" font-size="10.00">UIEvent → widget updates</text>
</g>
<!-- widgets -->
<g id="node8" class="node">
<title>widgets</title>
<path fill="#bbdefb" stroke="#666666" d="M514,-768.75C514,-768.75 330,-768.75 330,-768.75 324,-768.75 318,-762.75 318,-756.75 318,-756.75 318,-727.75 318,-727.75 318,-721.75 324,-715.75 330,-715.75 330,-715.75 514,-715.75 514,-715.75 520,-715.75 526,-721.75 526,-727.75 526,-727.75 526,-756.75 526,-756.75 526,-762.75 520,-768.75 514,-768.75"/>
<text xml:space="preserve" text-anchor="middle" x="422" y="-755.25" font-family="Helvetica,sans-Serif" font-size="10.00">widgets</text>
<text xml:space="preserve" text-anchor="middle" x="422" y="-744" font-family="Helvetica,sans-Serif" font-size="10.00">transcript · live_tail · lanes_panel</text>
<text xml:space="preserve" text-anchor="middle" x="422" y="-732.75" font-family="Helvetica,sans-Serif" font-size="10.00">approval_bar · needs_you · footer ($/tokens)</text>
<text xml:space="preserve" text-anchor="middle" x="422" y="-721.5" font-family="Helvetica,sans-Serif" font-size="10.00">rewind_strip · queued_strip · palette</text>
</g>
<!-- reducer&#45;&gt;widgets -->
<g id="edge25" class="edge">
<title>reducer&#45;&gt;widgets</title>
<path fill="none" stroke="#c62828" d="M181.98,-715.63C218.28,-719.67 264.31,-724.8 306.25,-729.47"/>
<polygon fill="#c62828" stroke="#c62828" points="305.85,-732.95 316.17,-730.58 306.62,-725.99 305.85,-732.95"/>
</g>
<!-- composer -->
<g id="node7" class="node">
<title>composer</title>
<path fill="#bbdefb" stroke="#666666" d="M162.12,-857.13C162.12,-857.13 67.38,-857.13 67.38,-857.13 61.37,-857.13 55.38,-851.13 55.38,-845.13 55.38,-845.13 55.38,-827.38 55.38,-827.38 55.38,-821.38 61.38,-815.38 67.38,-815.38 67.38,-815.38 162.12,-815.38 162.12,-815.38 168.12,-815.38 174.12,-821.38 174.12,-827.38 174.12,-827.38 174.12,-845.13 174.12,-845.13 174.12,-851.13 168.12,-857.13 162.12,-857.13"/>
<text xml:space="preserve" text-anchor="middle" x="114.75" y="-843.63" font-family="Helvetica,sans-Serif" font-size="10.00">composer.py</text>
<text xml:space="preserve" text-anchor="middle" x="114.75" y="-832.38" font-family="Helvetica,sans-Serif" font-size="10.00">large&#45;paste stubs ·</text>
<text xml:space="preserve" text-anchor="middle" x="114.75" y="-821.13" font-family="Helvetica,sans-Serif" font-size="10.00">image paste / drag&#45;drop</text>
</g>
<!-- composer&#45;&gt;app -->
<g id="edge5" class="edge">
<title>composer&#45;&gt;app</title>
<path fill="none" stroke="#555555" d="M174.61,-830.27C233.72,-824.27 323.46,-815.16 376.77,-809.74"/>
<polygon fill="#555555" stroke="#555555" points="377.11,-813.23 386.7,-808.73 376.4,-806.26 377.11,-813.23"/>
<text xml:space="preserve" text-anchor="middle" x="273.75" y="-833.56" font-family="Helvetica,sans-Serif" font-size="9.00">submit(text,</text>
<text xml:space="preserve" text-anchor="middle" x="273.75" y="-823.81" font-family="Helvetica,sans-Serif" font-size="9.00">attachments)</text>
</g>
<!-- adapter&#45;&gt;reducer -->
<g id="edge24" class="edge">
<title>adapter&#45;&gt;reducer</title>
<path fill="none" stroke="#c62828" d="M562,-697.85C552.53,-697.71 543.1,-697.59 534,-697.5 438,-696.58 413.97,-694.95 318,-697.5 276.75,-698.6 230.81,-700.95 193.16,-703.17"/>
<polygon fill="#c62828" stroke="#c62828" points="193.04,-699.67 183.26,-703.77 193.46,-706.66 193.04,-699.67"/>
<text xml:space="preserve" text-anchor="middle" x="422" y="-698.7" font-family="Helvetica,sans-Serif" font-size="9.00" fill="#c62828">hop to app loop</text>
</g>
<!-- runtime -->
<g id="node10" class="node">
<title>runtime</title>
<path fill="#c8e6c9" stroke="#666666" d="M1183,-855.13C1183,-855.13 1077,-855.13 1077,-855.13 1071,-855.13 1065,-849.13 1065,-843.13 1065,-843.13 1065,-825.38 1065,-825.38 1065,-819.38 1071,-813.38 1077,-813.38 1077,-813.38 1183,-813.38 1183,-813.38 1189,-813.38 1195,-819.38 1195,-825.38 1195,-825.38 1195,-843.13 1195,-843.13 1195,-849.13 1189,-855.13 1183,-855.13"/>
<text xml:space="preserve" text-anchor="middle" x="1130" y="-841.63" font-family="Helvetica,sans-Serif" font-size="10.00">RealRuntime</text>
<text xml:space="preserve" text-anchor="middle" x="1130" y="-830.38" font-family="Helvetica,sans-Serif" font-size="10.00">runtime.py</text>
<text xml:space="preserve" text-anchor="middle" x="1130" y="-819.13" font-family="Helvetica,sans-Serif" font-size="10.00">7&#45;step foundation lifecycle</text>
</g>
<!-- adapter&#45;&gt;runtime -->
<g id="edge7" class="edge">
<title>adapter&#45;&gt;runtime</title>
<path fill="none" stroke="#2e7d32" d="M746.43,-733.34C795.87,-756.51 865.45,-786.4 929.5,-804.25 969.71,-815.46 1015.71,-822.73 1053.41,-827.31"/>
<polygon fill="#2e7d32" stroke="#2e7d32" points="1052.98,-830.78 1063.32,-828.47 1053.79,-823.83 1052.98,-830.78"/>
<text xml:space="preserve" text-anchor="middle" x="865.88" y="-801.39" font-family="Helvetica,sans-Serif" font-size="9.00" fill="#2e7d32">submit / interrupt / fork</text>
</g>
<!-- runtime&#45;&gt;config -->
<g id="edge8" class="edge">
<title>runtime&#45;&gt;config</title>
<path fill="none" stroke="#555555" d="M1195.06,-831.82C1264.51,-829.18 1376.79,-824.91 1461.89,-821.67"/>
<polygon fill="#555555" stroke="#555555" points="1461.8,-825.18 1471.66,-821.3 1461.54,-818.18 1461.8,-825.18"/>
<text xml:space="preserve" text-anchor="middle" x="1397.88" y="-827.46" font-family="Helvetica,sans-Serif" font-size="9.00">1. resolve</text>
</g>
<!-- factory -->
<g id="node12" class="node">
<title>factory</title>
<path fill="#c8e6c9" stroke="#666666" d="M1641.88,-712.75C1641.88,-712.75 1516.38,-712.75 1516.38,-712.75 1510.38,-712.75 1504.38,-706.75 1504.38,-700.75 1504.38,-700.75 1504.38,-647.75 1504.38,-647.75 1504.38,-641.75 1510.38,-635.75 1516.38,-635.75 1516.38,-635.75 1641.88,-635.75 1641.88,-635.75 1647.88,-635.75 1653.88,-641.75 1653.88,-647.75 1653.88,-647.75 1653.88,-700.75 1653.88,-700.75 1653.88,-706.75 1647.88,-712.75 1641.88,-712.75"/>
<text xml:space="preserve" text-anchor="middle" x="1579.12" y="-699.25" font-family="Helvetica,sans-Serif" font-size="10.00">create_initialized_session()</text>
<text xml:space="preserve" text-anchor="middle" x="1579.12" y="-688" font-family="Helvetica,sans-Serif" font-size="10.00">session_factory.py</text>
<text xml:space="preserve" text-anchor="middle" x="1579.12" y="-676.75" font-family="Helvetica,sans-Serif" font-size="10.00">mint id · stamp metadata ·</text>
<text xml:space="preserve" text-anchor="middle" x="1579.12" y="-665.5" font-family="Helvetica,sans-Serif" font-size="10.00">verify_mounts → MountReport</text>
<text xml:space="preserve" text-anchor="middle" x="1579.12" y="-652.75" font-family="Helvetica,sans-Serif" font-size="10.00">(0 providers = hard fail,</text>
<text xml:space="preserve" text-anchor="middle" x="1579.12" y="-641.5" font-family="Helvetica,sans-Serif" font-size="10.00">partial = degraded notice)</text>
</g>
<!-- runtime&#45;&gt;factory -->
<g id="edge11" class="edge">
<title>runtime&#45;&gt;factory</title>
<path fill="none" stroke="#555555" d="M1195.15,-830.08C1234.89,-826.16 1286.56,-818.63 1330.5,-804.25 1393.75,-783.55 1460.25,-747.75 1508.39,-718.96"/>
<polygon fill="#555555" stroke="#555555" points="1510.02,-722.06 1516.78,-713.89 1506.41,-716.07 1510.02,-722.06"/>
<text xml:space="preserve" text-anchor="middle" x="1397.88" y="-800.57" font-family="Helvetica,sans-Serif" font-size="9.00">2. create</text>
</g>
<!-- fork -->
<g id="node19" class="node">
<title>fork</title>
<path fill="#d1c4e9" stroke="#666666" d="M1629.5,-489.25C1629.5,-489.25 1528.75,-489.25 1528.75,-489.25 1522.75,-489.25 1516.75,-483.25 1516.75,-477.25 1516.75,-477.25 1516.75,-465.25 1516.75,-465.25 1516.75,-459.25 1522.75,-453.25 1528.75,-453.25 1528.75,-453.25 1629.5,-453.25 1629.5,-453.25 1635.5,-453.25 1641.5,-459.25 1641.5,-465.25 1641.5,-465.25 1641.5,-477.25 1641.5,-477.25 1641.5,-483.25 1635.5,-489.25 1629.5,-489.25"/>
<text xml:space="preserve" text-anchor="middle" x="1579.12" y="-473" font-family="Helvetica,sans-Serif" font-size="10.00">fork_session_in_memory</text>
<text xml:space="preserve" text-anchor="middle" x="1579.12" y="-461.75" font-family="Helvetica,sans-Serif" font-size="10.00">(rewind / checkpoints)</text>
</g>
<!-- runtime&#45;&gt;fork -->
<g id="edge21" class="edge">
<title>runtime&#45;&gt;fork</title>
<path fill="none" stroke="#2e7d32" stroke-dasharray="5,2" d="M1195.5,-843.65C1240.14,-846.19 1297.28,-840.8 1330.5,-804.25 1344.38,-788.98 1330.64,-636.89 1340.5,-618.75 1375.04,-555.23 1449.79,-515.7 1506.29,-493.75"/>
<polygon fill="#2e7d32" stroke="#2e7d32" points="1507.44,-497.06 1515.56,-490.25 1504.97,-490.51 1507.44,-497.06"/>
<text xml:space="preserve" text-anchor="middle" x="1397.88" y="-629.7" font-family="Helvetica,sans-Serif" font-size="9.00" fill="#2e7d32">rewind: fork +</text>
<text xml:space="preserve" text-anchor="middle" x="1397.88" y="-619.95" font-family="Helvetica,sans-Serif" font-size="9.00" fill="#2e7d32">context.set_messages()</text>
</g>
<!-- session -->
<g id="node20" class="node">
<title>session</title>
<path fill="#ffccbc" stroke="#666666" d="M1611.88,-346.25C1611.88,-346.25 1546.38,-346.25 1546.38,-346.25 1540.38,-346.25 1534.38,-340.25 1534.38,-334.25 1534.38,-334.25 1534.38,-322.25 1534.38,-322.25 1534.38,-316.25 1540.38,-310.25 1546.38,-310.25 1546.38,-310.25 1611.88,-310.25 1611.88,-310.25 1617.88,-310.25 1623.88,-316.25 1623.88,-322.25 1623.88,-322.25 1623.88,-334.25 1623.88,-334.25 1623.88,-340.25 1617.88,-346.25 1611.88,-346.25"/>
<text xml:space="preserve" text-anchor="middle" x="1579.12" y="-330" font-family="Helvetica,sans-Serif" font-size="10.00">AmplifierSession</text>
<text xml:space="preserve" text-anchor="middle" x="1579.12" y="-318.75" font-family="Helvetica,sans-Serif" font-size="10.00">.execute(text)</text>
</g>
<!-- runtime&#45;&gt;session -->
<g id="edge16" class="edge">
<title>runtime&#45;&gt;session</title>
<path fill="none" stroke="#2e7d32" stroke-width="1.6" d="M1195.25,-843.83C1240.07,-846.53 1297.54,-841.27 1330.5,-804.25 1352.59,-779.45 1326.9,-535.8 1340.5,-505.5 1375.28,-428.03 1463.94,-376.79 1522.58,-350.15"/>
<polygon fill="#2e7d32" stroke="#2e7d32" stroke-width="1.6" points="1523.94,-353.38 1531.67,-346.13 1521.1,-346.98 1523.94,-353.38"/>
<text xml:space="preserve" text-anchor="middle" x="1397.88" y="-506.7" font-family="Helvetica,sans-Serif" font-size="9.00" fill="#2e7d32">3. execute(text) per turn</text>
</g>
<!-- coord -->
<g id="node21" class="node">
<title>coord</title>
<path fill="#ffccbc" stroke="#666666" d="M1947.38,-252.13C1947.38,-252.13 1865.38,-252.13 1865.38,-252.13 1859.38,-252.13 1853.38,-246.13 1853.38,-240.13 1853.38,-240.13 1853.38,-222.38 1853.38,-222.38 1853.38,-216.38 1859.38,-210.38 1865.38,-210.38 1865.38,-210.38 1947.38,-210.38 1947.38,-210.38 1953.38,-210.38 1959.38,-216.38 1959.38,-222.38 1959.38,-222.38 1959.38,-240.13 1959.38,-240.13 1959.38,-246.13 1953.38,-252.13 1947.38,-252.13"/>
<text xml:space="preserve" text-anchor="middle" x="1906.38" y="-238.63" font-family="Helvetica,sans-Serif" font-size="10.00">Coordinator</text>
<text xml:space="preserve" text-anchor="middle" x="1906.38" y="-227.38" font-family="Helvetica,sans-Serif" font-size="10.00">hooks · capabilities ·</text>
<text xml:space="preserve" text-anchor="middle" x="1906.38" y="-216.13" font-family="Helvetica,sans-Serif" font-size="10.00">cancellation</text>
</g>
<!-- runtime&#45;&gt;coord -->
<g id="edge20" class="edge">
<title>runtime&#45;&gt;coord</title>
<path fill="none" stroke="#2e7d32" stroke-dasharray="5,2" d="M1195.36,-843.92C1240.23,-846.67 1297.72,-841.42 1330.5,-804.25 1345.97,-786.7 1329.89,-404.1 1340.5,-383.25 1374.19,-317.06 1404.4,-309.61 1473.25,-281.75 1538.63,-255.29 1738.58,-240.56 1841.97,-234.53"/>
<polygon fill="#2e7d32" stroke="#2e7d32" points="1841.89,-238.04 1851.67,-233.97 1841.48,-231.05 1841.89,-238.04"/>
<text xml:space="preserve" text-anchor="middle" x="1579.12" y="-292.7" font-family="Helvetica,sans-Serif" font-size="9.00" fill="#2e7d32">cancellation.</text>
<text xml:space="preserve" text-anchor="middle" x="1579.12" y="-282.95" font-family="Helvetica,sans-Serif" font-size="9.00" fill="#2e7d32">request_graceful()</text>
</g>
<!-- loadbundle -->
<g id="node17" class="node">
<title>loadbundle</title>
<path fill="#d1c4e9" stroke="#666666" d="M1624.25,-435.63C1624.25,-435.63 1534,-435.63 1534,-435.63 1528,-435.63 1522,-429.63 1522,-423.63 1522,-423.63 1522,-402.88 1522,-402.88 1522,-396.88 1528,-390.88 1534,-390.88 1534,-390.88 1624.25,-390.88 1624.25,-390.88 1630.25,-390.88 1636.25,-396.88 1636.25,-402.88 1636.25,-402.88 1636.25,-423.63 1636.25,-423.63 1636.25,-429.63 1630.25,-435.63 1624.25,-435.63"/>
<text xml:space="preserve" text-anchor="middle" x="1579.12" y="-422.13" font-family="Helvetica,sans-Serif" font-size="10.00">load_bundle(uri)</text>
<text xml:space="preserve" text-anchor="middle" x="1579.12" y="-410.88" font-family="Helvetica,sans-Serif" font-size="10.00">→ .compose(overlays)</text>
<text xml:space="preserve" text-anchor="middle" x="1579.12" y="-398.13" font-family="Helvetica,sans-Serif" font-size="10.00">→ .prepare() &#160;[once]</text>
</g>
<!-- config&#45;&gt;loadbundle -->
<g id="edge9" class="edge">
<title>config&#45;&gt;loadbundle</title>
<path fill="none" stroke="#2e7d32" d="M1472.93,-778.88C1413.48,-750.07 1354.07,-704.86 1369.38,-642.63 1393.15,-545.98 1396.28,-507.34 1473.25,-444.25 1484.12,-435.34 1497.46,-428.99 1510.96,-424.47"/>
<polygon fill="#2e7d32" stroke="#2e7d32" points="1511.75,-427.88 1520.32,-421.65 1509.74,-421.18 1511.75,-427.88"/>
<text xml:space="preserve" text-anchor="middle" x="1397.88" y="-645.33" font-family="Helvetica,sans-Serif" font-size="9.00" fill="#2e7d32">load → compose → prepare</text>
</g>
<!-- prepared -->
<g id="node18" class="node">
<title>prepared</title>
<path fill="#d1c4e9" stroke="#666666" d="M1965,-434.13C1965,-434.13 1847.75,-434.13 1847.75,-434.13 1841.75,-434.13 1835.75,-428.13 1835.75,-422.13 1835.75,-422.13 1835.75,-404.38 1835.75,-404.38 1835.75,-398.38 1841.75,-392.38 1847.75,-392.38 1847.75,-392.38 1965,-392.38 1965,-392.38 1971,-392.38 1977,-398.38 1977,-404.38 1977,-404.38 1977,-422.13 1977,-422.13 1977,-428.13 1971,-434.13 1965,-434.13"/>
<text xml:space="preserve" text-anchor="middle" x="1906.38" y="-420.63" font-family="Helvetica,sans-Serif" font-size="10.00">PreparedBundle</text>
<text xml:space="preserve" text-anchor="middle" x="1906.38" y="-409.38" font-family="Helvetica,sans-Serif" font-size="10.00">.create_session(id, approval,</text>
<text xml:space="preserve" text-anchor="middle" x="1906.38" y="-398.13" font-family="Helvetica,sans-Serif" font-size="10.00">display, cwd, resumed)</text>
</g>
<!-- factory&#45;&gt;prepared -->
<g id="edge12" class="edge">
<title>factory&#45;&gt;prepared</title>
<path fill="none" stroke="#2e7d32" d="M1628.47,-635.46C1694.65,-582.35 1811.89,-488.27 1870.29,-441.41"/>
<polygon fill="#2e7d32" stroke="#2e7d32" points="1872.35,-444.24 1877.96,-435.25 1867.97,-438.78 1872.35,-444.24"/>
<text xml:space="preserve" text-anchor="middle" x="1737.88" y="-576" font-family="Helvetica,sans-Serif" font-size="9.00" fill="#2e7d32">create_session()</text>
</g>
<!-- qbridge -->
<g id="node13" class="node">
<title>qbridge</title>
<path fill="#c8e6c9" stroke="#666666" d="M1194.25,-602.63C1194.25,-602.63 1065.75,-602.63 1065.75,-602.63 1059.75,-602.63 1053.75,-596.63 1053.75,-590.63 1053.75,-590.63 1053.75,-545.88 1053.75,-545.88 1053.75,-539.88 1059.75,-533.88 1065.75,-533.88 1065.75,-533.88 1194.25,-533.88 1194.25,-533.88 1200.25,-533.88 1206.25,-539.88 1206.25,-545.88 1206.25,-545.88 1206.25,-590.63 1206.25,-590.63 1206.25,-596.63 1200.25,-602.63 1194.25,-602.63"/>
<text xml:space="preserve" text-anchor="middle" x="1130" y="-589.13" font-family="Helvetica,sans-Serif" font-size="10.00">QueueBridge</text>
<text xml:space="preserve" text-anchor="middle" x="1130" y="-577.88" font-family="Helvetica,sans-Serif" font-size="10.00">queue_bridge.py</text>
<text xml:space="preserve" text-anchor="middle" x="1130" y="-566.63" font-family="Helvetica,sans-Serif" font-size="10.00">~30 hook events → normalize()</text>
<text xml:space="preserve" text-anchor="middle" x="1130" y="-553.88" font-family="Helvetica,sans-Serif" font-size="10.00">→ asyncio.Queue[UIEvent]</text>
<text xml:space="preserve" text-anchor="middle" x="1130" y="-541.13" font-family="Helvetica,sans-Serif" font-size="10.00">tap → evidence · events.jsonl</text>
</g>
<!-- qbridge&#45;&gt;adapter -->
<g id="edge23" class="edge">
<title>qbridge&#45;&gt;adapter</title>
<path fill="none" stroke="#c62828" stroke-width="1.8" d="M1053.62,-582.62C1016.05,-590.35 970.09,-600.67 929.5,-612.25 878.54,-626.79 822.83,-646.06 776.98,-662.87"/>
<polygon fill="#c62828" stroke="#c62828" stroke-width="1.8" points="775.96,-659.51 767.79,-666.26 778.39,-666.08 775.96,-659.51"/>
<text xml:space="preserve" text-anchor="middle" x="865.88" y="-658.8" font-family="Helvetica,sans-Serif" font-size="9.00" fill="#c62828">asyncio.Queue[UIEvent]</text>
<text xml:space="preserve" text-anchor="middle" x="865.88" y="-649.05" font-family="Helvetica,sans-Serif" font-size="9.00" fill="#c62828">(29 typed pydantic events)</text>
</g>
<!-- spawner -->
<g id="node14" class="node">
<title>spawner</title>
<path fill="#c8e6c9" stroke="#666666" d="M1186.38,-795.13C1186.38,-795.13 1073.62,-795.13 1073.62,-795.13 1067.62,-795.13 1061.62,-789.13 1061.62,-783.13 1061.62,-783.13 1061.62,-765.38 1061.62,-765.38 1061.62,-759.38 1067.62,-753.38 1073.62,-753.38 1073.62,-753.38 1186.38,-753.38 1186.38,-753.38 1192.38,-753.38 1198.38,-759.38 1198.38,-765.38 1198.38,-765.38 1198.38,-783.13 1198.38,-783.13 1198.38,-789.13 1192.38,-795.13 1186.38,-795.13"/>
<text xml:space="preserve" text-anchor="middle" x="1130" y="-781.63" font-family="Helvetica,sans-Serif" font-size="10.00">SessionSpawner</text>
<text xml:space="preserve" text-anchor="middle" x="1130" y="-770.38" font-family="Helvetica,sans-Serif" font-size="10.00">spawner.py</text>
<text xml:space="preserve" text-anchor="middle" x="1130" y="-759.13" font-family="Helvetica,sans-Serif" font-size="10.00">depth&#45;limited child sessions</text>
</g>
<!-- spawner&#45;&gt;coord -->
<g id="edge17" class="edge">
<title>spawner&#45;&gt;coord</title>
<path fill="none" stroke="#2e7d32" d="M1198.75,-784.15C1243.11,-786.44 1298.59,-780.56 1330.5,-744.25 1348.33,-723.97 1323.24,-279.02 1340.5,-258.25 1402.78,-183.33 1708,-208.35 1842.04,-223.38"/>
<polygon fill="#2e7d32" stroke="#2e7d32" points="1841.48,-226.84 1851.81,-224.49 1842.27,-219.88 1841.48,-226.84"/>
<text xml:space="preserve" text-anchor="middle" x="1579.12" y="-222.89" font-family="Helvetica,sans-Serif" font-size="9.00" fill="#2e7d32">capability:</text>
<text xml:space="preserve" text-anchor="middle" x="1579.12" y="-213.14" font-family="Helvetica,sans-Serif" font-size="9.00" fill="#2e7d32">session.spawn / resume</text>
</g>
<!-- broker -->
<g id="node15" class="node">
<title>broker</title>
<path fill="#c8e6c9" stroke="#666666" d="M1181.88,-735.13C1181.88,-735.13 1078.12,-735.13 1078.12,-735.13 1072.12,-735.13 1066.12,-729.13 1066.12,-723.13 1066.12,-723.13 1066.12,-705.38 1066.12,-705.38 1066.12,-699.38 1072.12,-693.38 1078.12,-693.38 1078.12,-693.38 1181.88,-693.38 1181.88,-693.38 1187.88,-693.38 1193.88,-699.38 1193.88,-705.38 1193.88,-705.38 1193.88,-723.13 1193.88,-723.13 1193.88,-729.13 1187.88,-735.13 1181.88,-735.13"/>
<text xml:space="preserve" text-anchor="middle" x="1130" y="-721.63" font-family="Helvetica,sans-Serif" font-size="10.00">ApprovalBroker</text>
<text xml:space="preserve" text-anchor="middle" x="1130" y="-710.38" font-family="Helvetica,sans-Serif" font-size="10.00">+ DisplaySystem</text>
<text xml:space="preserve" text-anchor="middle" x="1130" y="-699.13" font-family="Helvetica,sans-Serif" font-size="10.00">approval UI · notifications</text>
</g>
<!-- broker&#45;&gt;coord -->
<g id="edge18" class="edge">
<title>broker&#45;&gt;coord</title>
<path fill="none" stroke="#2e7d32" d="M1193.97,-723.86C1239.06,-726.82 1297.43,-721.87 1330.5,-684.25 1348.18,-664.14 1323.38,-222.85 1340.5,-202.25 1388.22,-144.86 1681.67,-173.27 1693,-174.75 1744.05,-181.43 1800.29,-196.76 1842.06,-209.77"/>
<polygon fill="#2e7d32" stroke="#2e7d32" points="1840.87,-213.07 1851.46,-212.74 1842.98,-206.39 1840.87,-213.07"/>
<text xml:space="preserve" text-anchor="middle" x="1579.12" y="-185.7" font-family="Helvetica,sans-Serif" font-size="9.00" fill="#2e7d32">approval.register_provider</text>
<text xml:space="preserve" text-anchor="middle" x="1579.12" y="-175.95" font-family="Helvetica,sans-Serif" font-size="9.00" fill="#2e7d32">+ display_system</text>
</g>
<!-- apphooks -->
<g id="node16" class="node">
<title>apphooks</title>
<path fill="#c8e6c9" stroke="#666666" d="M1225,-675.5C1225,-675.5 1035,-675.5 1035,-675.5 1029,-675.5 1023,-669.5 1023,-663.5 1023,-663.5 1023,-633 1023,-633 1023,-627 1029,-621 1035,-621 1035,-621 1225,-621 1225,-621 1231,-621 1237,-627 1237,-633 1237,-633 1237,-663.5 1237,-663.5 1237,-669.5 1231,-675.5 1225,-675.5"/>
<text xml:space="preserve" text-anchor="middle" x="1130" y="-662" font-family="Helvetica,sans-Serif" font-size="10.00">app hooks</text>
<text xml:space="preserve" text-anchor="middle" x="1130" y="-650.75" font-family="Helvetica,sans-Serif" font-size="10.00">StepBoundaryBridge (steer @ step boundary)</text>
<text xml:space="preserve" text-anchor="middle" x="1130" y="-639.5" font-family="Helvetica,sans-Serif" font-size="10.00">IncrementalSaver (persist on tool:post)</text>
<text xml:space="preserve" text-anchor="middle" x="1130" y="-628.25" font-family="Helvetica,sans-Serif" font-size="10.00">ClipboardImageInjector (text → multimodal)</text>
</g>
<!-- apphooks&#45;&gt;coord -->
<g id="edge19" class="edge">
<title>apphooks&#45;&gt;coord</title>
<path fill="none" stroke="#2e7d32" d="M1237.28,-653.71C1272.08,-649.67 1307.63,-638.16 1330.5,-611.25 1347.23,-591.56 1323.97,-166.11 1340.5,-146.25 1379.04,-99.94 1413.31,-124.89 1473.25,-118.75 1606.22,-105.12 1652.44,-87.99 1772.75,-146.25 1806.14,-162.42 1841.39,-185.33 1867.15,-203.29"/>
<polygon fill="#2e7d32" stroke="#2e7d32" points="1865.11,-206.13 1875.29,-209.03 1869.14,-200.41 1865.11,-206.13"/>
<text xml:space="preserve" text-anchor="middle" x="1579.12" y="-129.7" font-family="Helvetica,sans-Serif" font-size="9.00" fill="#2e7d32">register hooks</text>
<text xml:space="preserve" text-anchor="middle" x="1579.12" y="-119.95" font-family="Helvetica,sans-Serif" font-size="9.00" fill="#2e7d32">(provider:request, tool:post)</text>
</g>
<!-- loadbundle&#45;&gt;prepared -->
<g id="edge10" class="edge">
<title>loadbundle&#45;&gt;prepared</title>
<path fill="none" stroke="#555555" d="M1636.41,-413.25C1688.14,-413.25 1765.44,-413.25 1823.91,-413.25"/>
<polygon fill="#555555" stroke="#555555" points="1823.83,-416.75 1833.83,-413.25 1823.83,-409.75 1823.83,-416.75"/>
</g>
<!-- prepared&#45;&gt;session -->
<g id="edge13" class="edge">
<title>prepared&#45;&gt;session</title>
<path fill="none" stroke="#555555" d="M1835.34,-394.95C1775.45,-379.3 1690.44,-357.08 1635.28,-342.67"/>
<polygon fill="#555555" stroke="#555555" points="1636.35,-339.33 1625.79,-340.19 1634.58,-346.1 1636.35,-339.33"/>
<text xml:space="preserve" text-anchor="middle" x="1737.88" y="-389.31" font-family="Helvetica,sans-Serif" font-size="9.00">mounts modules,</text>
<text xml:space="preserve" text-anchor="middle" x="1737.88" y="-379.56" font-family="Helvetica,sans-Serif" font-size="9.00">returns session</text>
</g>
<!-- session&#45;&gt;coord -->
<g id="edge15" class="edge">
<title>session&#45;&gt;coord</title>
<path fill="none" stroke="#555555" stroke-dasharray="1,5" d="M1624.24,-322.37C1673.27,-315.18 1748.71,-302.03 1772.75,-286.25 1784.2,-278.74 1779.46,-269 1790.75,-261.25 1805.85,-250.89 1824.31,-244.11 1841.96,-239.67"/>
<polygon fill="#555555" stroke="#555555" points="1842.66,-243.1 1851.63,-237.47 1841.1,-236.27 1842.66,-243.1"/>
</g>
<!-- modules -->
<g id="node22" class="node">
<title>modules</title>
<path fill="#ffccbc" stroke="#666666" d="M2010,-346C2010,-346 1802.75,-346 1802.75,-346 1796.75,-346 1790.75,-340 1790.75,-334 1790.75,-334 1790.75,-282.5 1790.75,-282.5 1790.75,-276.5 1796.75,-270.5 1802.75,-270.5 1802.75,-270.5 2010,-270.5 2010,-270.5 2016,-270.5 2022,-276.5 2022,-282.5 2022,-282.5 2022,-334 2022,-334 2022,-340 2016,-346 2010,-346"/>
<text xml:space="preserve" text-anchor="middle" x="1906.38" y="-332.5" font-family="Helvetica,sans-Serif" font-size="10.00">mounted modules</text>
<text xml:space="preserve" text-anchor="middle" x="1906.38" y="-321.25" font-family="Helvetica,sans-Serif" font-size="10.00">loop&#45;streaming orchestrator</text>
<text xml:space="preserve" text-anchor="middle" x="1906.38" y="-310" font-family="Helvetica,sans-Serif" font-size="10.00">provider&#45;anthropic · context&#45;simple</text>
<text xml:space="preserve" text-anchor="middle" x="1906.38" y="-298.75" font-family="Helvetica,sans-Serif" font-size="10.00">tools: fs/bash/web/search/task</text>
<text xml:space="preserve" text-anchor="middle" x="1906.38" y="-287.5" font-family="Helvetica,sans-Serif" font-size="10.00">+ mcp/skills/team&#45;pulse/mode</text>
<text xml:space="preserve" text-anchor="middle" x="1906.38" y="-276.25" font-family="Helvetica,sans-Serif" font-size="10.00">hooks&#45;mode (decides) · hooks&#45;approval (prompts)</text>
</g>
<!-- session&#45;&gt;modules -->
<g id="edge14" class="edge">
<title>session&#45;&gt;modules</title>
<path fill="none" stroke="#555555" stroke-dasharray="1,5" d="M1624.33,-325.53C1664.14,-323.09 1724.63,-319.37 1779.31,-316"/>
<polygon fill="#555555" stroke="#555555" points="1779.24,-319.51 1789.01,-315.41 1778.81,-312.53 1779.24,-319.51"/>
</g>
<!-- coord&#45;&gt;qbridge -->
<g id="edge22" class="edge">
<title>coord&#45;&gt;qbridge</title>
<path fill="none" stroke="#c62828" stroke-width="1.8" d="M1892.24,-210.07C1863.1,-165.55 1788.02,-63.86 1693,-33.5 1541.84,14.79 1453.22,21.44 1340.5,-90.25 1214.95,-214.66 1159.09,-427.02 1139.62,-521.06"/>
<polygon fill="#c62828" stroke="#c62828" stroke-width="1.8" points="1136.19,-520.35 1137.64,-530.85 1143.05,-521.74 1136.19,-520.35"/>
<text xml:space="preserve" text-anchor="middle" x="1579.12" y="-73.7" font-family="Helvetica,sans-Serif" font-size="9.00" fill="#c62828">~30 hook events:</text>
<text xml:space="preserve" text-anchor="middle" x="1579.12" y="-63.95" font-family="Helvetica,sans-Serif" font-size="9.00" fill="#c62828">llm:stream_* · tool:pre/post/error</text>
<text xml:space="preserve" text-anchor="middle" x="1579.12" y="-54.2" font-family="Helvetica,sans-Serif" font-size="9.00" fill="#c62828">provider:response/error/retry</text>
<text xml:space="preserve" text-anchor="middle" x="1579.12" y="-44.45" font-family="Helvetica,sans-Serif" font-size="9.00" fill="#c62828">session:* · approval:* · task:agent_*</text>
<text xml:space="preserve" text-anchor="middle" x="1579.12" y="-34.7" font-family="Helvetica,sans-Serif" font-size="9.00" fill="#c62828">orchestrator:complete …</text>
</g>
<!-- legend -->
<g id="node23" class="node">
<title>legend</title>
<path fill="#f5f5f5" stroke="none" d="M217.5,-942C217.5,-942 12,-942 12,-942 6,-942 0,-936 0,-930 0,-930 0,-906.5 0,-906.5 0,-900.5 6,-894.5 12,-894.5 12,-894.5 217.5,-894.5 217.5,-894.5 223.5,-894.5 229.5,-900.5 229.5,-906.5 229.5,-906.5 229.5,-930 229.5,-930 229.5,-936 223.5,-942 217.5,-942"/>
<text xml:space="preserve" text-anchor="start" x="12" y="-924.25" font-family="Helvetica,sans-Serif" font-size="10.00" fill="#2e7d32">▶ green = app → Amplifier (calls, registrations)</text>
<text xml:space="preserve" text-anchor="start" x="12" y="-905.5" font-family="Helvetica,sans-Serif" font-size="10.00" fill="#c62828">◀ red = Amplifier → app (hook events → UI)</text>
</g>
</g>
</svg>
