<?xml version="1.0" encoding="UTF-8" standalone="no"?>
<!DOCTYPE svg PUBLIC "-//W3C//DTD SVG 1.1//EN"
 "http://www.w3.org/Graphics/SVG/1.1/DTD/svg11.dtd">
<!-- Generated by graphviz version 14.1.3 (20260303.0454)
 -->
<!-- Title: newtui_amplifier Pages: 1 -->
<svg width="1810pt" height="1136pt"
 viewBox="0.00 0.00 1810.00 1136.00" xmlns="http://www.w3.org/2000/svg" xmlns:xlink="http://www.w3.org/1999/xlink">
<g id="graph0" class="graph" transform="scale(1 1) rotate(0) translate(4 1131.9)">
<title>newtui_amplifier</title>
<polygon fill="white" stroke="none" points="-4,4 -4,-1131.9 1805.75,-1131.9 1805.75,4 -4,4"/>
<text xml:space="preserve" text-anchor="start" x="772.25" y="-1113.5" font-family="Helvetica,sans-Serif" font-weight="bold" font-size="12.00">newtui ⇄ Amplifier — integration architecture</text>
<text xml:space="preserve" text-anchor="start" x="766.25" y="-1103.4" font-family="Helvetica,sans-Serif" font-size="10.00">app→kernel calls flow right; kernel→app events flow back left</text>
<g id="clust1" class="cluster">
<title>cluster_config</title>
<path fill="#fff8e1" stroke="#e0c060" d="M943.75,-894.9C943.75,-894.9 1145.25,-894.9 1145.25,-894.9 1151.25,-894.9 1157.25,-900.9 1157.25,-906.9 1157.25,-906.9 1157.25,-1077.9 1157.25,-1077.9 1157.25,-1083.9 1151.25,-1089.9 1145.25,-1089.9 1145.25,-1089.9 943.75,-1089.9 943.75,-1089.9 937.75,-1089.9 931.75,-1083.9 931.75,-1077.9 931.75,-1077.9 931.75,-906.9 931.75,-906.9 931.75,-900.9 937.75,-894.9 943.75,-894.9"/>
<text xml:space="preserve" text-anchor="start" x="1000.25" y="-1075.5" font-family="Helvetica,sans-Serif" font-weight="bold" font-size="12.00">Config sources</text>
</g>
<g id="clust2" class="cluster">
<title>cluster_ui</title>
<path fill="#e3f2fd" stroke="#5b9bd5" d="M43.62,-686.9C43.62,-686.9 522,-686.9 522,-686.9 528,-686.9 534,-692.9 534,-698.9 534,-698.9 534,-867.9 534,-867.9 534,-873.9 528,-879.9 522,-879.9 522,-879.9 43.62,-879.9 43.62,-879.9 37.63,-879.9 31.62,-873.9 31.62,-867.9 31.62,-867.9 31.62,-698.9 31.62,-698.9 31.62,-692.9 37.62,-686.9 43.62,-686.9"/>
<text xml:space="preserve" text-anchor="start" x="195.06" y="-865.5" font-family="Helvetica,sans-Serif" font-weight="bold" font-size="12.00">newtui — UI layer (Textual ~8.2)</text>
</g>
<g id="clust3" class="cluster">
<title>cluster_bridge</title>
<path fill="#e8f5e9" stroke="#66a06b" d="M941.5,-528.9C941.5,-528.9 1510,-528.9 1510,-528.9 1516,-528.9 1522,-534.9 1522,-540.9 1522,-540.9 1522,-874.9 1522,-874.9 1522,-880.9 1516,-886.9 1510,-886.9 1510,-886.9 941.5,-886.9 941.5,-886.9 935.5,-886.9 929.5,-880.9 929.5,-874.9 929.5,-874.9 929.5,-540.9 929.5,-540.9 929.5,-534.9 935.5,-528.9 941.5,-528.9"/>
<text xml:space="preserve" text-anchor="start" x="1046.88" y="-872.5" font-family="Helvetica,sans-Serif" font-weight="bold" font-size="12.00">newtui — kernel bridge (src/…/kernel/, own thread + event loop)</text>
</g>
<g id="clust4" class="cluster">
<title>cluster_foundation</title>
<path fill="#ede7f6" stroke="#8e7cc3" d="M1349.75,-385.9C1349.75,-385.9 1769.38,-385.9 1769.38,-385.9 1775.38,-385.9 1781.38,-391.9 1781.38,-397.9 1781.38,-397.9 1781.38,-508.9 1781.38,-508.9 1781.38,-514.9 1775.38,-520.9 1769.38,-520.9 1769.38,-520.9 1349.75,-520.9 1349.75,-520.9 1343.75,-520.9 1337.75,-514.9 1337.75,-508.9 1337.75,-508.9 1337.75,-397.9 1337.75,-397.9 1337.75,-391.9 1343.75,-385.9 1349.75,-385.9"/>
<text xml:space="preserve" text-anchor="start" x="1480.44" y="-506.5" font-family="Helvetica,sans-Serif" font-weight="bold" font-size="12.00">amplifier&#45;foundation</text>
<text xml:space="preserve" text-anchor="start" x="1595.94" y="-506.5" font-family="Helvetica,sans-Serif" font-size="12.00"> (git pin)</text>
</g>
<g id="clust5" class="cluster">
<title>cluster_core</title>
<path fill="#fbe9e7" stroke="#d98066" d="M1367.38,-216.9C1367.38,-216.9 1781.75,-216.9 1781.75,-216.9 1787.75,-216.9 1793.75,-222.9 1793.75,-228.9 1793.75,-228.9 1793.75,-365.9 1793.75,-365.9 1793.75,-371.9 1787.75,-377.9 1781.75,-377.9 1781.75,-377.9 1367.38,-377.9 1367.38,-377.9 1361.38,-377.9 1355.38,-371.9 1355.38,-365.9 1355.38,-365.9 1355.38,-228.9 1355.38,-228.9 1355.38,-222.9 1361.38,-216.9 1367.38,-216.9"/>
<text xml:space="preserve" text-anchor="start" x="1484.56" y="-363.5" font-family="Helvetica,sans-Serif" font-weight="bold" font-size="12.00">amplifier&#45;core</text>
<text xml:space="preserve" text-anchor="start" x="1563.31" y="-363.5" font-family="Helvetica,sans-Serif" font-size="12.00"> (kernel, PyPI ≥1.6)</text>
</g>
<!-- keys_env -->
<g id="node1" class="node">
<title>keys_env</title>
<path fill="#fff3cd" stroke="#666666" d="M1086.25,-1060.9C1086.25,-1060.9 1002.75,-1060.9 1002.75,-1060.9 996.75,-1060.9 990.75,-1054.9 990.75,-1048.9 990.75,-1048.9 990.75,-1036.9 990.75,-1036.9 990.75,-1030.9 996.75,-1024.9 1002.75,-1024.9 1002.75,-1024.9 1086.25,-1024.9 1086.25,-1024.9 1092.25,-1024.9 1098.25,-1030.9 1098.25,-1036.9 1098.25,-1036.9 1098.25,-1048.9 1098.25,-1048.9 1098.25,-1054.9 1092.25,-1060.9 1086.25,-1060.9"/>
<text xml:space="preserve" text-anchor="middle" x="1044.5" y="-1044.65" font-family="Helvetica,sans-Serif" font-size="10.00">~/.amplifier/keys.env</text>
<text xml:space="preserve" text-anchor="middle" x="1044.5" y="-1033.4" font-family="Helvetica,sans-Serif" font-size="10.00">(API keys, env wins)</text>
</g>
<!-- config -->
<g id="node11" class="node">
<title>config</title>
<path fill="#c8e6c9" stroke="#666666" d="M1502,-858.4C1502,-858.4 1314.25,-858.4 1314.25,-858.4 1308.25,-858.4 1302.25,-852.4 1302.25,-846.4 1302.25,-846.4 1302.25,-793.4 1302.25,-793.4 1302.25,-787.4 1308.25,-781.4 1314.25,-781.4 1314.25,-781.4 1502,-781.4 1502,-781.4 1508,-781.4 1514,-787.4 1514,-793.4 1514,-793.4 1514,-846.4 1514,-846.4 1514,-852.4 1508,-858.4 1502,-858.4"/>
<text xml:space="preserve" text-anchor="middle" x="1408.12" y="-844.9" font-family="Helvetica,sans-Serif" font-size="10.00">resolve_config()</text>
<text xml:space="preserve" text-anchor="middle" x="1408.12" y="-833.65" font-family="Helvetica,sans-Serif" font-size="10.00">config.py</text>
<text xml:space="preserve" text-anchor="middle" x="1408.12" y="-822.4" font-family="Helvetica,sans-Serif" font-size="10.00">keys.env · settings merge · bundle discovery</text>
<text xml:space="preserve" text-anchor="middle" x="1408.12" y="-811.15" font-family="Helvetica,sans-Serif" font-size="10.00">apply_module_overrides ·</text>
<text xml:space="preserve" text-anchor="middle" x="1408.12" y="-799.9" font-family="Helvetica,sans-Serif" font-size="10.00">map provider id→instance_id ·</text>
<text xml:space="preserve" text-anchor="middle" x="1408.12" y="-787.15" font-family="Helvetica,sans-Serif" font-size="10.00">expand ${VAR}</text>
</g>
<!-- keys_env&#45;&gt;config -->
<g id="edge1" class="edge">
<title>keys_env&#45;&gt;config</title>
<path fill="none" stroke="#555555" d="M1098.68,-1033.81C1117.61,-1029.6 1138.79,-1023.75 1157.25,-1015.9 1238.85,-981.17 1316.55,-912.71 1363.04,-866.61"/>
<polygon fill="#555555" stroke="#555555" points="1365.42,-869.18 1370,-859.63 1360.46,-864.24 1365.42,-869.18"/>
</g>
<!-- settings -->
<g id="node2" class="node">
<title>settings</title>
<path fill="#fff3cd" stroke="#666666" d="M1090.38,-1006.52C1090.38,-1006.52 998.62,-1006.52 998.62,-1006.52 992.62,-1006.52 986.62,-1000.52 986.62,-994.52 986.62,-994.52 986.62,-975.27 986.62,-975.27 986.62,-969.27 992.62,-963.27 998.62,-963.27 998.62,-963.27 1090.38,-963.27 1090.38,-963.27 1096.38,-963.27 1102.38,-969.27 1102.38,-975.27 1102.38,-975.27 1102.38,-994.52 1102.38,-994.52 1102.38,-1000.52 1096.38,-1006.52 1090.38,-1006.52"/>
<text xml:space="preserve" text-anchor="middle" x="1044.5" y="-993.02" font-family="Helvetica,sans-Serif" font-size="10.00">settings.yaml ×3</text>
<text xml:space="preserve" text-anchor="middle" x="1044.5" y="-981.77" font-family="Helvetica,sans-Serif" font-size="10.00">user → project → local</text>
<text xml:space="preserve" text-anchor="middle" x="1044.5" y="-969.02" font-family="Helvetica,sans-Serif" font-size="10.00">(deep merge)</text>
</g>
<!-- settings&#45;&gt;config -->
<g id="edge2" class="edge">
<title>settings&#45;&gt;config</title>
<path fill="none" stroke="#555555" d="M1102.87,-971.59C1120.58,-966.79 1139.96,-960.82 1157.25,-953.9 1219.13,-929.1 1285.46,-893.04 1334.22,-864.57"/>
<polygon fill="#555555" stroke="#555555" points="1335.89,-867.66 1342.74,-859.57 1332.34,-861.62 1335.89,-867.66"/>
</g>
<!-- bundle_md -->
<g id="node3" class="node">
<title>bundle_md</title>
<path fill="#fff3cd" stroke="#666666" d="M1137.25,-944.77C1137.25,-944.77 951.75,-944.77 951.75,-944.77 945.75,-944.77 939.75,-938.77 939.75,-932.77 939.75,-932.77 939.75,-915.02 939.75,-915.02 939.75,-909.02 945.75,-903.02 951.75,-903.02 951.75,-903.02 1137.25,-903.02 1137.25,-903.02 1143.25,-903.02 1149.25,-909.02 1149.25,-915.02 1149.25,-915.02 1149.25,-932.77 1149.25,-932.77 1149.25,-938.77 1143.25,-944.77 1137.25,-944.77"/>
<text xml:space="preserve" text-anchor="middle" x="1044.5" y="-931.27" font-family="Helvetica,sans-Serif" font-size="10.00">bundle: newtui.md</text>
<text xml:space="preserve" text-anchor="middle" x="1044.5" y="-920.02" font-family="Helvetica,sans-Serif" font-size="10.00">loop&#45;streaming · context&#45;simple</text>
<text xml:space="preserve" text-anchor="middle" x="1044.5" y="-908.77" font-family="Helvetica,sans-Serif" font-size="10.00">provider&#45;anthropic · fs/bash/web/search/task</text>
</g>
<!-- bundle_md&#45;&gt;config -->
<g id="edge3" class="edge">
<title>bundle_md&#45;&gt;config</title>
<path fill="none" stroke="#555555" d="M1119.55,-902.6C1168.96,-888.39 1234.93,-869.42 1291.22,-853.23"/>
<polygon fill="#555555" stroke="#555555" points="1291.88,-856.68 1300.53,-850.55 1289.95,-849.95 1291.88,-856.68"/>
</g>
<!-- cli -->
<g id="node4" class="node">
<title>cli</title>
<path fill="#bbdefb" stroke="#666666" d="M177.88,-790.77C177.88,-790.77 51.63,-790.77 51.63,-790.77 45.62,-790.77 39.62,-784.77 39.62,-778.77 39.62,-778.77 39.62,-761.02 39.62,-761.02 39.62,-755.02 45.62,-749.02 51.62,-749.02 51.62,-749.02 177.88,-749.02 177.88,-749.02 183.88,-749.02 189.88,-755.02 189.88,-761.02 189.88,-761.02 189.88,-778.77 189.88,-778.77 189.88,-784.77 183.88,-790.77 177.88,-790.77"/>
<text xml:space="preserve" text-anchor="middle" x="114.75" y="-777.27" font-family="Helvetica,sans-Serif" font-size="10.00">CLI entry</text>
<text xml:space="preserve" text-anchor="middle" x="114.75" y="-766.02" font-family="Helvetica,sans-Serif" font-size="10.00">amplifier&#45;newtui</text>
<text xml:space="preserve" text-anchor="middle" x="114.75" y="-754.77" font-family="Helvetica,sans-Serif" font-size="10.00">main.py (run / resume / doctor)</text>
</g>
<!-- app -->
<g id="node5" class="node">
<title>app</title>
<path fill="#bbdefb" stroke="#666666" d="M443.5,-825.9C443.5,-825.9 400.5,-825.9 400.5,-825.9 394.5,-825.9 388.5,-819.9 388.5,-813.9 388.5,-813.9 388.5,-801.9 388.5,-801.9 388.5,-795.9 394.5,-789.9 400.5,-789.9 400.5,-789.9 443.5,-789.9 443.5,-789.9 449.5,-789.9 455.5,-795.9 455.5,-801.9 455.5,-801.9 455.5,-813.9 455.5,-813.9 455.5,-819.9 449.5,-825.9 443.5,-825.9"/>
<text xml:space="preserve" text-anchor="middle" x="422" y="-809.65" font-family="Helvetica,sans-Serif" font-size="10.00">NewTuiApp</text>
<text xml:space="preserve" text-anchor="middle" x="422" y="-798.4" font-family="Helvetica,sans-Serif" font-size="10.00">ui/app.py</text>
</g>
<!-- cli&#45;&gt;app -->
<g id="edge4" class="edge">
<title>cli&#45;&gt;app</title>
<path fill="none" stroke="#555555" d="M190.03,-779.14C248.52,-786.42 328.07,-796.33 376.9,-802.41"/>
<polygon fill="#555555" stroke="#555555" points="376.17,-805.84 386.53,-803.6 377.04,-798.9 376.17,-805.84"/>
</g>
<!-- adapter -->
<g id="node9" class="node">
<title>adapter</title>
<polygon fill="#fce4ec" stroke="#c2185b" stroke-width="2" stroke-dasharray="5,2" points="794.25,-735.02 563,-735.02 563,-670.77 794.25,-670.77 794.25,-735.02"/>
<text xml:space="preserve" text-anchor="middle" x="678.62" y="-721.52" font-family="Helvetica,sans-Serif" font-size="10.00">RealRuntimeAdapter</text>
<text xml:space="preserve" text-anchor="middle" x="678.62" y="-710.27" font-family="Helvetica,sans-Serif" font-size="10.00">ui/runtime_adapter.py</text>
<text xml:space="preserve" text-anchor="middle" x="678.62" y="-699.02" font-family="Helvetica,sans-Serif" font-size="10.00">— THREAD BOUNDARY —</text>
<text xml:space="preserve" text-anchor="middle" x="678.62" y="-687.77" font-family="Helvetica,sans-Serif" font-size="10.00">_AppLoopQueue (call_soon_threadsafe)</text>
<text xml:space="preserve" text-anchor="middle" x="678.62" y="-676.52" font-family="Helvetica,sans-Serif" font-size="10.00">submit/interrupt/fork via run_coroutine_threadsafe</text>
</g>
<!-- app&#45;&gt;adapter -->
<g id="edge6" class="edge">
<title>app&#45;&gt;adapter</title>
<path fill="none" stroke="#555555" d="M455.73,-802.25C478.2,-797.82 508.46,-790.74 534,-780.9 561.46,-770.31 590.24,-755.5 614.77,-741.62"/>
<polygon fill="#555555" stroke="#555555" points="616.4,-744.72 623.33,-736.71 612.92,-738.65 616.4,-744.72"/>
</g>
<!-- reducer -->
<g id="node6" class="node">
<title>reducer</title>
<path fill="#bbdefb" stroke="#666666" d="M169.62,-730.9C169.62,-730.9 59.87,-730.9 59.87,-730.9 53.88,-730.9 47.88,-724.9 47.88,-718.9 47.88,-718.9 47.88,-706.9 47.88,-706.9 47.88,-700.9 53.88,-694.9 59.88,-694.9 59.88,-694.9 169.62,-694.9 169.62,-694.9 175.62,-694.9 181.62,-700.9 181.62,-706.9 181.62,-706.9 181.62,-718.9 181.62,-718.9 181.62,-724.9 175.62,-730.9 169.62,-730.9"/>
<text xml:space="preserve" text-anchor="middle" x="114.75" y="-715.4" font-family="Helvetica,sans-Serif" font-size="10.00">reducer.py</text>
<text xml:space="preserve" text-anchor="middle" x="114.75" y="-704.15" font-family="Helvetica,sans-Serif" font-size="10.00">UIEvent → widget updates</text>
</g>
<!-- widgets -->
<g id="node8" class="node">
<title>widgets</title>
<path fill="#bbdefb" stroke="#666666" d="M514,-771.4C514,-771.4 330,-771.4 330,-771.4 324,-771.4 318,-765.4 318,-759.4 318,-759.4 318,-730.4 318,-730.4 318,-724.4 324,-718.4 330,-718.4 330,-718.4 514,-718.4 514,-718.4 520,-718.4 526,-724.4 526,-730.4 526,-730.4 526,-759.4 526,-759.4 526,-765.4 520,-771.4 514,-771.4"/>
<text xml:space="preserve" text-anchor="middle" x="422" y="-757.9" font-family="Helvetica,sans-Serif" font-size="10.00">widgets</text>
<text xml:space="preserve" text-anchor="middle" x="422" y="-746.65" font-family="Helvetica,sans-Serif" font-size="10.00">transcript · live_tail · lanes_panel</text>
<text xml:space="preserve" text-anchor="middle" x="422" y="-735.4" font-family="Helvetica,sans-Serif" font-size="10.00">approval_bar · needs_you · footer ($/tokens)</text>
<text xml:space="preserve" text-anchor="middle" x="422" y="-724.15" font-family="Helvetica,sans-Serif" font-size="10.00">rewind_strip · queued_strip · palette</text>
</g>
<!-- reducer&#45;&gt;widgets -->
<g id="edge25" class="edge">
<title>reducer&#45;&gt;widgets</title>
<path fill="none" stroke="#c62828" d="M181.98,-719.84C218.28,-723.65 264.31,-728.47 306.25,-732.87"/>
<polygon fill="#c62828" stroke="#c62828" points="305.86,-736.34 316.17,-733.91 306.59,-729.38 305.86,-736.34"/>
</g>
<!-- composer -->
<g id="node7" class="node">
<title>composer</title>
<path fill="#bbdefb" stroke="#666666" d="M162.12,-850.77C162.12,-850.77 67.38,-850.77 67.38,-850.77 61.37,-850.77 55.38,-844.77 55.38,-838.77 55.38,-838.77 55.38,-821.02 55.38,-821.02 55.38,-815.02 61.38,-809.02 67.38,-809.02 67.38,-809.02 162.12,-809.02 162.12,-809.02 168.12,-809.02 174.12,-815.02 174.12,-821.02 174.12,-821.02 174.12,-838.77 174.12,-838.77 174.12,-844.77 168.12,-850.77 162.12,-850.77"/>
<text xml:space="preserve" text-anchor="middle" x="114.75" y="-837.27" font-family="Helvetica,sans-Serif" font-size="10.00">composer.py</text>
<text xml:space="preserve" text-anchor="middle" x="114.75" y="-826.02" font-family="Helvetica,sans-Serif" font-size="10.00">large&#45;paste stubs ·</text>
<text xml:space="preserve" text-anchor="middle" x="114.75" y="-814.77" font-family="Helvetica,sans-Serif" font-size="10.00">image paste / drag&#45;drop</text>
</g>
<!-- composer&#45;&gt;app -->
<g id="edge5" class="edge">
<title>composer&#45;&gt;app</title>
<path fill="none" stroke="#555555" d="M174.61,-825.65C233.72,-821.39 323.46,-814.93 376.77,-811.08"/>
<polygon fill="#555555" stroke="#555555" points="376.97,-814.58 386.7,-810.37 376.47,-807.6 376.97,-814.58"/>
<text xml:space="preserve" text-anchor="middle" x="273.75" y="-831.16" font-family="Helvetica,sans-Serif" font-size="9.00">submit(text,</text>
<text xml:space="preserve" text-anchor="middle" x="273.75" y="-821.41" font-family="Helvetica,sans-Serif" font-size="9.00">attachments)</text>
</g>
<!-- adapter&#45;&gt;reducer -->
<g id="edge24" class="edge">
<title>adapter&#45;&gt;reducer</title>
<path fill="none" stroke="#c62828" d="M562,-700.49C552.53,-700.35 543.1,-700.23 534,-700.15 438,-699.23 413.95,-697.12 318,-700.15 276.73,-701.45 230.79,-704.23 193.14,-706.87"/>
<polygon fill="#c62828" stroke="#c62828" points="192.97,-703.37 183.25,-707.58 193.47,-710.36 192.97,-703.37"/>
<text xml:space="preserve" text-anchor="middle" x="422" y="-701.35" font-family="Helvetica,sans-Serif" font-size="9.00" fill="#c62828">hop to app loop</text>
</g>
<!-- runtime -->
<g id="node10" class="node">
<title>runtime</title>
<path fill="#c8e6c9" stroke="#666666" d="M1097.5,-857.77C1097.5,-857.77 991.5,-857.77 991.5,-857.77 985.5,-857.77 979.5,-851.77 979.5,-845.77 979.5,-845.77 979.5,-828.02 979.5,-828.02 979.5,-822.02 985.5,-816.02 991.5,-816.02 991.5,-816.02 1097.5,-816.02 1097.5,-816.02 1103.5,-816.02 1109.5,-822.02 1109.5,-828.02 1109.5,-828.02 1109.5,-845.77 1109.5,-845.77 1109.5,-851.77 1103.5,-857.77 1097.5,-857.77"/>
<text xml:space="preserve" text-anchor="middle" x="1044.5" y="-844.27" font-family="Helvetica,sans-Serif" font-size="10.00">RealRuntime</text>
<text xml:space="preserve" text-anchor="middle" x="1044.5" y="-833.02" font-family="Helvetica,sans-Serif" font-size="10.00">runtime.py</text>
<text xml:space="preserve" text-anchor="middle" x="1044.5" y="-821.77" font-family="Helvetica,sans-Serif" font-size="10.00">7&#45;step foundation lifecycle</text>
</g>
<!-- adapter&#45;&gt;runtime -->
<g id="edge7" class="edge">
<title>adapter&#45;&gt;runtime</title>
<path fill="none" stroke="#2e7d32" d="M751.6,-735.94C800.99,-757.85 868.4,-786.25 929.5,-806.9 941.92,-811.09 955.26,-815.07 968.29,-818.67"/>
<polygon fill="#2e7d32" stroke="#2e7d32" points="967.1,-821.97 977.67,-821.21 968.93,-815.22 967.1,-821.97"/>
<text xml:space="preserve" text-anchor="middle" x="865.88" y="-803.35" font-family="Helvetica,sans-Serif" font-size="9.00" fill="#2e7d32">submit / interrupt / fork</text>
</g>
<!-- runtime&#45;&gt;config -->
<g id="edge8" class="edge">
<title>runtime&#45;&gt;config</title>
<path fill="none" stroke="#555555" d="M1109.73,-833.88C1159.79,-831.52 1230.61,-828.19 1290.59,-825.37"/>
<polygon fill="#555555" stroke="#555555" points="1290.71,-828.87 1300.53,-824.91 1290.38,-821.88 1290.71,-828.87"/>
<text xml:space="preserve" text-anchor="middle" x="1226.88" y="-832.11" font-family="Helvetica,sans-Serif" font-size="9.00">1. resolve</text>
</g>
<!-- factory -->
<g id="node12" class="node">
<title>factory</title>
<path fill="#c8e6c9" stroke="#666666" d="M1470.88,-715.4C1470.88,-715.4 1345.38,-715.4 1345.38,-715.4 1339.38,-715.4 1333.38,-709.4 1333.38,-703.4 1333.38,-703.4 1333.38,-650.4 1333.38,-650.4 1333.38,-644.4 1339.38,-638.4 1345.38,-638.4 1345.38,-638.4 1470.88,-638.4 1470.88,-638.4 1476.88,-638.4 1482.88,-644.4 1482.88,-650.4 1482.88,-650.4 1482.88,-703.4 1482.88,-703.4 1482.88,-709.4 1476.88,-715.4 1470.88,-715.4"/>
<text xml:space="preserve" text-anchor="middle" x="1408.12" y="-701.9" font-family="Helvetica,sans-Serif" font-size="10.00">create_initialized_session()</text>
<text xml:space="preserve" text-anchor="middle" x="1408.12" y="-690.65" font-family="Helvetica,sans-Serif" font-size="10.00">session_factory.py</text>
<text xml:space="preserve" text-anchor="middle" x="1408.12" y="-679.4" font-family="Helvetica,sans-Serif" font-size="10.00">mint id · stamp metadata ·</text>
<text xml:space="preserve" text-anchor="middle" x="1408.12" y="-668.15" font-family="Helvetica,sans-Serif" font-size="10.00">verify_mounts → MountReport</text>
<text xml:space="preserve" text-anchor="middle" x="1408.12" y="-655.4" font-family="Helvetica,sans-Serif" font-size="10.00">(0 providers = hard fail,</text>
<text xml:space="preserve" text-anchor="middle" x="1408.12" y="-644.15" font-family="Helvetica,sans-Serif" font-size="10.00">partial = degraded notice)</text>
</g>
<!-- runtime&#45;&gt;factory -->
<g id="edge11" class="edge">
<title>runtime&#45;&gt;factory</title>
<path fill="none" stroke="#555555" d="M1109.8,-822.2C1125.54,-817.9 1142.18,-812.76 1157.25,-806.9 1218.11,-783.22 1283.48,-748.87 1332.08,-721.42"/>
<polygon fill="#555555" stroke="#555555" points="1333.6,-724.58 1340.57,-716.6 1330.14,-718.5 1333.6,-724.58"/>
<text xml:space="preserve" text-anchor="middle" x="1226.88" y="-802.47" font-family="Helvetica,sans-Serif" font-size="9.00">2. create</text>
</g>
<!-- fork -->
<g id="node19" class="node">
<title>fork</title>
<path fill="#d1c4e9" stroke="#666666" d="M1458.5,-491.9C1458.5,-491.9 1357.75,-491.9 1357.75,-491.9 1351.75,-491.9 1345.75,-485.9 1345.75,-479.9 1345.75,-479.9 1345.75,-467.9 1345.75,-467.9 1345.75,-461.9 1351.75,-455.9 1357.75,-455.9 1357.75,-455.9 1458.5,-455.9 1458.5,-455.9 1464.5,-455.9 1470.5,-461.9 1470.5,-467.9 1470.5,-467.9 1470.5,-479.9 1470.5,-479.9 1470.5,-485.9 1464.5,-491.9 1458.5,-491.9"/>
<text xml:space="preserve" text-anchor="middle" x="1408.12" y="-475.65" font-family="Helvetica,sans-Serif" font-size="10.00">fork_session_in_memory</text>
<text xml:space="preserve" text-anchor="middle" x="1408.12" y="-464.4" font-family="Helvetica,sans-Serif" font-size="10.00">(rewind / checkpoints)</text>
</g>
<!-- runtime&#45;&gt;fork -->
<g id="edge21" class="edge">
<title>runtime&#45;&gt;fork</title>
<path fill="none" stroke="#2e7d32" stroke-dasharray="5,2" d="M1109.89,-833.32C1127.8,-829.07 1145.53,-821.18 1157.25,-806.9 1183.46,-774.96 1149.55,-657.57 1169.5,-621.4 1204.48,-557.99 1279.35,-518.4 1335.76,-496.4"/>
<polygon fill="#2e7d32" stroke="#2e7d32" points="1336.89,-499.71 1345.01,-492.9 1334.41,-493.16 1336.89,-499.71"/>
<text xml:space="preserve" text-anchor="middle" x="1226.88" y="-632.35" font-family="Helvetica,sans-Serif" font-size="9.00" fill="#2e7d32">rewind: fork +</text>
<text xml:space="preserve" text-anchor="middle" x="1226.88" y="-622.6" font-family="Helvetica,sans-Serif" font-size="9.00" fill="#2e7d32">context.set_messages()</text>
</g>
<!-- session -->
<g id="node20" class="node">
<title>session</title>
<path fill="#ffccbc" stroke="#666666" d="M1440.88,-348.9C1440.88,-348.9 1375.38,-348.9 1375.38,-348.9 1369.38,-348.9 1363.38,-342.9 1363.38,-336.9 1363.38,-336.9 1363.38,-324.9 1363.38,-324.9 1363.38,-318.9 1369.38,-312.9 1375.38,-312.9 1375.38,-312.9 1440.88,-312.9 1440.88,-312.9 1446.88,-312.9 1452.88,-318.9 1452.88,-324.9 1452.88,-324.9 1452.88,-336.9 1452.88,-336.9 1452.88,-342.9 1446.88,-348.9 1440.88,-348.9"/>
<text xml:space="preserve" text-anchor="middle" x="1408.12" y="-332.65" font-family="Helvetica,sans-Serif" font-size="10.00">AmplifierSession</text>
<text xml:space="preserve" text-anchor="middle" x="1408.12" y="-321.4" font-family="Helvetica,sans-Serif" font-size="10.00">.execute(text)</text>
</g>
<!-- runtime&#45;&gt;session -->
<g id="edge16" class="edge">
<title>runtime&#45;&gt;session</title>
<path fill="none" stroke="#2e7d32" stroke-width="1.6" d="M1109.82,-833.57C1127.83,-829.35 1145.64,-821.4 1157.25,-806.9 1177.94,-781.04 1155.88,-539.33 1169.5,-509.15 1204.49,-431.58 1293.09,-379.95 1351.66,-353.05"/>
<polygon fill="#2e7d32" stroke="#2e7d32" stroke-width="1.6" points="1353.04,-356.27 1360.74,-348.99 1350.18,-349.88 1353.04,-356.27"/>
<text xml:space="preserve" text-anchor="middle" x="1226.88" y="-510.35" font-family="Helvetica,sans-Serif" font-size="9.00" fill="#2e7d32">3. execute(text) per turn</text>
</g>
<!-- coord -->
<g id="node21" class="node">
<title>coord</title>
<path fill="#ffccbc" stroke="#666666" d="M1743.75,-266.77C1743.75,-266.77 1661.75,-266.77 1661.75,-266.77 1655.75,-266.77 1649.75,-260.77 1649.75,-254.77 1649.75,-254.77 1649.75,-237.02 1649.75,-237.02 1649.75,-231.02 1655.75,-225.02 1661.75,-225.02 1661.75,-225.02 1743.75,-225.02 1743.75,-225.02 1749.75,-225.02 1755.75,-231.02 1755.75,-237.02 1755.75,-237.02 1755.75,-254.77 1755.75,-254.77 1755.75,-260.77 1749.75,-266.77 1743.75,-266.77"/>
<text xml:space="preserve" text-anchor="middle" x="1702.75" y="-253.27" font-family="Helvetica,sans-Serif" font-size="10.00">Coordinator</text>
<text xml:space="preserve" text-anchor="middle" x="1702.75" y="-242.02" font-family="Helvetica,sans-Serif" font-size="10.00">hooks · capabilities ·</text>
<text xml:space="preserve" text-anchor="middle" x="1702.75" y="-230.77" font-family="Helvetica,sans-Serif" font-size="10.00">cancellation</text>
</g>
<!-- runtime&#45;&gt;coord -->
<g id="edge20" class="edge">
<title>runtime&#45;&gt;coord</title>
<path fill="none" stroke="#2e7d32" stroke-dasharray="5,2" d="M1109.93,-833.66C1127.94,-829.43 1145.73,-821.47 1157.25,-806.9 1186.27,-770.18 1148.16,-427.54 1169.5,-385.9 1203.37,-319.8 1233.13,-311.56 1302.25,-284.4 1361.76,-261.01 1541.29,-251.37 1638.15,-247.78"/>
<polygon fill="#2e7d32" stroke="#2e7d32" points="1638.16,-251.28 1648.03,-247.43 1637.91,-244.29 1638.16,-251.28"/>
<text xml:space="preserve" text-anchor="middle" x="1408.12" y="-295.35" font-family="Helvetica,sans-Serif" font-size="9.00" fill="#2e7d32">cancellation.</text>
<text xml:space="preserve" text-anchor="middle" x="1408.12" y="-285.6" font-family="Helvetica,sans-Serif" font-size="9.00" fill="#2e7d32">request_graceful()</text>
</g>
<!-- loadbundle -->
<g id="node17" class="node">
<title>loadbundle</title>
<path fill="#d1c4e9" stroke="#666666" d="M1453.25,-438.27C1453.25,-438.27 1363,-438.27 1363,-438.27 1357,-438.27 1351,-432.27 1351,-426.27 1351,-426.27 1351,-405.52 1351,-405.52 1351,-399.52 1357,-393.52 1363,-393.52 1363,-393.52 1453.25,-393.52 1453.25,-393.52 1459.25,-393.52 1465.25,-399.52 1465.25,-405.52 1465.25,-405.52 1465.25,-426.27 1465.25,-426.27 1465.25,-432.27 1459.25,-438.27 1453.25,-438.27"/>
<text xml:space="preserve" text-anchor="middle" x="1408.12" y="-424.77" font-family="Helvetica,sans-Serif" font-size="10.00">load_bundle(uri)</text>
<text xml:space="preserve" text-anchor="middle" x="1408.12" y="-413.52" font-family="Helvetica,sans-Serif" font-size="10.00">→ .compose(overlays)</text>
<text xml:space="preserve" text-anchor="middle" x="1408.12" y="-400.77" font-family="Helvetica,sans-Serif" font-size="10.00">→ .prepare() &#160;[once]</text>
</g>
<!-- config&#45;&gt;loadbundle -->
<g id="edge9" class="edge">
<title>config&#45;&gt;loadbundle</title>
<path fill="none" stroke="#2e7d32" d="M1301.93,-781.53C1242.48,-752.72 1183.07,-707.5 1198.38,-645.27 1222.15,-548.63 1225.28,-509.99 1302.25,-446.9 1313.12,-437.99 1326.46,-431.64 1339.96,-427.11"/>
<polygon fill="#2e7d32" stroke="#2e7d32" points="1340.75,-430.53 1349.32,-424.3 1338.74,-423.82 1340.75,-430.53"/>
<text xml:space="preserve" text-anchor="middle" x="1226.88" y="-647.97" font-family="Helvetica,sans-Serif" font-size="9.00" fill="#2e7d32">load → compose → prepare</text>
</g>
<!-- prepared -->
<g id="node18" class="node">
<title>prepared</title>
<path fill="#d1c4e9" stroke="#666666" d="M1761.38,-436.77C1761.38,-436.77 1644.12,-436.77 1644.12,-436.77 1638.12,-436.77 1632.12,-430.77 1632.12,-424.77 1632.12,-424.77 1632.12,-407.02 1632.12,-407.02 1632.12,-401.02 1638.12,-395.02 1644.12,-395.02 1644.12,-395.02 1761.38,-395.02 1761.38,-395.02 1767.38,-395.02 1773.38,-401.02 1773.38,-407.02 1773.38,-407.02 1773.38,-424.77 1773.38,-424.77 1773.38,-430.77 1767.38,-436.77 1761.38,-436.77"/>
<text xml:space="preserve" text-anchor="middle" x="1702.75" y="-423.27" font-family="Helvetica,sans-Serif" font-size="10.00">PreparedBundle</text>
<text xml:space="preserve" text-anchor="middle" x="1702.75" y="-412.02" font-family="Helvetica,sans-Serif" font-size="10.00">.create_session(id, approval,</text>
<text xml:space="preserve" text-anchor="middle" x="1702.75" y="-400.77" font-family="Helvetica,sans-Serif" font-size="10.00">display, cwd, resumed)</text>
</g>
<!-- factory&#45;&gt;prepared -->
<g id="edge12" class="edge">
<title>factory&#45;&gt;prepared</title>
<path fill="none" stroke="#2e7d32" d="M1452.62,-638.1C1512.04,-585.1 1617.21,-491.3 1669.86,-444.34"/>
<polygon fill="#2e7d32" stroke="#2e7d32" points="1671.88,-447.22 1677.02,-437.96 1667.22,-442 1671.88,-447.22"/>
<text xml:space="preserve" text-anchor="middle" x="1566.88" y="-563.22" font-family="Helvetica,sans-Serif" font-size="9.00" fill="#2e7d32">create_session()</text>
</g>
<!-- qbridge -->
<g id="node13" class="node">
<title>qbridge</title>
<path fill="#c8e6c9" stroke="#666666" d="M1108.75,-605.27C1108.75,-605.27 980.25,-605.27 980.25,-605.27 974.25,-605.27 968.25,-599.27 968.25,-593.27 968.25,-593.27 968.25,-548.52 968.25,-548.52 968.25,-542.52 974.25,-536.52 980.25,-536.52 980.25,-536.52 1108.75,-536.52 1108.75,-536.52 1114.75,-536.52 1120.75,-542.52 1120.75,-548.52 1120.75,-548.52 1120.75,-593.27 1120.75,-593.27 1120.75,-599.27 1114.75,-605.27 1108.75,-605.27"/>
<text xml:space="preserve" text-anchor="middle" x="1044.5" y="-591.77" font-family="Helvetica,sans-Serif" font-size="10.00">QueueBridge</text>
<text xml:space="preserve" text-anchor="middle" x="1044.5" y="-580.52" font-family="Helvetica,sans-Serif" font-size="10.00">queue_bridge.py</text>
<text xml:space="preserve" text-anchor="middle" x="1044.5" y="-569.27" font-family="Helvetica,sans-Serif" font-size="10.00">~30 hook events → normalize()</text>
<text xml:space="preserve" text-anchor="middle" x="1044.5" y="-556.52" font-family="Helvetica,sans-Serif" font-size="10.00">→ asyncio.Queue[UIEvent]</text>
<text xml:space="preserve" text-anchor="middle" x="1044.5" y="-543.77" font-family="Helvetica,sans-Serif" font-size="10.00">tap → evidence · events.jsonl</text>
</g>
<!-- qbridge&#45;&gt;adapter -->
<g id="edge23" class="edge">
<title>qbridge&#45;&gt;adapter</title>
<path fill="none" stroke="#c62828" stroke-width="1.8" d="M967.87,-598.33C914.07,-617.85 841.15,-644.3 782.12,-665.72"/>
<polygon fill="#c62828" stroke="#c62828" stroke-width="1.8" points="781.28,-662.3 773.07,-669 783.66,-668.88 781.28,-662.3"/>
<text xml:space="preserve" text-anchor="middle" x="865.88" y="-663.55" font-family="Helvetica,sans-Serif" font-size="9.00" fill="#c62828">asyncio.Queue[UIEvent]</text>
<text xml:space="preserve" text-anchor="middle" x="865.88" y="-653.8" font-family="Helvetica,sans-Serif" font-size="9.00" fill="#c62828">(30 typed pydantic events)</text>
</g>
<!-- spawner -->
<g id="node14" class="node">
<title>spawner</title>
<path fill="#c8e6c9" stroke="#666666" d="M1100.88,-797.77C1100.88,-797.77 988.12,-797.77 988.12,-797.77 982.12,-797.77 976.12,-791.77 976.12,-785.77 976.12,-785.77 976.12,-768.02 976.12,-768.02 976.12,-762.02 982.12,-756.02 988.12,-756.02 988.12,-756.02 1100.88,-756.02 1100.88,-756.02 1106.88,-756.02 1112.88,-762.02 1112.88,-768.02 1112.88,-768.02 1112.88,-785.77 1112.88,-785.77 1112.88,-791.77 1106.88,-797.77 1100.88,-797.77"/>
<text xml:space="preserve" text-anchor="middle" x="1044.5" y="-784.27" font-family="Helvetica,sans-Serif" font-size="10.00">SessionSpawner</text>
<text xml:space="preserve" text-anchor="middle" x="1044.5" y="-773.02" font-family="Helvetica,sans-Serif" font-size="10.00">spawner.py</text>
<text xml:space="preserve" text-anchor="middle" x="1044.5" y="-761.77" font-family="Helvetica,sans-Serif" font-size="10.00">depth&#45;limited child sessions</text>
</g>
<!-- spawner&#45;&gt;coord -->
<g id="edge17" class="edge">
<title>spawner&#45;&gt;coord</title>
<path fill="none" stroke="#2e7d32" d="M1113.17,-772.89C1130.07,-768.49 1146.44,-760.63 1157.25,-746.9 1190.66,-704.45 1134.87,-302.35 1169.5,-260.9 1227.74,-191.17 1510.35,-219.68 1638.43,-236.67"/>
<polygon fill="#2e7d32" stroke="#2e7d32" points="1637.71,-240.11 1648.09,-237.97 1638.65,-233.17 1637.71,-240.11"/>
<text xml:space="preserve" text-anchor="middle" x="1408.12" y="-234.55" font-family="Helvetica,sans-Serif" font-size="9.00" fill="#2e7d32">capability:</text>
<text xml:space="preserve" text-anchor="middle" x="1408.12" y="-224.8" font-family="Helvetica,sans-Serif" font-size="9.00" fill="#2e7d32">session.spawn / resume</text>
</g>
<!-- broker -->
<g id="node15" class="node">
<title>broker</title>
<path fill="#c8e6c9" stroke="#666666" d="M1096.38,-737.77C1096.38,-737.77 992.62,-737.77 992.62,-737.77 986.62,-737.77 980.62,-731.77 980.62,-725.77 980.62,-725.77 980.62,-708.02 980.62,-708.02 980.62,-702.02 986.62,-696.02 992.62,-696.02 992.62,-696.02 1096.38,-696.02 1096.38,-696.02 1102.38,-696.02 1108.38,-702.02 1108.38,-708.02 1108.38,-708.02 1108.38,-725.77 1108.38,-725.77 1108.38,-731.77 1102.38,-737.77 1096.38,-737.77"/>
<text xml:space="preserve" text-anchor="middle" x="1044.5" y="-724.27" font-family="Helvetica,sans-Serif" font-size="10.00">ApprovalBroker</text>
<text xml:space="preserve" text-anchor="middle" x="1044.5" y="-713.02" font-family="Helvetica,sans-Serif" font-size="10.00">+ DisplaySystem</text>
<text xml:space="preserve" text-anchor="middle" x="1044.5" y="-701.77" font-family="Helvetica,sans-Serif" font-size="10.00">approval UI · notifications</text>
</g>
<!-- broker&#45;&gt;coord -->
<g id="edge18" class="edge">
<title>broker&#45;&gt;coord</title>
<path fill="none" stroke="#2e7d32" d="M1108.79,-713.95C1127.21,-709.8 1145.51,-701.81 1157.25,-686.9 1190.39,-644.8 1135.15,-246.01 1169.5,-204.9 1217.61,-147.31 1511.3,-175.6 1522,-177.4 1566.97,-184.93 1615.09,-203.91 1650.22,-219.99"/>
<polygon fill="#2e7d32" stroke="#2e7d32" points="1648.31,-222.96 1658.86,-224.01 1651.27,-216.61 1648.31,-222.96"/>
<text xml:space="preserve" text-anchor="middle" x="1408.12" y="-188.35" font-family="Helvetica,sans-Serif" font-size="9.00" fill="#2e7d32">approval.register_provider</text>
<text xml:space="preserve" text-anchor="middle" x="1408.12" y="-178.6" font-family="Helvetica,sans-Serif" font-size="9.00" fill="#2e7d32">+ display_system</text>
</g>
<!-- apphooks -->
<g id="node16" class="node">
<title>apphooks</title>
<path fill="#c8e6c9" stroke="#666666" d="M1139.5,-678.15C1139.5,-678.15 949.5,-678.15 949.5,-678.15 943.5,-678.15 937.5,-672.15 937.5,-666.15 937.5,-666.15 937.5,-635.65 937.5,-635.65 937.5,-629.65 943.5,-623.65 949.5,-623.65 949.5,-623.65 1139.5,-623.65 1139.5,-623.65 1145.5,-623.65 1151.5,-629.65 1151.5,-635.65 1151.5,-635.65 1151.5,-666.15 1151.5,-666.15 1151.5,-672.15 1145.5,-678.15 1139.5,-678.15"/>
<text xml:space="preserve" text-anchor="middle" x="1044.5" y="-664.65" font-family="Helvetica,sans-Serif" font-size="10.00">app hooks</text>
<text xml:space="preserve" text-anchor="middle" x="1044.5" y="-653.4" font-family="Helvetica,sans-Serif" font-size="10.00">StepBoundaryBridge (steer @ step boundary)</text>
<text xml:space="preserve" text-anchor="middle" x="1044.5" y="-642.15" font-family="Helvetica,sans-Serif" font-size="10.00">IncrementalSaver (persist on tool:post)</text>
<text xml:space="preserve" text-anchor="middle" x="1044.5" y="-630.9" font-family="Helvetica,sans-Serif" font-size="10.00">ClipboardImageInjector (text → multimodal)</text>
</g>
<!-- apphooks&#45;&gt;coord -->
<g id="edge19" class="edge">
<title>apphooks&#45;&gt;coord</title>
<path fill="none" stroke="#2e7d32" d="M1148.65,-623.31C1151.8,-620.47 1154.69,-617.34 1157.25,-613.9 1188.06,-572.4 1136.35,-188.55 1169.5,-148.9 1231.12,-75.21 1519.92,-98.6 1601.75,-148.9 1630.96,-166.85 1658.48,-194.66 1677.23,-215.91"/>
<polygon fill="#2e7d32" stroke="#2e7d32" points="1674.53,-218.14 1683.72,-223.42 1679.83,-213.56 1674.53,-218.14"/>
<text xml:space="preserve" text-anchor="middle" x="1408.12" y="-131.07" font-family="Helvetica,sans-Serif" font-size="9.00" fill="#2e7d32">register hooks</text>
<text xml:space="preserve" text-anchor="middle" x="1408.12" y="-121.32" font-family="Helvetica,sans-Serif" font-size="9.00" fill="#2e7d32">(provider:request, tool:post)</text>
</g>
<!-- loadbundle&#45;&gt;prepared -->
<g id="edge10" class="edge">
<title>loadbundle&#45;&gt;prepared</title>
<path fill="none" stroke="#555555" d="M1465.55,-415.9C1509.54,-415.9 1571.22,-415.9 1620.53,-415.9"/>
<polygon fill="#555555" stroke="#555555" points="1620.3,-419.4 1630.3,-415.9 1620.3,-412.4 1620.3,-419.4"/>
</g>
<!-- prepared&#45;&gt;session -->
<g id="edge13" class="edge">
<title>prepared&#45;&gt;session</title>
<path fill="none" stroke="#555555" d="M1631.9,-395.61C1580.55,-380.69 1511.74,-360.7 1464.24,-346.91"/>
<polygon fill="#555555" stroke="#555555" points="1465.28,-343.56 1454.7,-344.14 1463.33,-350.29 1465.28,-343.56"/>
<text xml:space="preserve" text-anchor="middle" x="1566.88" y="-396.93" font-family="Helvetica,sans-Serif" font-size="9.00">mounts modules,</text>
<text xml:space="preserve" text-anchor="middle" x="1566.88" y="-387.18" font-family="Helvetica,sans-Serif" font-size="9.00">returns session</text>
</g>
<!-- session&#45;&gt;coord -->
<g id="edge15" class="edge">
<title>session&#45;&gt;coord</title>
<path fill="none" stroke="#555555" stroke-dasharray="1,5" d="M1453.18,-326.5C1493.3,-321.3 1553.47,-310.46 1601.75,-288.9 1610.76,-284.87 1611.03,-280.52 1619.75,-275.9 1625.9,-272.63 1632.48,-269.57 1639.15,-266.75"/>
<polygon fill="#555555" stroke="#555555" points="1640.27,-270.07 1648.23,-263.08 1637.65,-263.58 1640.27,-270.07"/>
</g>
<!-- modules -->
<g id="node22" class="node">
<title>modules</title>
<path fill="#ffccbc" stroke="#666666" d="M1773.75,-349.02C1773.75,-349.02 1631.75,-349.02 1631.75,-349.02 1625.75,-349.02 1619.75,-343.02 1619.75,-337.02 1619.75,-337.02 1619.75,-296.77 1619.75,-296.77 1619.75,-290.77 1625.75,-284.77 1631.75,-284.77 1631.75,-284.77 1773.75,-284.77 1773.75,-284.77 1779.75,-284.77 1785.75,-290.77 1785.75,-296.77 1785.75,-296.77 1785.75,-337.02 1785.75,-337.02 1785.75,-343.02 1779.75,-349.02 1773.75,-349.02"/>
<text xml:space="preserve" text-anchor="middle" x="1702.75" y="-335.52" font-family="Helvetica,sans-Serif" font-size="10.00">mounted modules</text>
<text xml:space="preserve" text-anchor="middle" x="1702.75" y="-324.27" font-family="Helvetica,sans-Serif" font-size="10.00">loop&#45;streaming orchestrator</text>
<text xml:space="preserve" text-anchor="middle" x="1702.75" y="-313.02" font-family="Helvetica,sans-Serif" font-size="10.00">provider&#45;anthropic · context&#45;simple</text>
<text xml:space="preserve" text-anchor="middle" x="1702.75" y="-301.77" font-family="Helvetica,sans-Serif" font-size="10.00">tools: fs/bash/web/search/task</text>
<text xml:space="preserve" text-anchor="middle" x="1702.75" y="-290.52" font-family="Helvetica,sans-Serif" font-size="10.00">hooks&#45;approval (decides when)</text>
</g>
<!-- session&#45;&gt;modules -->
<g id="edge14" class="edge">
<title>session&#45;&gt;modules</title>
<path fill="none" stroke="#555555" stroke-dasharray="1,5" d="M1453.25,-328.79C1494.16,-326.83 1556.35,-323.85 1608.28,-321.37"/>
<polygon fill="#555555" stroke="#555555" points="1608.2,-324.88 1618.02,-320.9 1607.86,-317.88 1608.2,-324.88"/>
</g>
<!-- coord&#45;&gt;qbridge -->
<g id="edge22" class="edge">
<title>coord&#45;&gt;qbridge</title>
<path fill="none" stroke="#c62828" stroke-width="1.8" d="M1692.98,-224.72C1671.97,-177.5 1613.59,-65.41 1522,-36.15 1370.84,12.15 1272.97,27.41 1169.5,-92.9 1060.69,-219.41 1045.66,-429.86 1044.7,-523.48"/>
<polygon fill="#c62828" stroke="#c62828" stroke-width="1.8" points="1041.2,-523.42 1044.66,-533.43 1048.2,-523.44 1041.2,-523.42"/>
<text xml:space="preserve" text-anchor="middle" x="1408.12" y="-76.35" font-family="Helvetica,sans-Serif" font-size="9.00" fill="#c62828">~30 hook events:</text>
<text xml:space="preserve" text-anchor="middle" x="1408.12" y="-66.6" font-family="Helvetica,sans-Serif" font-size="9.00" fill="#c62828">llm:stream_* · tool:pre/post/error</text>
<text xml:space="preserve" text-anchor="middle" x="1408.12" y="-56.85" font-family="Helvetica,sans-Serif" font-size="9.00" fill="#c62828">provider:response/error/retry</text>
<text xml:space="preserve" text-anchor="middle" x="1408.12" y="-47.1" font-family="Helvetica,sans-Serif" font-size="9.00" fill="#c62828">session:* · approval:* · task:agent_*</text>
<text xml:space="preserve" text-anchor="middle" x="1408.12" y="-37.35" font-family="Helvetica,sans-Serif" font-size="9.00" fill="#c62828">orchestrator:complete …</text>
</g>
<!-- legend -->
<g id="node23" class="node">
<title>legend</title>
<path fill="#f5f5f5" stroke="none" d="M217.5,-935.65C217.5,-935.65 12,-935.65 12,-935.65 6,-935.65 0,-929.65 0,-923.65 0,-923.65 0,-900.15 0,-900.15 0,-894.15 6,-888.15 12,-888.15 12,-888.15 217.5,-888.15 217.5,-888.15 223.5,-888.15 229.5,-894.15 229.5,-900.15 229.5,-900.15 229.5,-923.65 229.5,-923.65 229.5,-929.65 223.5,-935.65 217.5,-935.65"/>
<text xml:space="preserve" text-anchor="start" x="12" y="-917.9" font-family="Helvetica,sans-Serif" font-size="10.00" fill="#2e7d32">▶ green = app → Amplifier (calls, registrations)</text>
<text xml:space="preserve" text-anchor="start" x="12" y="-899.15" font-family="Helvetica,sans-Serif" font-size="10.00" fill="#c62828">◀ red = Amplifier → app (hook events → UI)</text>
</g>
</g>
</svg>
