<svg class="rich-terminal" viewBox="0 0 1238 782.0" xmlns="http://www.w3.org/2000/svg">
    <!-- Generated with Rich https://www.textualize.io -->
    <style>

    @font-face {
        font-family: "Fira Code";
        src: local("FiraCode-Regular"),
                url("https://cdnjs.cloudflare.com/ajax/libs/firacode/6.2.0/woff2/FiraCode-Regular.woff2") format("woff2"),
                url("https://cdnjs.cloudflare.com/ajax/libs/firacode/6.2.0/woff/FiraCode-Regular.woff") format("woff");
        font-style: normal;
        font-weight: 400;
    }
    @font-face {
        font-family: "Fira Code";
        src: local("FiraCode-Bold"),
                url("https://cdnjs.cloudflare.com/ajax/libs/firacode/6.2.0/woff2/FiraCode-Bold.woff2") format("woff2"),
                url("https://cdnjs.cloudflare.com/ajax/libs/firacode/6.2.0/woff/FiraCode-Bold.woff") format("woff");
        font-style: bold;
        font-weight: 700;
    }

    .terminal-682223627-matrix {
        font-family: Fira Code, monospace;
        font-size: 20px;
        line-height: 24.4px;
        font-variant-east-asian: full-width;
    }

    .terminal-682223627-title {
        font-size: 18px;
        font-weight: bold;
        font-family: arial;
    }

    .terminal-682223627-r1 { fill: #c5c8c6 }
.terminal-682223627-r2 { fill: #aeb6c6;font-weight: bold }
.terminal-682223627-r3 { fill: #c9d1e0 }
.terminal-682223627-r4 { fill: #eef2f8;font-weight: bold }
.terminal-682223627-r5 { fill: #6fc3c3 }
.terminal-682223627-r6 { fill: #333b4d }
.terminal-682223627-r7 { fill: #4a5163 }
.terminal-682223627-r8 { fill: #232937 }
.terminal-682223627-r9 { fill: #7ec699;font-weight: bold }
.terminal-682223627-r10 { fill: #e0a458 }
.terminal-682223627-r11 { fill: #eef2f8 }
.terminal-682223627-r12 { fill: #6b7487 }
.terminal-682223627-r13 { fill: #7ec699 }
.terminal-682223627-r14 { fill: #6b7487;font-style: italic; }
    </style>

    <defs>
    <clipPath id="terminal-682223627-clip-terminal">
      <rect x="0" y="0" width="1219.0" height="731.0" />
    </clipPath>
    <clipPath id="terminal-682223627-line-0">
    <rect x="0" y="1.5" width="1220" height="24.65"/>
            </clipPath>
<clipPath id="terminal-682223627-line-1">
    <rect x="0" y="25.9" width="1220" height="24.65"/>
            </clipPath>
<clipPath id="terminal-682223627-line-2">
    <rect x="0" y="50.3" width="1220" height="24.65"/>
            </clipPath>
<clipPath id="terminal-682223627-line-3">
    <rect x="0" y="74.7" width="1220" height="24.65"/>
            </clipPath>
<clipPath id="terminal-682223627-line-4">
    <rect x="0" y="99.1" width="1220" height="24.65"/>
            </clipPath>
<clipPath id="terminal-682223627-line-5">
    <rect x="0" y="123.5" width="1220" height="24.65"/>
            </clipPath>
<clipPath id="terminal-682223627-line-6">
    <rect x="0" y="147.9" width="1220" height="24.65"/>
            </clipPath>
<clipPath id="terminal-682223627-line-7">
    <rect x="0" y="172.3" width="1220" height="24.65"/>
            </clipPath>
<clipPath id="terminal-682223627-line-8">
    <rect x="0" y="196.7" width="1220" height="24.65"/>
            </clipPath>
<clipPath id="terminal-682223627-line-9">
    <rect x="0" y="221.1" width="1220" height="24.65"/>
            </clipPath>
<clipPath id="terminal-682223627-line-10">
    <rect x="0" y="245.5" width="1220" height="24.65"/>
            </clipPath>
<clipPath id="terminal-682223627-line-11">
    <rect x="0" y="269.9" width="1220" height="24.65"/>
            </clipPath>
<clipPath id="terminal-682223627-line-12">
    <rect x="0" y="294.3" width="1220" height="24.65"/>
            </clipPath>
<clipPath id="terminal-682223627-line-13">
    <rect x="0" y="318.7" width="1220" height="24.65"/>
            </clipPath>
<clipPath id="terminal-682223627-line-14">
    <rect x="0" y="343.1" width="1220" height="24.65"/>
            </clipPath>
<clipPath id="terminal-682223627-line-15">
    <rect x="0" y="367.5" width="1220" height="24.65"/>
            </clipPath>
<clipPath id="terminal-682223627-line-16">
    <rect x="0" y="391.9" width="1220" height="24.65"/>
            </clipPath>
<clipPath id="terminal-682223627-line-17">
    <rect x="0" y="416.3" width="1220" height="24.65"/>
            </clipPath>
<clipPath id="terminal-682223627-line-18">
    <rect x="0" y="440.7" width="1220" height="24.65"/>
            </clipPath>
<clipPath id="terminal-682223627-line-19">
    <rect x="0" y="465.1" width="1220" height="24.65"/>
            </clipPath>
<clipPath id="terminal-682223627-line-20">
    <rect x="0" y="489.5" width="1220" height="24.65"/>
            </clipPath>
<clipPath id="terminal-682223627-line-21">
    <rect x="0" y="513.9" width="1220" height="24.65"/>
            </clipPath>
<clipPath id="terminal-682223627-line-22">
    <rect x="0" y="538.3" width="1220" height="24.65"/>
            </clipPath>
<clipPath id="terminal-682223627-line-23">
    <rect x="0" y="562.7" width="1220" height="24.65"/>
            </clipPath>
<clipPath id="terminal-682223627-line-24">
    <rect x="0" y="587.1" width="1220" height="24.65"/>
            </clipPath>
<clipPath id="terminal-682223627-line-25">
    <rect x="0" y="611.5" width="1220" height="24.65"/>
            </clipPath>
<clipPath id="terminal-682223627-line-26">
    <rect x="0" y="635.9" width="1220" height="24.65"/>
            </clipPath>
<clipPath id="terminal-682223627-line-27">
    <rect x="0" y="660.3" width="1220" height="24.65"/>
            </clipPath>
<clipPath id="terminal-682223627-line-28">
    <rect x="0" y="684.7" width="1220" height="24.65"/>
            </clipPath>
    </defs>

    <rect fill="#292929" stroke="rgba(255,255,255,0.35)" stroke-width="1" x="1" y="1" width="1236" height="780" rx="8"/><text class="terminal-682223627-title" fill="#c5c8c6" text-anchor="middle" x="618" y="27">NewTuiApp</text>
            <g transform="translate(26,22)">
            <circle cx="0" cy="0" r="7" fill="#ff5f57"/>
            <circle cx="22" cy="0" r="7" fill="#febc2e"/>
            <circle cx="44" cy="0" r="7" fill="#28c840"/>
            </g>
        
    <g transform="translate(9, 41)" clip-path="url(#terminal-682223627-clip-terminal)">
    <rect fill="#191d27" x="0" y="1.5" width="256.2" height="24.65" shape-rendering="crispEdges"/><rect fill="#191d27" x="256.2" y="1.5" width="695.4" height="24.65" shape-rendering="crispEdges"/><rect fill="#191d27" x="951.6" y="1.5" width="268.4" height="24.65" shape-rendering="crispEdges"/><rect fill="#232937" x="0" y="25.9" width="12.2" height="24.65" shape-rendering="crispEdges"/><rect fill="#232937" x="12.2" y="25.9" width="1183.4" height="24.65" shape-rendering="crispEdges"/><rect fill="#232937" x="1195.6" y="25.9" width="12.2" height="24.65" shape-rendering="crispEdges"/><rect fill="#232937" x="1207.8" y="25.9" width="12.2" height="24.65" shape-rendering="crispEdges"/><rect fill="#232937" x="0" y="50.3" width="12.2" height="24.65" shape-rendering="crispEdges"/><rect fill="#232937" x="12.2" y="50.3" width="207.4" height="24.65" shape-rendering="crispEdges"/><rect fill="#232937" x="219.6" y="50.3" width="366" height="24.65" shape-rendering="crispEdges"/><rect fill="#232937" x="585.6" y="50.3" width="561.2" height="24.65" shape-rendering="crispEdges"/><rect fill="#232937" x="1146.8" y="50.3" width="48.8" height="24.65" shape-rendering="crispEdges"/><rect fill="#232937" x="1195.6" y="50.3" width="12.2" height="24.65" shape-rendering="crispEdges"/><rect fill="#232937" x="1207.8" y="50.3" width="12.2" height="24.65" shape-rendering="crispEdges"/><rect fill="#232937" x="0" y="74.7" width="12.2" height="24.65" shape-rendering="crispEdges"/><rect fill="#232937" x="12.2" y="74.7" width="414.8" height="24.65" shape-rendering="crispEdges"/><rect fill="#232937" x="427" y="74.7" width="109.8" height="24.65" shape-rendering="crispEdges"/><rect fill="#232937" x="536.8" y="74.7" width="646.6" height="24.65" shape-rendering="crispEdges"/><rect fill="#232937" x="1183.4" y="74.7" width="12.2" height="24.65" shape-rendering="crispEdges"/><rect fill="#232937" x="1195.6" y="74.7" width="12.2" height="24.65" shape-rendering="crispEdges"/><rect fill="#232937" x="1207.8" y="74.7" width="12.2" height="24.65" shape-rendering="crispEdges"/><rect fill="#232937" x="0" y="99.1" width="12.2" height="24.65" shape-rendering="crispEdges"/><rect fill="#232937" x="12.2" y="99.1" width="353.8" height="24.65" shape-rendering="crispEdges"/><rect fill="#232937" x="366" y="99.1" width="829.6" height="24.65" shape-rendering="crispEdges"/><rect fill="#232937" x="1195.6" y="99.1" width="12.2" height="24.65" shape-rendering="crispEdges"/><rect fill="#232937" x="1207.8" y="99.1" width="12.2" height="24.65" shape-rendering="crispEdges"/><rect fill="#232937" x="0" y="123.5" width="12.2" height="24.65" shape-rendering="crispEdges"/><rect fill="#232937" x="12.2" y="123.5" width="1183.4" height="24.65" shape-rendering="crispEdges"/><rect fill="#232937" x="1195.6" y="123.5" width="12.2" height="24.65" shape-rendering="crispEdges"/><rect fill="#232937" x="1207.8" y="123.5" width="12.2" height="24.65" shape-rendering="crispEdges"/><rect fill="#232937" x="0" y="147.9" width="12.2" height="24.65" shape-rendering="crispEdges"/><rect fill="#232937" x="12.2" y="147.9" width="622.2" height="24.65" shape-rendering="crispEdges"/><rect fill="#232937" x="634.4" y="147.9" width="12.2" height="24.65" shape-rendering="crispEdges"/><rect fill="#232937" x="646.6" y="147.9" width="549" height="24.65" shape-rendering="crispEdges"/><rect fill="#333b4d" x="1195.6" y="147.9" width="12.2" height="24.65" shape-rendering="crispEdges"/><rect fill="#232937" x="1207.8" y="147.9" width="12.2" height="24.65" shape-rendering="crispEdges"/><rect fill="#232937" x="0" y="172.3" width="12.2" height="24.65" shape-rendering="crispEdges"/><rect fill="#232937" x="12.2" y="172.3" width="1183.4" height="24.65" shape-rendering="crispEdges"/><rect fill="#333b4d" x="1195.6" y="172.3" width="12.2" height="24.65" shape-rendering="crispEdges"/><rect fill="#232937" x="1207.8" y="172.3" width="12.2" height="24.65" shape-rendering="crispEdges"/><rect fill="#232937" x="0" y="196.7" width="12.2" height="24.65" shape-rendering="crispEdges"/><rect fill="#232937" x="12.2" y="196.7" width="24.4" height="24.65" shape-rendering="crispEdges"/><rect fill="#232937" x="36.6" y="196.7" width="85.4" height="24.65" shape-rendering="crispEdges"/><rect fill="#232937" x="122" y="196.7" width="817.4" height="24.65" shape-rendering="crispEdges"/><rect fill="#232937" x="939.4" y="196.7" width="256.2" height="24.65" shape-rendering="crispEdges"/><rect fill="#333b4d" x="1195.6" y="196.7" width="12.2" height="24.65" shape-rendering="crispEdges"/><rect fill="#232937" x="1207.8" y="196.7" width="12.2" height="24.65" shape-rendering="crispEdges"/><rect fill="#232937" x="0" y="221.1" width="12.2" height="24.65" shape-rendering="crispEdges"/><rect fill="#232937" x="12.2" y="221.1" width="1183.4" height="24.65" shape-rendering="crispEdges"/><rect fill="#333b4d" x="1195.6" y="221.1" width="12.2" height="24.65" shape-rendering="crispEdges"/><rect fill="#232937" x="1207.8" y="221.1" width="12.2" height="24.65" shape-rendering="crispEdges"/><rect fill="#232937" x="0" y="245.5" width="12.2" height="24.65" shape-rendering="crispEdges"/><rect fill="#232937" x="12.2" y="245.5" width="24.4" height="24.65" shape-rendering="crispEdges"/><rect fill="#232937" x="36.6" y="245.5" width="268.4" height="24.65" shape-rendering="crispEdges"/><rect fill="#232937" x="305" y="245.5" width="219.6" height="24.65" shape-rendering="crispEdges"/><rect fill="#232937" x="524.6" y="245.5" width="671" height="24.65" shape-rendering="crispEdges"/><rect fill="#333b4d" x="1195.6" y="245.5" width="12.2" height="24.65" shape-rendering="crispEdges"/><rect fill="#232937" x="1207.8" y="245.5" width="12.2" height="24.65" shape-rendering="crispEdges"/><rect fill="#232937" x="0" y="269.9" width="12.2" height="24.65" shape-rendering="crispEdges"/><rect fill="#232937" x="12.2" y="269.9" width="48.8" height="24.65" shape-rendering="crispEdges"/><rect fill="#232937" x="61" y="269.9" width="280.6" height="24.65" shape-rendering="crispEdges"/><rect fill="#232937" x="341.6" y="269.9" width="854" height="24.65" shape-rendering="crispEdges"/><rect fill="#333b4d" x="1195.6" y="269.9" width="12.2" height="24.65" shape-rendering="crispEdges"/><rect fill="#232937" x="1207.8" y="269.9" width="12.2" height="24.65" shape-rendering="crispEdges"/><rect fill="#232937" x="0" y="294.3" width="12.2" height="24.65" shape-rendering="crispEdges"/><rect fill="#232937" x="12.2" y="294.3" width="48.8" height="24.65" shape-rendering="crispEdges"/><rect fill="#232937" x="61" y="294.3" width="390.4" height="24.65" shape-rendering="crispEdges"/><rect fill="#232937" x="451.4" y="294.3" width="744.2" height="24.65" shape-rendering="crispEdges"/><rect fill="#333b4d" x="1195.6" y="294.3" width="12.2" height="24.65" shape-rendering="crispEdges"/><rect fill="#232937" x="1207.8" y="294.3" width="12.2" height="24.65" shape-rendering="crispEdges"/><rect fill="#232937" x="0" y="318.7" width="12.2" height="24.65" shape-rendering="crispEdges"/><rect fill="#232937" x="12.2" y="318.7" width="48.8" height="24.65" shape-rendering="crispEdges"/><rect fill="#232937" x="61" y="318.7" width="183" height="24.65" shape-rendering="crispEdges"/><rect fill="#232937" x="244" y="318.7" width="951.6" height="24.65" shape-rendering="crispEdges"/><rect fill="#333b4d" x="1195.6" y="318.7" width="12.2" height="24.65" shape-rendering="crispEdges"/><rect fill="#232937" x="1207.8" y="318.7" width="12.2" height="24.65" shape-rendering="crispEdges"/><rect fill="#232937" x="0" y="343.1" width="12.2" height="24.65" shape-rendering="crispEdges"/><rect fill="#232937" x="12.2" y="343.1" width="24.4" height="24.65" shape-rendering="crispEdges"/><rect fill="#232937" x="36.6" y="343.1" width="768.6" height="24.65" shape-rendering="crispEdges"/><rect fill="#232937" x="805.2" y="343.1" width="390.4" height="24.65" shape-rendering="crispEdges"/><rect fill="#333b4d" x="1195.6" y="343.1" width="12.2" height="24.65" shape-rendering="crispEdges"/><rect fill="#232937" x="1207.8" y="343.1" width="12.2" height="24.65" shape-rendering="crispEdges"/><rect fill="#232937" x="0" y="367.5" width="12.2" height="24.65" shape-rendering="crispEdges"/><rect fill="#232937" x="12.2" y="367.5" width="48.8" height="24.65" shape-rendering="crispEdges"/><rect fill="#232937" x="61" y="367.5" width="231.8" height="24.65" shape-rendering="crispEdges"/><rect fill="#232937" x="292.8" y="367.5" width="219.6" height="24.65" shape-rendering="crispEdges"/><rect fill="#232937" x="512.4" y="367.5" width="683.2" height="24.65" shape-rendering="crispEdges"/><rect fill="#333b4d" x="1195.6" y="367.5" width="12.2" height="24.65" shape-rendering="crispEdges"/><rect fill="#232937" x="1207.8" y="367.5" width="12.2" height="24.65" shape-rendering="crispEdges"/><rect fill="#232937" x="0" y="391.9" width="12.2" height="24.65" shape-rendering="crispEdges"/><rect fill="#232937" x="12.2" y="391.9" width="24.4" height="24.65" shape-rendering="crispEdges"/><rect fill="#232937" x="36.6" y="391.9" width="963.8" height="24.65" shape-rendering="crispEdges"/><rect fill="#232937" x="1000.4" y="391.9" width="195.2" height="24.65" shape-rendering="crispEdges"/><rect fill="#333b4d" x="1195.6" y="391.9" width="12.2" height="24.65" shape-rendering="crispEdges"/><rect fill="#232937" x="1207.8" y="391.9" width="12.2" height="24.65" shape-rendering="crispEdges"/><rect fill="#232937" x="0" y="416.3" width="12.2" height="24.65" shape-rendering="crispEdges"/><rect fill="#232937" x="12.2" y="416.3" width="48.8" height="24.65" shape-rendering="crispEdges"/><rect fill="#232937" x="61" y="416.3" width="231.8" height="24.65" shape-rendering="crispEdges"/><rect fill="#232937" x="292.8" y="416.3" width="219.6" height="24.65" shape-rendering="crispEdges"/><rect fill="#232937" x="512.4" y="416.3" width="683.2" height="24.65" shape-rendering="crispEdges"/><rect fill="#333b4d" x="1195.6" y="416.3" width="12.2" height="24.65" shape-rendering="crispEdges"/><rect fill="#232937" x="1207.8" y="416.3" width="12.2" height="24.65" shape-rendering="crispEdges"/><rect fill="#232937" x="0" y="440.7" width="12.2" height="24.65" shape-rendering="crispEdges"/><rect fill="#232937" x="12.2" y="440.7" width="24.4" height="24.65" shape-rendering="crispEdges"/><rect fill="#232937" x="36.6" y="440.7" width="390.4" height="24.65" shape-rendering="crispEdges"/><rect fill="#232937" x="427" y="440.7" width="768.6" height="24.65" shape-rendering="crispEdges"/><rect fill="#333b4d" x="1195.6" y="440.7" width="12.2" height="24.65" shape-rendering="crispEdges"/><rect fill="#232937" x="1207.8" y="440.7" width="12.2" height="24.65" shape-rendering="crispEdges"/><rect fill="#232937" x="0" y="465.1" width="12.2" height="24.65" shape-rendering="crispEdges"/><rect fill="#232937" x="12.2" y="465.1" width="48.8" height="24.65" shape-rendering="crispEdges"/><rect fill="#232937" x="61" y="465.1" width="231.8" height="24.65" shape-rendering="crispEdges"/><rect fill="#232937" x="292.8" y="465.1" width="219.6" height="24.65" shape-rendering="crispEdges"/><rect fill="#232937" x="512.4" y="465.1" width="683.2" height="24.65" shape-rendering="crispEdges"/><rect fill="#333b4d" x="1195.6" y="465.1" width="12.2" height="24.65" shape-rendering="crispEdges"/><rect fill="#232937" x="1207.8" y="465.1" width="12.2" height="24.65" shape-rendering="crispEdges"/><rect fill="#232937" x="0" y="489.5" width="12.2" height="24.65" shape-rendering="crispEdges"/><rect fill="#232937" x="12.2" y="489.5" width="1183.4" height="24.65" shape-rendering="crispEdges"/><rect fill="#333b4d" x="1195.6" y="489.5" width="12.2" height="24.65" shape-rendering="crispEdges"/><rect fill="#232937" x="1207.8" y="489.5" width="12.2" height="24.65" shape-rendering="crispEdges"/><rect fill="#232937" x="0" y="513.9" width="12.2" height="24.65" shape-rendering="crispEdges"/><rect fill="#232937" x="12.2" y="513.9" width="1146.8" height="24.65" shape-rendering="crispEdges"/><rect fill="#232937" x="1159" y="513.9" width="36.6" height="24.65" shape-rendering="crispEdges"/><rect fill="#333b4d" x="1195.6" y="513.9" width="12.2" height="24.65" shape-rendering="crispEdges"/><rect fill="#232937" x="1207.8" y="513.9" width="12.2" height="24.65" shape-rendering="crispEdges"/><rect fill="#232937" x="0" y="538.3" width="12.2" height="24.65" shape-rendering="crispEdges"/><rect fill="#232937" x="12.2" y="538.3" width="207.4" height="24.65" shape-rendering="crispEdges"/><rect fill="#232937" x="219.6" y="538.3" width="976" height="24.65" shape-rendering="crispEdges"/><rect fill="#333b4d" x="1195.6" y="538.3" width="12.2" height="24.65" shape-rendering="crispEdges"/><rect fill="#232937" x="1207.8" y="538.3" width="12.2" height="24.65" shape-rendering="crispEdges"/><rect fill="#232937" x="0" y="562.7" width="12.2" height="24.65" shape-rendering="crispEdges"/><rect fill="#232937" x="12.2" y="562.7" width="24.4" height="24.65" shape-rendering="crispEdges"/><rect fill="#232937" x="36.6" y="562.7" width="683.2" height="24.65" shape-rendering="crispEdges"/><rect fill="#232937" x="719.8" y="562.7" width="475.8" height="24.65" shape-rendering="crispEdges"/><rect fill="#333b4d" x="1195.6" y="562.7" width="12.2" height="24.65" shape-rendering="crispEdges"/><rect fill="#232937" x="1207.8" y="562.7" width="12.2" height="24.65" shape-rendering="crispEdges"/><rect fill="#232937" x="0" y="587.1" width="12.2" height="24.65" shape-rendering="crispEdges"/><rect fill="#232937" x="12.2" y="587.1" width="1183.4" height="24.65" shape-rendering="crispEdges"/><rect fill="#333b4d" x="1195.6" y="587.1" width="12.2" height="24.65" shape-rendering="crispEdges"/><rect fill="#232937" x="1207.8" y="587.1" width="12.2" height="24.65" shape-rendering="crispEdges"/><rect fill="#232937" x="0" y="611.5" width="12.2" height="24.65" shape-rendering="crispEdges"/><rect fill="#232937" x="12.2" y="611.5" width="390.4" height="24.65" shape-rendering="crispEdges"/><rect fill="#232937" x="402.6" y="611.5" width="12.2" height="24.65" shape-rendering="crispEdges"/><rect fill="#232937" x="414.8" y="611.5" width="780.8" height="24.65" shape-rendering="crispEdges"/><rect fill="#333b4d" x="1195.6" y="611.5" width="12.2" height="24.65" shape-rendering="crispEdges"/><rect fill="#232937" x="1207.8" y="611.5" width="12.2" height="24.65" shape-rendering="crispEdges"/><rect fill="#232937" x="0" y="635.9" width="12.2" height="24.65" shape-rendering="crispEdges"/><rect fill="#232937" x="12.2" y="635.9" width="1000.4" height="24.65" shape-rendering="crispEdges"/><rect fill="#232937" x="1012.6" y="635.9" width="12.2" height="24.65" shape-rendering="crispEdges"/><rect fill="#232937" x="1024.8" y="635.9" width="158.6" height="24.65" shape-rendering="crispEdges"/><rect fill="#232937" x="1183.4" y="635.9" width="12.2" height="24.65" shape-rendering="crispEdges"/><rect fill="#232937" x="1195.6" y="635.9" width="12.2" height="24.65" shape-rendering="crispEdges"/><rect fill="#232937" x="1207.8" y="635.9" width="12.2" height="24.65" shape-rendering="crispEdges"/><rect fill="#191d27" x="0" y="660.3" width="12.2" height="24.65" shape-rendering="crispEdges"/><rect fill="#191d27" x="12.2" y="660.3" width="12.2" height="24.65" shape-rendering="crispEdges"/><rect fill="#191d27" x="24.4" y="660.3" width="73.2" height="24.65" shape-rendering="crispEdges"/><rect fill="#191d27" x="97.6" y="660.3" width="12.2" height="24.65" shape-rendering="crispEdges"/><rect fill="#191d27" x="109.8" y="660.3" width="12.2" height="24.65" shape-rendering="crispEdges"/><rect fill="#191d27" x="122" y="660.3" width="12.2" height="24.65" shape-rendering="crispEdges"/><rect fill="#c9d1e0" x="134.2" y="660.3" width="12.2" height="24.65" shape-rendering="crispEdges"/><rect fill="#191d27" x="146.4" y="660.3" width="1049.2" height="24.65" shape-rendering="crispEdges"/><rect fill="#191d27" x="1195.6" y="660.3" width="12.2" height="24.65" shape-rendering="crispEdges"/><rect fill="#191d27" x="1207.8" y="660.3" width="12.2" height="24.65" shape-rendering="crispEdges"/><rect fill="#191d27" x="0" y="684.7" width="12.2" height="24.65" shape-rendering="crispEdges"/><rect fill="#191d27" x="12.2" y="684.7" width="109.8" height="24.65" shape-rendering="crispEdges"/><rect fill="#191d27" x="122" y="684.7" width="36.6" height="24.65" shape-rendering="crispEdges"/><rect fill="#191d27" x="158.6" y="684.7" width="414.8" height="24.65" shape-rendering="crispEdges"/><rect fill="#191d27" x="573.4" y="684.7" width="36.6" height="24.65" shape-rendering="crispEdges"/><rect fill="#191d27" x="610" y="684.7" width="85.4" height="24.65" shape-rendering="crispEdges"/><rect fill="#191d27" x="695.4" y="684.7" width="36.6" height="24.65" shape-rendering="crispEdges"/><rect fill="#191d27" x="732" y="684.7" width="48.8" height="24.65" shape-rendering="crispEdges"/><rect fill="#191d27" x="780.8" y="684.7" width="36.6" height="24.65" shape-rendering="crispEdges"/><rect fill="#191d27" x="817.4" y="684.7" width="73.2" height="24.65" shape-rendering="crispEdges"/><rect fill="#191d27" x="890.6" y="684.7" width="12.2" height="24.65" shape-rendering="crispEdges"/><rect fill="#191d27" x="902.8" y="684.7" width="305" height="24.65" shape-rendering="crispEdges"/><rect fill="#191d27" x="1207.8" y="684.7" width="12.2" height="24.65" shape-rendering="crispEdges"/><rect fill="#191d27" x="0" y="709.1" width="12.2" height="24.65" shape-rendering="crispEdges"/><rect fill="#191d27" x="12.2" y="709.1" width="683.2" height="24.65" shape-rendering="crispEdges"/><rect fill="#191d27" x="695.4" y="709.1" width="512.4" height="24.65" shape-rendering="crispEdges"/><rect fill="#191d27" x="1207.8" y="709.1" width="12.2" height="24.65" shape-rendering="crispEdges"/>
    <g class="terminal-682223627-matrix">
    <text class="terminal-682223627-r2" x="256.2" y="20" textLength="695.4" clip-path="url(#terminal-682223627-line-0)">amplifier-app-newtui&#160;—&#160;Amplifier&#160;—&#160;ready&#160;—&#160;anchors&#160;—&#160;e07d</text><text class="terminal-682223627-r1" x="1220" y="20" textLength="12.2" clip-path="url(#terminal-682223627-line-0)">
</text><text class="terminal-682223627-r1" x="1220" y="44.4" textLength="12.2" clip-path="url(#terminal-682223627-line-1)">
</text><text class="terminal-682223627-r3" x="12.2" y="68.8" textLength="207.4" clip-path="url(#terminal-682223627-line-2)">This&#160;repo&#160;is&#160;the&#160;</text><text class="terminal-682223627-r4" x="219.6" y="68.8" textLength="366" clip-path="url(#terminal-682223627-line-2)">command-line&#160;app&#160;for&#160;Amplifier</text><text class="terminal-682223627-r3" x="585.6" y="68.8" textLength="561.2" clip-path="url(#terminal-682223627-line-2)">.&#160;If&#160;amplifier-core&#160;is&#160;the&#160;engine,&#160;this&#160;is&#160;the</text><text class="terminal-682223627-r1" x="1220" y="68.8" textLength="12.2" clip-path="url(#terminal-682223627-line-2)">
</text><text class="terminal-682223627-r3" x="12.2" y="93.2" textLength="414.8" clip-path="url(#terminal-682223627-line-3)">dashboard&#160;and&#160;steering&#160;wheel:&#160;the&#160;</text><text class="terminal-682223627-r5" x="427" y="93.2" textLength="109.8" clip-path="url(#terminal-682223627-line-3)">amplifier</text><text class="terminal-682223627-r3" x="536.8" y="93.2" textLength="646.6" clip-path="url(#terminal-682223627-line-3)">&#160;command&#160;starts&#160;sessions,&#160;configures&#160;providers,&#160;loads</text><text class="terminal-682223627-r1" x="1220" y="93.2" textLength="12.2" clip-path="url(#terminal-682223627-line-3)">
</text><text class="terminal-682223627-r3" x="12.2" y="117.6" textLength="353.8" clip-path="url(#terminal-682223627-line-4)">bundles,&#160;and&#160;renders&#160;this&#160;UI.</text><text class="terminal-682223627-r1" x="1220" y="117.6" textLength="12.2" clip-path="url(#terminal-682223627-line-4)">
</text><text class="terminal-682223627-r6" x="1195.6" y="142" textLength="12.2" clip-path="url(#terminal-682223627-line-5)">▂</text><text class="terminal-682223627-r1" x="1220" y="142" textLength="12.2" clip-path="url(#terminal-682223627-line-5)">
</text><text class="terminal-682223627-r6" x="12.2" y="166.4" textLength="622.2" clip-path="url(#terminal-682223627-line-6)">───────────────────────────────────────────────────</text><text class="terminal-682223627-r7" x="646.6" y="166.4" textLength="549" clip-path="url(#terminal-682223627-line-6)">6.1s&#160;·&#160;83.9k&#160;tok,&#160;91%&#160;cached&#160;·&#160;$0.17&#160;·&#160;answer</text><text class="terminal-682223627-r1" x="1220" y="166.4" textLength="12.2" clip-path="url(#terminal-682223627-line-6)">
</text><text class="terminal-682223627-r1" x="1220" y="190.8" textLength="12.2" clip-path="url(#terminal-682223627-line-7)">
</text><text class="terminal-682223627-r9" x="12.2" y="215.2" textLength="24.4" clip-path="url(#terminal-682223627-line-8)">❯&#160;</text><text class="terminal-682223627-r10" x="36.6" y="215.2" textLength="85.4" clip-path="url(#terminal-682223627-line-8)">[auto]&#160;</text><text class="terminal-682223627-r11" x="122" y="215.2" textLength="817.4" clip-path="url(#terminal-682223627-line-8)">refactor&#160;the&#160;session&#160;store&#160;so&#160;history&#160;is&#160;durable&#160;offline&#160;and&#160;online</text><text class="terminal-682223627-r1" x="1220" y="215.2" textLength="12.2" clip-path="url(#terminal-682223627-line-8)">
</text><text class="terminal-682223627-r1" x="1220" y="239.6" textLength="12.2" clip-path="url(#terminal-682223627-line-9)">
</text><text class="terminal-682223627-r10" x="12.2" y="264" textLength="24.4" clip-path="url(#terminal-682223627-line-10)">·&#160;</text><text class="terminal-682223627-r3" x="36.6" y="264" textLength="268.4" clip-path="url(#terminal-682223627-line-10)">Refactor&#160;session&#160;store</text><text class="terminal-682223627-r12" x="305" y="264" textLength="219.6" clip-path="url(#terminal-682223627-line-10)">&#160;(8s&#160;·&#160;↓&#160;3.8k&#160;tok)</text><text class="terminal-682223627-r1" x="1220" y="264" textLength="12.2" clip-path="url(#terminal-682223627-line-10)">
</text><text class="terminal-682223627-r13" x="12.2" y="288.4" textLength="48.8" clip-path="url(#terminal-682223627-line-11)">&#160;&#160;✔&#160;</text><text class="terminal-682223627-r12" x="61" y="288.4" textLength="280.6" clip-path="url(#terminal-682223627-line-11)">Audit&#160;persistence&#160;paths</text><text class="terminal-682223627-r1" x="1220" y="288.4" textLength="12.2" clip-path="url(#terminal-682223627-line-11)">
</text><text class="terminal-682223627-r13" x="12.2" y="312.8" textLength="48.8" clip-path="url(#terminal-682223627-line-12)">&#160;&#160;✔&#160;</text><text class="terminal-682223627-r12" x="61" y="312.8" textLength="390.4" clip-path="url(#terminal-682223627-line-12)">Migrate&#160;history&#160;to&#160;durable&#160;store</text><text class="terminal-682223627-r1" x="1220" y="312.8" textLength="12.2" clip-path="url(#terminal-682223627-line-12)">
</text><text class="terminal-682223627-r13" x="12.2" y="337.2" textLength="48.8" clip-path="url(#terminal-682223627-line-13)">&#160;&#160;✔&#160;</text><text class="terminal-682223627-r12" x="61" y="337.2" textLength="183" clip-path="url(#terminal-682223627-line-13)">Verify&#160;and&#160;push</text><text class="terminal-682223627-r1" x="1220" y="337.2" textLength="12.2" clip-path="url(#terminal-682223627-line-13)">
</text><text class="terminal-682223627-r11" x="12.2" y="361.6" textLength="24.4" clip-path="url(#terminal-682223627-line-14)">●&#160;</text><text class="terminal-682223627-r3" x="36.6" y="361.6" textLength="768.6" clip-path="url(#terminal-682223627-line-14)">Mapping&#160;every&#160;read&#160;and&#160;write&#160;against&#160;the&#160;current&#160;session&#160;store.</text><text class="terminal-682223627-r1" x="1220" y="361.6" textLength="12.2" clip-path="url(#terminal-682223627-line-14)">
</text><text class="terminal-682223627-r12" x="12.2" y="386" textLength="48.8" clip-path="url(#terminal-682223627-line-15)">&#160;&#160;●&#160;</text><text class="terminal-682223627-r12" x="61" y="386" textLength="231.8" clip-path="url(#terminal-682223627-line-15)">Ran&#160;1&#160;shell&#160;command</text><text class="terminal-682223627-r7" x="292.8" y="386" textLength="219.6" clip-path="url(#terminal-682223627-line-15)">&#160;·&#160;click&#160;to&#160;expand</text><text class="terminal-682223627-r1" x="1220" y="386" textLength="12.2" clip-path="url(#terminal-682223627-line-15)">
</text><text class="terminal-682223627-r11" x="12.2" y="410.4" textLength="24.4" clip-path="url(#terminal-682223627-line-16)">●&#160;</text><text class="terminal-682223627-r3" x="36.6" y="410.4" textLength="963.8" clip-path="url(#terminal-682223627-line-16)">History&#160;paths&#160;found&#160;in&#160;three&#160;modules.&#160;Moving&#160;them&#160;behind&#160;one&#160;durable&#160;interface.</text><text class="terminal-682223627-r1" x="1220" y="410.4" textLength="12.2" clip-path="url(#terminal-682223627-line-16)">
</text><text class="terminal-682223627-r12" x="12.2" y="434.8" textLength="48.8" clip-path="url(#terminal-682223627-line-17)">&#160;&#160;●&#160;</text><text class="terminal-682223627-r12" x="61" y="434.8" textLength="231.8" clip-path="url(#terminal-682223627-line-17)">Ran&#160;1&#160;shell&#160;command</text><text class="terminal-682223627-r7" x="292.8" y="434.8" textLength="219.6" clip-path="url(#terminal-682223627-line-17)">&#160;·&#160;click&#160;to&#160;expand</text><text class="terminal-682223627-r1" x="1220" y="434.8" textLength="12.2" clip-path="url(#terminal-682223627-line-17)">
</text><text class="terminal-682223627-r11" x="12.2" y="459.2" textLength="24.4" clip-path="url(#terminal-682223627-line-18)">●&#160;</text><text class="terminal-682223627-r3" x="36.6" y="459.2" textLength="390.4" clip-path="url(#terminal-682223627-line-18)">Tests&#160;green.&#160;Preparing&#160;the&#160;push.</text><text class="terminal-682223627-r1" x="1220" y="459.2" textLength="12.2" clip-path="url(#terminal-682223627-line-18)">
</text><text class="terminal-682223627-r12" x="12.2" y="483.6" textLength="48.8" clip-path="url(#terminal-682223627-line-19)">&#160;&#160;●&#160;</text><text class="terminal-682223627-r12" x="61" y="483.6" textLength="231.8" clip-path="url(#terminal-682223627-line-19)">Ran&#160;1&#160;shell&#160;command</text><text class="terminal-682223627-r7" x="292.8" y="483.6" textLength="219.6" clip-path="url(#terminal-682223627-line-19)">&#160;·&#160;click&#160;to&#160;expand</text><text class="terminal-682223627-r1" x="1220" y="483.6" textLength="12.2" clip-path="url(#terminal-682223627-line-19)">
</text><text class="terminal-682223627-r1" x="1220" y="508" textLength="12.2" clip-path="url(#terminal-682223627-line-20)">
</text><text class="terminal-682223627-r3" x="12.2" y="532.4" textLength="1146.8" clip-path="url(#terminal-682223627-line-21)">Session&#160;store&#160;refactor&#160;is&#160;in:&#160;history&#160;behind&#160;one&#160;durable&#160;interface,&#160;tests&#160;pass,&#160;branch&#160;pushed.</text><text class="terminal-682223627-r1" x="1220" y="532.4" textLength="12.2" clip-path="url(#terminal-682223627-line-21)">
</text><text class="terminal-682223627-r3" x="12.2" y="556.8" textLength="207.4" clip-path="url(#terminal-682223627-line-22)">Ready&#160;for&#160;review.</text><text class="terminal-682223627-r1" x="1220" y="556.8" textLength="12.2" clip-path="url(#terminal-682223627-line-22)">
</text><text class="terminal-682223627-r7" x="12.2" y="581.2" textLength="24.4" clip-path="url(#terminal-682223627-line-23)">✳&#160;</text><text class="terminal-682223627-r14" x="36.6" y="581.2" textLength="683.2" clip-path="url(#terminal-682223627-line-23)">Goal:&#160;durable&#160;session&#160;store.&#160;Next:&#160;open&#160;PR&#160;against&#160;main.</text><text class="terminal-682223627-r1" x="1220" y="581.2" textLength="12.2" clip-path="url(#terminal-682223627-line-23)">
</text><text class="terminal-682223627-r1" x="1220" y="605.6" textLength="12.2" clip-path="url(#terminal-682223627-line-24)">
</text><text class="terminal-682223627-r6" x="12.2" y="630" textLength="390.4" clip-path="url(#terminal-682223627-line-25)">────────────────────────────────</text><text class="terminal-682223627-r12" x="414.8" y="630" textLength="780.8" clip-path="url(#terminal-682223627-line-25)">9s&#160;·&#160;4.5k&#160;tok,&#160;88%&#160;cached&#160;·&#160;$0.13&#160;·&#160;3&#160;files&#160;·&#160;+142/−38&#160;·&#160;tests&#160;✔</text><text class="terminal-682223627-r1" x="1220" y="630" textLength="12.2" clip-path="url(#terminal-682223627-line-25)">
</text><text class="terminal-682223627-r12" x="1024.8" y="654.4" textLength="158.6" clip-path="url(#terminal-682223627-line-26)">agents&#160;1&#160;done</text><text class="terminal-682223627-r1" x="1220" y="654.4" textLength="12.2" clip-path="url(#terminal-682223627-line-26)">
</text><text class="terminal-682223627-r10" x="0" y="678.8" textLength="12.2" clip-path="url(#terminal-682223627-line-27)">█</text><text class="terminal-682223627-r10" x="24.4" y="678.8" textLength="73.2" clip-path="url(#terminal-682223627-line-27)">[auto]</text><text class="terminal-682223627-r9" x="109.8" y="678.8" textLength="12.2" clip-path="url(#terminal-682223627-line-27)">❯</text><text class="terminal-682223627-r8" x="134.2" y="678.8" textLength="12.2" clip-path="url(#terminal-682223627-line-27)">M</text><text class="terminal-682223627-r7" x="146.4" y="678.8" textLength="1049.2" clip-path="url(#terminal-682223627-line-27)">essage&#160;Amplifier…&#160;&#160;(&#160;/&#160;commands&#160;·&#160;shift+tab&#160;mode&#160;·&#160;enter&#160;send&#160;·&#160;type&#160;mid-turn&#160;to&#160;steer</text><text class="terminal-682223627-r1" x="1220" y="678.8" textLength="12.2" clip-path="url(#terminal-682223627-line-27)">
</text><text class="terminal-682223627-r10" x="12.2" y="703.2" textLength="109.8" clip-path="url(#terminal-682223627-line-28)">mode&#160;auto</text><text class="terminal-682223627-r7" x="122" y="703.2" textLength="36.6" clip-path="url(#terminal-682223627-line-28)">&#160;·&#160;</text><text class="terminal-682223627-r12" x="158.6" y="703.2" textLength="414.8" clip-path="url(#terminal-682223627-line-28)">auto&#160;read,write&#160;·&#160;classifier-gated</text><text class="terminal-682223627-r7" x="573.4" y="703.2" textLength="36.6" clip-path="url(#terminal-682223627-line-28)">&#160;·&#160;</text><text class="terminal-682223627-r12" x="610" y="703.2" textLength="85.4" clip-path="url(#terminal-682223627-line-28)">anchors</text><text class="terminal-682223627-r7" x="695.4" y="703.2" textLength="36.6" clip-path="url(#terminal-682223627-line-28)">&#160;·&#160;</text><text class="terminal-682223627-r12" x="732" y="703.2" textLength="48.8" clip-path="url(#terminal-682223627-line-28)">e07d</text><text class="terminal-682223627-r7" x="780.8" y="703.2" textLength="36.6" clip-path="url(#terminal-682223627-line-28)">&#160;·&#160;</text><text class="terminal-682223627-r12" x="817.4" y="703.2" textLength="73.2" clip-path="url(#terminal-682223627-line-28)">$0.70&#160;</text><text class="terminal-682223627-r13" x="890.6" y="703.2" textLength="12.2" clip-path="url(#terminal-682223627-line-28)">▲</text><text class="terminal-682223627-r1" x="1220" y="703.2" textLength="12.2" clip-path="url(#terminal-682223627-line-28)">
</text><text class="terminal-682223627-r7" x="695.4" y="727.6" textLength="512.4" clip-path="url(#terminal-682223627-line-29)">/&#160;commands&#160;·&#160;shift+tab&#160;mode&#160;·&#160;ctrl-t&#160;tasks</text>
    </g>
    </g>
</svg>
